{
copyright = "Copyright (c) 2015, Cadson Demak (info@cadsondemak.com)";
customParameters = (
{
name = vendorID;
value = CDK;
},
{
name = description;
value = "Copyright (c) 2015, Cadson Demak (info@cadsondemak.com)";
},
{
name = license;

glyphs = (
{
glyphname = A;
lastChange = "2015-11-24 11:57:53 +0000";
layers = (
{
layerId = "1336773A-60E9-4881-855D-D55F9632DBDF";
name = "Light Italic";
paths = (
{
closed = 1;
nodes = (
"89 0 LINE",
"194 177 LINE",
"474 177 LINE",
"505 0 LINE",
"585 0 LINE",
"477 644 LINE",
"381 644 LINE",
"0 0 LINE"
);
},
{
closed = 1;
nodes = (
"417 573 LINE",
"473 242 LINE",
"222 242 LINE"
);
}
);
width = 685;
}
);
leftKerningGroup = A;
note = A;
rightKerningGroup = A;
unicode = 0041;
},
{
glyphname = Aacute;
lastChange = "2015-11-24 11:57:54 +0000";
layers = (
{
layerId = "1336773A-60E9-4881-855D-D55F9632DBDF";
name = "Light Italic";
paths = (
{
closed = 1;
nodes = (
"89 0 LINE",
"194 177 LINE",
"474 177 LINE",
"505 0 LINE",
"585 0 LINE",
"477 644 LINE",
"381 644 LINE",
"0 0 LINE"
);
},
{
closed = 1;
nodes = (
"417 573 LINE",
"473 242 LINE",
"222 242 LINE"
);
},
{
closed = 1;
nodes = (
"454 688 LINE",
"569 856 LINE",
"495 856 LINE",
"388 688 LINE"
);
}
);
width = 685;
}
);
leftKerningGroup = A;
note = Aacute;
rightKerningGroup = A;
unicode = 00C1;
},
{
glyphname = Abreve;
lastChange = "2015-11-24 11:57:52 +0000";
layers = (
{
layerId = "1336773A-60E9-4881-855D-D55F9632DBDF";
name = "Light Italic";
paths = (
{
closed = 1;
nodes = (
"89 0 LINE",
"194 177 LINE",
"474 177 LINE",
"505 0 LINE",
"585 0 LINE",
"477 644 LINE",
"381 644 LINE",
"0 0 LINE"
);
},
{
closed = 1;
nodes = (
"417 573 LINE",
"473 242 LINE",
"222 242 LINE"
);
},
{
closed = 1;
nodes = (
"529 688 OFFCURVE",
"575 739 OFFCURVE",
"591 814 CURVE",
"530 814 LINE",
"519 763 OFFCURVE",
"489 740 OFFCURVE",
"445 740 CURVE SMOOTH",
"398 740 OFFCURVE",
"381 763 OFFCURVE",
"392 814 CURVE",
"337 814 LINE",
"322 739 OFFCURVE",
"353 688 OFFCURVE",
"436 688 CURVE SMOOTH"
);
}
);
width = 685;
}
);
leftKerningGroup = A;
note = Abreve;
rightKerningGroup = A;
unicode = 0102;
},
{
glyphname = Abreveacute;
lastChange = "2015-11-24 11:57:53 +0000";
layers = (
{
layerId = "1336773A-60E9-4881-855D-D55F9632DBDF";
name = "Light Italic";
paths = (
{
closed = 1;
nodes = (
"89 0 LINE",
"194 177 LINE",
"474 177 LINE",
"505 0 LINE",
"585 0 LINE",
"477 644 LINE",
"381 644 LINE",
"0 0 LINE"
);
},
{
closed = 1;
nodes = (
"417 573 LINE",
"473 242 LINE",
"222 242 LINE"
);
},
{
closed = 1;
nodes = (
"522 688 OFFCURVE",
"593 726 OFFCURVE",
"615 828 CURVE",
"562 828 LINE",
"549 766 OFFCURVE",
"508 736 OFFCURVE",
"447 736 CURVE SMOOTH",
"377 736 OFFCURVE",
"359 766 OFFCURVE",
"372 828 CURVE",
"321 828 LINE",
"302 728 OFFCURVE",
"358 688 OFFCURVE",
"438 688 CURVE SMOOTH"
);
},
{
closed = 1;
nodes = (
"480 792 LINE",
"575 917 LINE",
"510 917 LINE",
"421 792 LINE"
);
}
);
width = 685;
}
);
leftKerningGroup = A;
note = Abreveacute;
rightKerningGroup = A;
unicode = 1EAE;
},
{
glyphname = Abrevedotbelow;
lastChange = "2015-11-24 11:57:54 +0000";
layers = (
{
layerId = "1336773A-60E9-4881-855D-D55F9632DBDF";
name = "Light Italic";
paths = (
{
closed = 1;
nodes = (
"89 0 LINE",
"194 177 LINE",
"474 177 LINE",
"505 0 LINE",
"585 0 LINE",
"477 644 LINE",
"381 644 LINE",
"0 0 LINE"
);
},
{
closed = 1;
nodes = (
"298 -164 LINE",
"314 -87 LINE",
"234 -87 LINE",
"218 -164 LINE"
);
},
{
closed = 1;
nodes = (
"417 573 LINE",
"473 242 LINE",
"222 242 LINE"
);
},
{
closed = 1;
nodes = (
"529 688 OFFCURVE",
"575 739 OFFCURVE",
"591 814 CURVE",
"530 814 LINE",
"519 763 OFFCURVE",
"489 740 OFFCURVE",
"445 740 CURVE SMOOTH",
"398 740 OFFCURVE",
"381 763 OFFCURVE",
"392 814 CURVE",
"337 814 LINE",
"322 739 OFFCURVE",
"353 688 OFFCURVE",
"436 688 CURVE SMOOTH"
);
}
);
width = 685;
}
);
leftKerningGroup = A;
note = Abrevedotbelow;
rightKerningGroup = A;
unicode = 1EB6;
},
{
glyphname = Abrevegrave;
lastChange = "2015-11-24 11:57:52 +0000";
layers = (
{
layerId = "1336773A-60E9-4881-855D-D55F9632DBDF";
name = "Light Italic";
paths = (
{
closed = 1;
nodes = (
"89 0 LINE",
"194 177 LINE",
"474 177 LINE",
"505 0 LINE",
"585 0 LINE",
"477 644 LINE",
"381 644 LINE",
"0 0 LINE"
);
},
{
closed = 1;
nodes = (
"417 573 LINE",
"473 242 LINE",
"222 242 LINE"
);
},
{
closed = 1;
nodes = (
"522 688 OFFCURVE",
"593 726 OFFCURVE",
"615 828 CURVE",
"562 828 LINE",
"549 766 OFFCURVE",
"508 736 OFFCURVE",
"447 736 CURVE SMOOTH",
"377 736 OFFCURVE",
"359 766 OFFCURVE",
"372 828 CURVE",
"321 828 LINE",
"302 728 OFFCURVE",
"358 688 OFFCURVE",
"438 688 CURVE SMOOTH"
);
},
{
closed = 1;
nodes = (
"499 792 LINE",
"464 917 LINE",
"399 917 LINE",
"440 792 LINE"
);
}
);
width = 685;
}
);
leftKerningGroup = A;
note = Abrevegrave;
rightKerningGroup = A;
unicode = 1EB0;
},
{
glyphname = Abrevehookabove;
lastChange = "2015-11-24 11:57:52 +0000";
layers = (
{
layerId = "1336773A-60E9-4881-855D-D55F9632DBDF";
name = "Light Italic";
paths = (
{
closed = 1;
nodes = (
"89 0 LINE",
"194 177 LINE",
"474 177 LINE",
"505 0 LINE",
"585 0 LINE",
"477 644 LINE",
"381 644 LINE",
"0 0 LINE"
);
},
{
closed = 1;
nodes = (
"417 573 LINE",
"473 242 LINE",
"222 242 LINE"
);
},
{
closed = 1;
nodes = (
"522 688 OFFCURVE",
"593 726 OFFCURVE",
"615 828 CURVE",
"562 828 LINE",
"549 766 OFFCURVE",
"508 736 OFFCURVE",
"447 736 CURVE SMOOTH",
"377 736 OFFCURVE",
"359 766 OFFCURVE",
"372 828 CURVE",
"321 828 LINE",
"302 728 OFFCURVE",
"358 688 OFFCURVE",
"438 688 CURVE SMOOTH"
);
},
{
closed = 1;
nodes = (
"483 793 LINE",
"490 827 LINE",
"549 836 OFFCURVE",
"575 858 OFFCURVE",
"585 901 CURVE",
"594 947 OFFCURVE",
"566 975 OFFCURVE",
"507 975 CURVE SMOOTH",
"479 975 OFFCURVE",
"451 970 OFFCURVE",
"431 963 CURVE",
"422 922 LINE",
"441 930 OFFCURVE",
"460 935 OFFCURVE",
"482 935 CURVE SMOOTH",
"518 935 OFFCURVE",
"532 923 OFFCURVE",
"526 896 CURVE",
"521 869 OFFCURVE",
"503 854 OFFCURVE",
"435 851 CURVE",
"423 793 LINE"
);
}
);
width = 685;
}
);
leftKerningGroup = A;
note = Abrevehookabove;
rightKerningGroup = A;
unicode = 1EB2;
},
{
glyphname = Abrevetilde;
lastChange = "2015-11-24 11:57:53 +0000";
layers = (
{
layerId = "1336773A-60E9-4881-855D-D55F9632DBDF";
name = "Light Italic";
paths = (
{
closed = 1;
nodes = (
"89 0 LINE",
"194 177 LINE",
"474 177 LINE",
"505 0 LINE",
"585 0 LINE",
"477 644 LINE",
"381 644 LINE",
"0 0 LINE"
);
},
{
closed = 1;
nodes = (
"417 573 LINE",
"473 242 LINE",
"222 242 LINE"
);
},
{
closed = 1;
nodes = (
"522 688 OFFCURVE",
"593 726 OFFCURVE",
"615 828 CURVE",
"562 828 LINE",
"549 766 OFFCURVE",
"508 736 OFFCURVE",
"447 736 CURVE SMOOTH",
"377 736 OFFCURVE",
"359 766 OFFCURVE",
"372 828 CURVE",
"321 828 LINE",
"302 728 OFFCURVE",
"358 688 OFFCURVE",
"438 688 CURVE SMOOTH"
);
},
{
closed = 1;
nodes = (
"574 849 OFFCURVE",
"604 860 OFFCURVE",
"619 876 CURVE",
"631 933 LINE",
"609 910 OFFCURVE",
"584 900 OFFCURVE",
"553 900 CURVE SMOOTH",
"508 900 OFFCURVE",
"479 935 OFFCURVE",
"428 935 CURVE SMOOTH",
"400 935 OFFCURVE",
"364 924 OFFCURVE",
"346 908 CURVE",
"334 852 LINE",
"359 876 OFFCURVE",
"388 884 OFFCURVE",
"417 884 CURVE SMOOTH",
"457 884 OFFCURVE",
"495 849 OFFCURVE",
"543 849 CURVE SMOOTH"
);
}
);
width = 685;
}
);
leftKerningGroup = A;
note = Abrevetilde;
rightKerningGroup = A;
unicode = 1EB4;
},
{
glyphname = Acaron;
lastChange = "2015-11-24 11:57:54 +0000";
layers = (
{
layerId = "1336773A-60E9-4881-855D-D55F9632DBDF";
name = "Light Italic";
paths = (
{
closed = 1;
nodes = (
"89 0 LINE",
"194 177 LINE",
"474 177 LINE",
"505 0 LINE",
"585 0 LINE",
"477 644 LINE",
"381 644 LINE",
"0 0 LINE"
);
},
{
closed = 1;
nodes = (
"417 573 LINE",
"473 242 LINE",
"222 242 LINE"
);
},
{
closed = 1;
nodes = (
"471 688 LINE",
"617 836 LINE",
"543 836 LINE",
"444 734 LINE",
"389 836 LINE",
"322 836 LINE",
"405 688 LINE"
);
}
);
width = 685;
}
);
leftKerningGroup = A;
note = Acaron;
rightKerningGroup = A;
unicode = 01CD;
},
{
glyphname = Acircumflex;
lastChange = "2015-11-24 11:57:51 +0000";
layers = (
{
layerId = "1336773A-60E9-4881-855D-D55F9632DBDF";
name = "Light Italic";
paths = (
{
closed = 1;
nodes = (
"89 0 LINE",
"194 177 LINE",
"474 177 LINE",
"505 0 LINE",
"585 0 LINE",
"477 644 LINE",
"381 644 LINE",
"0 0 LINE"
);
},
{
closed = 1;
nodes = (
"417 573 LINE",
"473 242 LINE",
"222 242 LINE"
);
},
{
closed = 1;
nodes = (
"364 688 LINE",
"462 790 LINE",
"518 688 LINE",
"586 688 LINE",
"502 836 LINE",
"436 836 LINE",
"291 688 LINE"
);
}
);
width = 685;
}
);
leftKerningGroup = A;
note = Acircumflex;
rightKerningGroup = A;
unicode = 00C2;
},
{
glyphname = Acircumflexacute;
lastChange = "2015-11-24 11:57:54 +0000";
layers = (
{
layerId = "1336773A-60E9-4881-855D-D55F9632DBDF";
name = "Light Italic";
paths = (
{
closed = 1;
nodes = (
"89 0 LINE",
"194 177 LINE",
"474 177 LINE",
"505 0 LINE",
"585 0 LINE",
"477 644 LINE",
"381 644 LINE",
"0 0 LINE"
);
},
{
closed = 1;
nodes = (
"417 573 LINE",
"473 242 LINE",
"222 242 LINE"
);
},
{
closed = 1;
nodes = (
"361 688 LINE",
"453 771 LINE",
"510 688 LINE",
"577 688 LINE",
"491 806 LINE",
"425 806 LINE",
"289 688 LINE"
);
},
{
closed = 1;
nodes = (
"595 797 LINE",
"689 922 LINE",
"624 922 LINE",
"536 797 LINE"
);
}
);
width = 685;
}
);
leftKerningGroup = A;
note = Acircumflexacute;
rightKerningGroup = A;
unicode = 1EA4;
},
{
glyphname = Acircumflexdotbelow;
lastChange = "2015-11-24 11:57:54 +0000";
layers = (
{
layerId = "1336773A-60E9-4881-855D-D55F9632DBDF";
name = "Light Italic";
paths = (
{
closed = 1;
nodes = (
"89 0 LINE",
"194 177 LINE",
"474 177 LINE",
"505 0 LINE",
"585 0 LINE",
"477 644 LINE",
"381 644 LINE",
"0 0 LINE"
);
},
{
closed = 1;
nodes = (
"298 -164 LINE",
"314 -87 LINE",
"234 -87 LINE",
"218 -164 LINE"
);
},
{
closed = 1;
nodes = (
"417 573 LINE",
"473 242 LINE",
"222 242 LINE"
);
},
{
closed = 1;
nodes = (
"364 688 LINE",
"462 790 LINE",
"518 688 LINE",
"586 688 LINE",
"502 836 LINE",
"436 836 LINE",
"291 688 LINE"
);
}
);
width = 685;
}
);
leftKerningGroup = A;
note = Acircumflexdotbelow;
rightKerningGroup = A;
unicode = 1EAC;
},
{
glyphname = Acircumflexgrave;
lastChange = "2015-11-24 11:57:51 +0000";
layers = (
{
layerId = "1336773A-60E9-4881-855D-D55F9632DBDF";
name = "Light Italic";
paths = (
{
closed = 1;
nodes = (
"89 0 LINE",
"194 177 LINE",
"474 177 LINE",
"505 0 LINE",
"585 0 LINE",
"477 644 LINE",
"381 644 LINE",
"0 0 LINE"
);
},
{
closed = 1;
nodes = (
"417 573 LINE",
"473 242 LINE",
"222 242 LINE"
);
},
{
closed = 1;
nodes = (
"362 688 LINE",
"455 771 LINE",
"511 688 LINE",
"578 688 LINE",
"493 806 LINE",
"427 806 LINE",
"291 688 LINE"
);
},
{
closed = 1;
nodes = (
"378 797 LINE",
"343 922 LINE",
"278 922 LINE",
"319 797 LINE"
);
}
);
width = 685;
}
);
leftKerningGroup = A;
note = Acircumflexgrave;
rightKerningGroup = A;
unicode = 1EA6;
},
{
glyphname = Acircumflexhookabove;
lastChange = "2015-11-24 11:57:53 +0000";
layers = (
{
layerId = "1336773A-60E9-4881-855D-D55F9632DBDF";
name = "Light Italic";
paths = (
{
closed = 1;
nodes = (
"89 0 LINE",
"194 177 LINE",
"474 177 LINE",
"505 0 LINE",
"585 0 LINE",
"477 644 LINE",
"381 644 LINE",
"0 0 LINE"
);
},
{
closed = 1;
nodes = (
"417 573 LINE",
"473 242 LINE",
"222 242 LINE"
);
},
{
closed = 1;
nodes = (
"365 688 LINE",
"457 771 LINE",
"514 688 LINE",
"581 688 LINE",
"495 806 LINE",
"429 806 LINE",
"293 688 LINE"
);
},
{
closed = 1;
nodes = (
"604 776 LINE",
"611 811 LINE",
"668 818 OFFCURVE",
"697 842 OFFCURVE",
"706 885 CURVE SMOOTH",
"716 932 OFFCURVE",
"686 960 OFFCURVE",
"626 960 CURVE SMOOTH",
"596 960 OFFCURVE",
"573 955 OFFCURVE",
"553 948 CURVE",
"544 905 LINE",
"562 912 OFFCURVE",
"581 917 OFFCURVE",
"603 917 CURVE SMOOTH",
"637 917 OFFCURVE",
"651 906 OFFCURVE",
"645 881 CURVE",
"640 855 OFFCURVE",
"624 842 OFFCURVE",
"557 839 CURVE",
"544 776 LINE"
);
}
);
width = 685;
}
);
leftKerningGroup = A;
note = Acircumflexhookabove;
rightKerningGroup = A;
unicode = 1EA8;
},
{
glyphname = Acircumflextilde;
lastChange = "2015-11-24 11:57:53 +0000";
layers = (
{
layerId = "1336773A-60E9-4881-855D-D55F9632DBDF";
name = "Light Italic";
paths = (
{
closed = 1;
nodes = (
"89 0 LINE",
"194 177 LINE",
"474 177 LINE",
"505 0 LINE",
"585 0 LINE",
"477 644 LINE",
"381 644 LINE",
"0 0 LINE"
);
},
{
closed = 1;
nodes = (
"417 573 LINE",
"473 242 LINE",
"222 242 LINE"
);
},
{
closed = 1;
nodes = (
"366 688 LINE",
"458 771 LINE",
"515 688 LINE",
"582 688 LINE",
"496 806 LINE",
"430 806 LINE",
"294 688 LINE"
);
},
{
closed = 1;
nodes = (
"566 808 OFFCURVE",
"596 819 OFFCURVE",
"610 835 CURVE",
"623 892 LINE",
"601 869 OFFCURVE",
"577 859 OFFCURVE",
"546 859 CURVE SMOOTH",
"501 859 OFFCURVE",
"471 894 OFFCURVE",
"420 894 CURVE SMOOTH",
"392 894 OFFCURVE",
"357 883 OFFCURVE",
"338 867 CURVE",
"326 811 LINE",
"351 835 OFFCURVE",
"380 843 OFFCURVE",
"409 843 CURVE SMOOTH",
"449 843 OFFCURVE",
"487 808 OFFCURVE",
"535 808 CURVE SMOOTH"
);
}
);
width = 685;
}
);
leftKerningGroup = A;
note = Acircumflextilde;
rightKerningGroup = A;
unicode = 1EAA;
},
{
glyphname = Adieresis;
lastChange = "2015-11-24 11:57:53 +0000";
layers = (
{
layerId = "1336773A-60E9-4881-855D-D55F9632DBDF";
name = "Light Italic";
paths = (
{
closed = 1;
nodes = (
"89 0 LINE",
"194 177 LINE",
"474 177 LINE",
"505 0 LINE",
"585 0 LINE",
"477 644 LINE",
"381 644 LINE",
"0 0 LINE"
);
},
{
closed = 1;
nodes = (
"417 573 LINE",
"473 242 LINE",
"222 242 LINE"
);
},
{
closed = 1;
nodes = (
"393 710 LINE",
"409 785 LINE",
"332 785 LINE",
"316 710 LINE"
);
},
{
closed = 1;
nodes = (
"569 710 LINE",
"585 785 LINE",
"507 785 LINE",
"491 710 LINE"
);
}
);
width = 685;
}
);
leftKerningGroup = A;
note = Adieresis;
rightKerningGroup = A;
unicode = 00C4;
},
{
glyphname = Adotbelow;
lastChange = "2015-11-24 11:57:53 +0000";
layers = (
{
layerId = "1336773A-60E9-4881-855D-D55F9632DBDF";
name = "Light Italic";
paths = (
{
closed = 1;
nodes = (
"89 0 LINE",
"194 177 LINE",
"474 177 LINE",
"505 0 LINE",
"585 0 LINE",
"477 644 LINE",
"381 644 LINE",
"0 0 LINE"
);
},
{
closed = 1;
nodes = (
"298 -164 LINE",
"314 -87 LINE",
"234 -87 LINE",
"218 -164 LINE"
);
},
{
closed = 1;
nodes = (
"417 573 LINE",
"473 242 LINE",
"222 242 LINE"
);
}
);
width = 685;
}
);
leftKerningGroup = A;
note = Adotbelow;
rightKerningGroup = A;
unicode = 1EA0;
},
{
glyphname = Agrave;
lastChange = "2015-11-24 11:57:54 +0000";
layers = (
{
layerId = "1336773A-60E9-4881-855D-D55F9632DBDF";
name = "Light Italic";
paths = (
{
closed = 1;
nodes = (
"89 0 LINE",
"194 177 LINE",
"474 177 LINE",
"505 0 LINE",
"585 0 LINE",
"477 644 LINE",
"381 644 LINE",
"0 0 LINE"
);
},
{
closed = 1;
nodes = (
"417 573 LINE",
"473 242 LINE",
"222 242 LINE"
);
},
{
closed = 1;
nodes = (
"458 688 LINE",
"423 856 LINE",
"349 856 LINE",
"392 688 LINE"
);
}
);
width = 685;
}
);
leftKerningGroup = A;
note = Agrave;
rightKerningGroup = A;
unicode = 00C0;
},
{
glyphname = Ahookabove;
lastChange = "2015-11-24 11:57:53 +0000";
layers = (
{
layerId = "1336773A-60E9-4881-855D-D55F9632DBDF";
name = "Light Italic";
paths = (
{
closed = 1;
nodes = (
"89 0 LINE",
"194 177 LINE",
"474 177 LINE",
"505 0 LINE",
"585 0 LINE",
"477 644 LINE",
"381 644 LINE",
"0 0 LINE"
);
},
{
closed = 1;
nodes = (
"417 573 LINE",
"473 242 LINE",
"222 242 LINE"
);
},
{
closed = 1;
nodes = (
"470 688 LINE",
"480 736 LINE",
"549 745 OFFCURVE",
"577 775 OFFCURVE",
"589 829 CURVE SMOOTH",
"601 886 OFFCURVE",
"559 920 OFFCURVE",
"487 920 CURVE SMOOTH",
"458 920 OFFCURVE",
"421 915 OFFCURVE",
"399 907 CURVE",
"389 856 LINE",
"407 863 OFFCURVE",
"436 868 OFFCURVE",
"457 868 CURVE SMOOTH",
"516 868 OFFCURVE",
"533 856 OFFCURVE",
"526 823 CURVE SMOOTH",
"518 788 OFFCURVE",
"500 775 OFFCURVE",
"422 771 CURVE",
"404 688 LINE"
);
}
);
width = 685;
}
);
leftKerningGroup = A;
note = Ahookabove;
rightKerningGroup = A;
unicode = 1EA2;
},
{
glyphname = Amacron;
lastChange = "2015-11-24 11:57:54 +0000";
layers = (
{
layerId = "1336773A-60E9-4881-855D-D55F9632DBDF";
name = "Light Italic";
paths = (
{
closed = 1;
nodes = (
"89 0 LINE",
"194 177 LINE",
"474 177 LINE",
"505 0 LINE",
"585 0 LINE",
"477 644 LINE",
"381 644 LINE",
"0 0 LINE"
);
},
{
closed = 1;
nodes = (
"417 573 LINE",
"473 242 LINE",
"222 242 LINE"
);
},
{
closed = 1;
nodes = (
"587 712 LINE",
"599 771 LINE",
"312 771 LINE",
"300 712 LINE"
);
}
);
width = 685;
}
);
leftKerningGroup = A;
note = Amacron;
rightKerningGroup = A;
unicode = 0100;
},
{
glyphname = Aogonek;
lastChange = "2015-11-24 11:57:54 +0000";
layers = (
{
layerId = "1336773A-60E9-4881-855D-D55F9632DBDF";
name = "Light Italic";
paths = (
{
closed = 1;
nodes = (
"523 -220 OFFCURVE",
"551 -216 OFFCURVE",
"568 -208 CURVE",
"580 -152 LINE",
"567 -159 OFFCURVE",
"545 -163 OFFCURVE",
"529 -163 CURVE SMOOTH",
"496 -163 OFFCURVE",
"481 -154 OFFCURVE",
"488 -120 CURVE SMOOTH",
"497 -77 OFFCURVE",
"531 -35 OFFCURVE",
"585 0 CURVE",
"477 644 LINE",
"381 644 LINE",
"0 0 LINE",
"89 0 LINE",
"194 177 LINE",
"474 177 LINE",
"505 0 LINE",
"471 -30 OFFCURVE",
"429 -80 OFFCURVE",
"418 -132 CURVE SMOOTH",
"405 -195 OFFCURVE",
"445 -220 OFFCURVE",
"499 -220 CURVE SMOOTH"
);
},
{
closed = 1;
nodes = (
"417 573 LINE",
"473 242 LINE",
"222 242 LINE"
);
}
);
width = 685;
}
);
leftKerningGroup = A;
note = Aogonek;
rightKerningGroup = A;
unicode = 0104;
},
{
glyphname = Aring;
lastChange = "2015-11-24 11:57:52 +0000";
layers = (
{
layerId = "1336773A-60E9-4881-855D-D55F9632DBDF";
name = "Light Italic";
paths = (
{
closed = 1;
nodes = (
"89 0 LINE",
"194 177 LINE",
"474 177 LINE",
"505 0 LINE",
"585 0 LINE",
"480 622 LINE",
"518 640 OFFCURVE",
"544 675 OFFCURVE",
"553 716 CURVE SMOOTH",
"566 776 OFFCURVE",
"531 824 OFFCURVE",
"465 824 CURVE SMOOTH",
"394 824 OFFCURVE",
"346 776 OFFCURVE",
"333 716 CURVE SMOOTH",
"324 675 OFFCURVE",
"338 640 OFFCURVE",
"368 622 CURVE",
"0 0 LINE"
);
},
{
closed = 1;
nodes = (
"417 573 LINE",
"473 242 LINE",
"222 242 LINE"
);
},
{
closed = 1;
nodes = (
"386 655 OFFCURVE",
"374 682 OFFCURVE",
"381 716 CURVE SMOOTH",
"388 750 OFFCURVE",
"418 777 OFFCURVE",
"455 777 CURVE SMOOTH",
"498 777 OFFCURVE",
"511 750 OFFCURVE",
"504 716 CURVE SMOOTH",
"497 682 OFFCURVE",
"468 655 OFFCURVE",
"429 655 CURVE SMOOTH"
);
}
);
width = 685;
}
);
leftKerningGroup = A;
note = Aring;
rightKerningGroup = A;
unicode = 00C5;
},
{
glyphname = Aringacute;
lastChange = "2015-11-24 11:57:54 +0000";
layers = (
{
layerId = "1336773A-60E9-4881-855D-D55F9632DBDF";
name = "Light Italic";
paths = (
{
closed = 1;
nodes = (
"89 0 LINE",
"194 177 LINE",
"474 177 LINE",
"505 0 LINE",
"585 0 LINE",
"480 622 LINE",
"518 640 OFFCURVE",
"544 675 OFFCURVE",
"553 716 CURVE SMOOTH",
"566 776 OFFCURVE",
"531 824 OFFCURVE",
"465 824 CURVE SMOOTH",
"394 824 OFFCURVE",
"346 776 OFFCURVE",
"333 716 CURVE SMOOTH",
"324 675 OFFCURVE",
"338 640 OFFCURVE",
"368 622 CURVE",
"0 0 LINE"
);
},
{
closed = 1;
nodes = (
"417 573 LINE",
"473 242 LINE",
"222 242 LINE"
);
},
{
closed = 1;
nodes = (
"386 655 OFFCURVE",
"374 682 OFFCURVE",
"381 716 CURVE SMOOTH",
"388 750 OFFCURVE",
"418 777 OFFCURVE",
"455 777 CURVE SMOOTH",
"498 777 OFFCURVE",
"511 750 OFFCURVE",
"504 716 CURVE SMOOTH",
"497 682 OFFCURVE",
"468 655 OFFCURVE",
"429 655 CURVE SMOOTH"
);
},
{
closed = 1;
nodes = (
"488 852 LINE",
"603 1020 LINE",
"529 1020 LINE",
"422 852 LINE"
);
}
);
width = 685;
}
);
leftKerningGroup = A;
note = Aringacute;
rightKerningGroup = A;
unicode = 01FA;
},
{
glyphname = Atilde;
lastChange = "2015-11-24 11:57:54 +0000";
layers = (
{
layerId = "1336773A-60E9-4881-855D-D55F9632DBDF";
name = "Light Italic";
paths = (
{
closed = 1;
nodes = (
"89 0 LINE",
"194 177 LINE",
"474 177 LINE",
"505 0 LINE",
"585 0 LINE",
"477 644 LINE",
"381 644 LINE",
"0 0 LINE"
);
},
{
closed = 1;
nodes = (
"417 573 LINE",
"473 242 LINE",
"222 242 LINE"
);
},
{
closed = 1;
nodes = (
"550 703 OFFCURVE",
"583 715 OFFCURVE",
"600 733 CURVE",
"613 797 LINE",
"590 772 OFFCURVE",
"563 761 OFFCURVE",
"529 761 CURVE SMOOTH",
"480 761 OFFCURVE",
"448 799 OFFCURVE",
"393 799 CURVE SMOOTH",
"362 799 OFFCURVE",
"323 787 OFFCURVE",
"303 769 CURVE",
"290 706 LINE",
"317 732 OFFCURVE",
"348 741 OFFCURVE",
"380 741 CURVE SMOOTH",
"423 741 OFFCURVE",
"464 703 OFFCURVE",
"516 703 CURVE SMOOTH"
);
}
);
width = 685;
}
);
leftKerningGroup = A;
note = Atilde;
rightKerningGroup = A;
unicode = 00C3;
},
{
glyphname = AE;
lastChange = "2015-11-24 11:57:54 +0000";
layers = (
{
layerId = "1336773A-60E9-4881-855D-D55F9632DBDF";
name = "Light Italic";
paths = (
{
closed = 1;
nodes = (
"88 0 LINE",
"193 178 LINE",
"396 178 LINE",
"359 0 LINE",
"740 0 LINE",
"753 64 LINE",
"454 64 LINE",
"502 290 LINE",
"765 290 LINE",
"779 354 LINE",
"516 354 LINE",
"564 579 LINE",
"863 579 LINE",
"876 644 LINE",
"381 644 LINE",
"0 0 LINE"
);
},
{
closed = 1;
nodes = (
"431 579 LINE",
"482 579 LINE",
"410 242 LINE",
"232 242 LINE"
);
}
);
width = 840;
}
);
leftKerningGroup = A;
note = AE;
rightKerningGroup = E;
unicode = 00C6;
},
{
glyphname = AEacute;
lastChange = "2015-11-24 11:57:52 +0000";
layers = (
{
layerId = "1336773A-60E9-4881-855D-D55F9632DBDF";
name = "Light Italic";
paths = (
{
closed = 1;
nodes = (
"88 0 LINE",
"193 178 LINE",
"396 178 LINE",
"359 0 LINE",
"740 0 LINE",
"753 64 LINE",
"454 64 LINE",
"502 290 LINE",
"765 290 LINE",
"779 354 LINE",
"516 354 LINE",
"564 579 LINE",
"863 579 LINE",
"876 644 LINE",
"381 644 LINE",
"0 0 LINE"
);
},
{
closed = 1;
nodes = (
"431 579 LINE",
"482 579 LINE",
"410 242 LINE",
"232 242 LINE"
);
},
{
closed = 1;
nodes = (
"594 688 LINE",
"709 856 LINE",
"635 856 LINE",
"528 688 LINE"
);
}
);
width = 840;
}
);
leftKerningGroup = A;
note = AEacute;
rightKerningGroup = E;
unicode = 01FC;
},
{
glyphname = B;
lastChange = "2015-11-24 11:57:52 +0000";
layers = (
{
layerId = "1336773A-60E9-4881-855D-D55F9632DBDF";
name = "Light Italic";
paths = (
{
closed = 1;
nodes = (
"334 0 LINE SMOOTH",
"470 0 OFFCURVE",
"537 60 OFFCURVE",
"566 184 CURVE SMOOTH",
"583 258 OFFCURVE",
"555 311 OFFCURVE",
"491 332 CURVE",
"549 355 OFFCURVE",
"587 403 OFFCURVE",
"602 474 CURVE SMOOTH",
"625 582 OFFCURVE",
"570 644 OFFCURVE",
"448 644 CURVE SMOOTH",
"156 644 LINE",
"20 0 LINE"
);
},
{
closed = 1;
nodes = (
"165 300 LINE",
"370 300 LINE SMOOTH",
"482 300 OFFCURVE",
"500 261 OFFCURVE",
"484 187 CURVE SMOOTH",
"465 96 OFFCURVE",
"419 62 OFFCURVE",
"333 62 CURVE SMOOTH",
"115 62 LINE"
);
},
{
closed = 1;
nodes = (
"225 581 LINE",
"421 581 LINE SMOOTH",
"527 581 OFFCURVE",
"540 542 OFFCURVE",
"524 468 CURVE SMOOTH",
"511 405 OFFCURVE",
"470 362 OFFCURVE",
"389 362 CURVE SMOOTH",
"178 362 LINE"
);
}
);
width = 627;
}
);
note = B;
unicode = 0042;
},
{
glyphname = C;
lastChange = "2015-11-24 11:57:51 +0000";
layers = (
{
layerId = "1336773A-60E9-4881-855D-D55F9632DBDF";
name = "Light Italic";
paths = (
{
closed = 1;
nodes = (
"380 -10 OFFCURVE",
"443 0 OFFCURVE",
"498 16 CURVE",
"513 89 LINE",
"456 69 OFFCURVE",
"389 60 OFFCURVE",
"329 60 CURVE SMOOTH",
"155 60 OFFCURVE",
"113 149 OFFCURVE",
"147 308 CURVE SMOOTH",
"184 480 OFFCURVE",
"275 584 OFFCURVE",
"439 584 CURVE SMOOTH",
"505 584 OFFCURVE",
"563 572 OFFCURVE",
"612 552 CURVE",
"627 624 LINE",
"578 643 OFFCURVE",
"521 654 OFFCURVE",
"447 654 CURVE SMOOTH",
"223 654 OFFCURVE",
"110 518 OFFCURVE",
"65 308 CURVE SMOOTH",
"24 116 OFFCURVE",
"107 -10 OFFCURVE",
"306 -10 CURVE SMOOTH"
);
}
);
width = 595;
}
);
leftKerningGroup = C;
note = C;
rightKerningGroup = C;
unicode = 0043;
},
{
glyphname = Cacute;
lastChange = "2015-11-24 11:57:53 +0000";
layers = (
{
layerId = "1336773A-60E9-4881-855D-D55F9632DBDF";
name = "Light Italic";
paths = (
{
closed = 1;
nodes = (
"380 -10 OFFCURVE",
"443 0 OFFCURVE",
"498 16 CURVE",
"513 89 LINE",
"456 69 OFFCURVE",
"389 60 OFFCURVE",
"329 60 CURVE SMOOTH",
"155 60 OFFCURVE",
"113 149 OFFCURVE",
"147 308 CURVE SMOOTH",
"184 480 OFFCURVE",
"275 584 OFFCURVE",
"439 584 CURVE SMOOTH",
"505 584 OFFCURVE",
"563 572 OFFCURVE",
"612 552 CURVE",
"627 624 LINE",
"578 643 OFFCURVE",
"521 654 OFFCURVE",
"447 654 CURVE SMOOTH",
"223 654 OFFCURVE",
"110 518 OFFCURVE",
"65 308 CURVE SMOOTH",
"24 116 OFFCURVE",
"107 -10 OFFCURVE",
"306 -10 CURVE SMOOTH"
);
},
{
closed = 1;
nodes = (
"465 688 LINE",
"580 856 LINE",
"506 856 LINE",
"399 688 LINE"
);
}
);
width = 595;
}
);
leftKerningGroup = C;
note = Cacute;
rightKerningGroup = C;
unicode = 0106;
},
{
glyphname = Ccaron;
lastChange = "2015-11-24 11:57:53 +0000";
layers = (
{
layerId = "1336773A-60E9-4881-855D-D55F9632DBDF";
name = "Light Italic";
paths = (
{
closed = 1;
nodes = (
"380 -10 OFFCURVE",
"443 0 OFFCURVE",
"498 16 CURVE",
"513 89 LINE",
"456 69 OFFCURVE",
"389 60 OFFCURVE",
"329 60 CURVE SMOOTH",
"155 60 OFFCURVE",
"113 149 OFFCURVE",
"147 308 CURVE SMOOTH",
"184 480 OFFCURVE",
"275 584 OFFCURVE",
"439 584 CURVE SMOOTH",
"505 584 OFFCURVE",
"563 572 OFFCURVE",
"612 552 CURVE",
"627 624 LINE",
"578 643 OFFCURVE",
"521 654 OFFCURVE",
"447 654 CURVE SMOOTH",
"223 654 OFFCURVE",
"110 518 OFFCURVE",
"65 308 CURVE SMOOTH",
"24 116 OFFCURVE",
"107 -10 OFFCURVE",
"306 -10 CURVE SMOOTH"
);
},
{
closed = 1;
nodes = (
"486 688 LINE",
"632 836 LINE",
"558 836 LINE",
"459 734 LINE",
"404 836 LINE",
"337 836 LINE",
"420 688 LINE"
);
}
);
width = 595;
}
);
leftKerningGroup = C;
note = Ccaron;
rightKerningGroup = C;
unicode = 010C;
},
{
glyphname = Ccedilla;
lastChange = "2015-11-24 11:57:53 +0000";
layers = (
{
layerId = "1336773A-60E9-4881-855D-D55F9632DBDF";
name = "Light Italic";
paths = (
{
closed = 1;
nodes = (
"323 -240 OFFCURVE",
"375 -203 OFFCURVE",
"389 -138 CURVE SMOOTH",
"401 -81 OFFCURVE",
"370 -48 OFFCURVE",
"298 -48 CURVE",
"318 -10 LINE",
"387 -9 OFFCURVE",
"446 1 OFFCURVE",
"498 16 CURVE",
"513 89 LINE",
"456 69 OFFCURVE",
"389 60 OFFCURVE",
"329 60 CURVE SMOOTH",
"155 60 OFFCURVE",
"113 149 OFFCURVE",
"147 308 CURVE SMOOTH",
"184 480 OFFCURVE",
"275 584 OFFCURVE",
"439 584 CURVE SMOOTH",
"505 584 OFFCURVE",
"563 572 OFFCURVE",
"612 552 CURVE",
"627 624 LINE",
"578 643 OFFCURVE",
"521 654 OFFCURVE",
"447 654 CURVE SMOOTH",
"223 654 OFFCURVE",
"110 518 OFFCURVE",
"65 308 CURVE SMOOTH",
"27 131 OFFCURVE",
"95 9 OFFCURVE",
"262 -8 CURVE",
"218 -91 LINE",
"255 -91 LINE SMOOTH",
"311 -91 OFFCURVE",
"338 -98 OFFCURVE",
"329 -137 CURVE SMOOTH",
"321 -178 OFFCURVE",
"291 -190 OFFCURVE",
"229 -190 CURVE SMOOTH",
"207 -190 OFFCURVE",
"185 -187 OFFCURVE",
"168 -182 CURVE",
"157 -232 LINE",
"171 -236 OFFCURVE",
"203 -240 OFFCURVE",
"225 -240 CURVE SMOOTH"
);
}
);
width = 595;
}
);
leftKerningGroup = C;
note = Ccedilla;
rightKerningGroup = C;
unicode = 00C7;
},
{
glyphname = Ccircumflex;
lastChange = "2015-11-24 11:57:52 +0000";
layers = (
{
layerId = "1336773A-60E9-4881-855D-D55F9632DBDF";
name = "Light Italic";
paths = (
{
closed = 1;
nodes = (
"380 -10 OFFCURVE",
"443 0 OFFCURVE",
"498 16 CURVE",
"513 89 LINE",
"456 69 OFFCURVE",
"389 60 OFFCURVE",
"329 60 CURVE SMOOTH",
"155 60 OFFCURVE",
"113 149 OFFCURVE",
"147 308 CURVE SMOOTH",
"184 480 OFFCURVE",
"275 584 OFFCURVE",
"439 584 CURVE SMOOTH",
"505 584 OFFCURVE",
"563 572 OFFCURVE",
"612 552 CURVE",
"627 624 LINE",
"578 643 OFFCURVE",
"521 654 OFFCURVE",
"447 654 CURVE SMOOTH",
"223 654 OFFCURVE",
"110 518 OFFCURVE",
"65 308 CURVE SMOOTH",
"24 116 OFFCURVE",
"107 -10 OFFCURVE",
"306 -10 CURVE SMOOTH"
);
},
{
closed = 1;
nodes = (
"353 688 LINE",
"451 790 LINE",
"507 688 LINE",
"575 688 LINE",
"491 836 LINE",
"425 836 LINE",
"280 688 LINE"
);
}
);
width = 595;
}
);
leftKerningGroup = C;
note = Ccircumflex;
rightKerningGroup = C;
unicode = 0108;
},
{
glyphname = Cdotaccent;
lastChange = "2015-11-24 11:57:53 +0000";
layers = (
{
layerId = "1336773A-60E9-4881-855D-D55F9632DBDF";
name = "Light Italic";
paths = (
{
closed = 1;
nodes = (
"380 -10 OFFCURVE",
"443 0 OFFCURVE",
"498 16 CURVE",
"513 89 LINE",
"456 69 OFFCURVE",
"389 60 OFFCURVE",
"329 60 CURVE SMOOTH",
"155 60 OFFCURVE",
"113 149 OFFCURVE",
"147 308 CURVE SMOOTH",
"184 480 OFFCURVE",
"275 584 OFFCURVE",
"439 584 CURVE SMOOTH",
"505 584 OFFCURVE",
"563 572 OFFCURVE",
"612 552 CURVE",
"627 624 LINE",
"578 643 OFFCURVE",
"521 654 OFFCURVE",
"447 654 CURVE SMOOTH",
"223 654 OFFCURVE",
"110 518 OFFCURVE",
"65 308 CURVE SMOOTH",
"24 116 OFFCURVE",
"107 -10 OFFCURVE",
"306 -10 CURVE SMOOTH"
);
},
{
closed = 1;
nodes = (
"492 710 LINE",
"508 787 LINE",
"428 787 LINE",
"412 710 LINE"
);
}
);
width = 595;
}
);
leftKerningGroup = C;
note = Cdotaccent;
rightKerningGroup = C;
unicode = 010A;
},
{
glyphname = D;
lastChange = "2015-11-24 11:57:52 +0000";
layers = (
{
layerId = "1336773A-60E9-4881-855D-D55F9632DBDF";
name = "Light Italic";
paths = (
{
closed = 1;
nodes = (
"281 0 LINE SMOOTH",
"471 0 OFFCURVE",
"562 98 OFFCURVE",
"609 318 CURVE SMOOTH",
"658 550 OFFCURVE",
"586 644 OFFCURVE",
"408 644 CURVE SMOOTH",
"156 644 LINE",
"20 0 LINE"
);
},
{
closed = 1;
nodes = (
"225 579 LINE",
"380 579 LINE SMOOTH",
"538 579 OFFCURVE",
"571 530 OFFCURVE",
"527 318 CURVE SMOOTH",
"484 111 OFFCURVE",
"406 64 OFFCURVE",
"270 64 CURVE SMOOTH",
"115 64 LINE"
);
}
);
width = 642;
}
);
note = D;
rightKerningGroup = D;
unicode = 0044;
},
{
glyphname = Eth;
lastChange = "2015-11-24 11:57:53 +0000";
layers = (
{
layerId = "1336773A-60E9-4881-855D-D55F9632DBDF";
name = "Light Italic";
paths = (
{
closed = 1;
nodes = (
"313 0 LINE SMOOTH",
"503 0 OFFCURVE",
"594 98 OFFCURVE",
"641 318 CURVE SMOOTH",
"690 550 OFFCURVE",
"618 644 OFFCURVE",
"440 644 CURVE SMOOTH",
"188 644 LINE",
"52 0 LINE"
);
},
{
closed = 1;
nodes = (
"257 579 LINE",
"412 579 LINE SMOOTH",
"570 579 OFFCURVE",
"603 530 OFFCURVE",
"559 318 CURVE SMOOTH",
"516 111 OFFCURVE",
"438 64 OFFCURVE",
"302 64 CURVE SMOOTH",
"147 64 LINE"
);
},
{
closed = 1;
nodes = (
"375 284 LINE",
"389 349 LINE",
"54 349 LINE",
"40 284 LINE"
);
}
);
width = 674;
}
);
note = Eth;
rightKerningGroup = D;
unicode = 00D0;
},
{
glyphname = Dcaron;
lastChange = "2015-11-24 11:57:52 +0000";
layers = (
{
layerId = "1336773A-60E9-4881-855D-D55F9632DBDF";
name = "Light Italic";
paths = (
{
closed = 1;
nodes = (
"281 0 LINE SMOOTH",
"471 0 OFFCURVE",
"562 98 OFFCURVE",
"609 318 CURVE SMOOTH",
"658 550 OFFCURVE",
"586 644 OFFCURVE",
"408 644 CURVE SMOOTH",
"156 644 LINE",
"20 0 LINE"
);
},
{
closed = 1;
nodes = (
"225 579 LINE",
"380 579 LINE SMOOTH",
"538 579 OFFCURVE",
"571 530 OFFCURVE",
"527 318 CURVE SMOOTH",
"484 111 OFFCURVE",
"406 64 OFFCURVE",
"270 64 CURVE SMOOTH",
"115 64 LINE"
);
},
{
closed = 1;
nodes = (
"427 688 LINE",
"573 836 LINE",
"499 836 LINE",
"400 734 LINE",
"345 836 LINE",
"278 836 LINE",
"361 688 LINE"
);
}
);
width = 642;
}
);
note = Dcaron;
rightKerningGroup = D;
unicode = 010E;
},
{
glyphname = Dcroat;
lastChange = "2015-11-24 11:57:54 +0000";
layers = (
{
layerId = "1336773A-60E9-4881-855D-D55F9632DBDF";
name = "Light Italic";
paths = (
{
closed = 1;
nodes = (
"303 0 LINE SMOOTH",
"493 0 OFFCURVE",
"584 98 OFFCURVE",
"631 318 CURVE SMOOTH",
"680 550 OFFCURVE",
"608 644 OFFCURVE",
"430 644 CURVE SMOOTH",
"178 644 LINE",
"42 0 LINE"
);
},
{
closed = 1;
nodes = (
"247 579 LINE",
"402 579 LINE SMOOTH",
"560 579 OFFCURVE",
"593 530 OFFCURVE",
"549 318 CURVE SMOOTH",
"506 111 OFFCURVE",
"428 64 OFFCURVE",
"292 64 CURVE SMOOTH",
"137 64 LINE"
);
},
{
closed = 1;
nodes = (
"365 284 LINE",
"379 349 LINE",
"44 349 LINE",
"30 284 LINE"
);
}
);
width = 664;
}
);
note = Dcroat;
rightKerningGroup = D;
unicode = 0110;
},
{
glyphname = Ddotbelow;
lastChange = "2015-11-24 11:57:51 +0000";
layers = (
{
layerId = "1336773A-60E9-4881-855D-D55F9632DBDF";
name = "Light Italic";
paths = (
{
closed = 1;
nodes = (
"281 0 LINE SMOOTH",
"471 0 OFFCURVE",
"562 98 OFFCURVE",
"609 318 CURVE SMOOTH",
"658 550 OFFCURVE",
"586 644 OFFCURVE",
"408 644 CURVE SMOOTH",
"156 644 LINE",
"20 0 LINE"
);
},
{
closed = 1;
nodes = (
"225 579 LINE",
"380 579 LINE SMOOTH",
"538 579 OFFCURVE",
"571 530 OFFCURVE",
"527 318 CURVE SMOOTH",
"484 111 OFFCURVE",
"406 64 OFFCURVE",
"270 64 CURVE SMOOTH",
"115 64 LINE"
);
},
{
closed = 1;
nodes = (
"273 -164 LINE",
"289 -87 LINE",
"209 -87 LINE",
"193 -164 LINE"
);
}
);
width = 642;
}
);
note = Ddotbelow;
rightKerningGroup = D;
unicode = 1E0C;
},
{
glyphname = Dlinebelow;
lastChange = "2015-11-24 11:57:52 +0000";
layers = (
{
layerId = "1336773A-60E9-4881-855D-D55F9632DBDF";
name = "Light Italic";
paths = (
{
closed = 1;
nodes = (
"281 0 LINE SMOOTH",
"471 0 OFFCURVE",
"562 98 OFFCURVE",
"609 318 CURVE SMOOTH",
"658 550 OFFCURVE",
"586 644 OFFCURVE",
"408 644 CURVE SMOOTH",
"156 644 LINE",
"20 0 LINE"
);
},
{
closed = 1;
nodes = (
"225 579 LINE",
"380 579 LINE SMOOTH",
"538 579 OFFCURVE",
"571 530 OFFCURVE",
"527 318 CURVE SMOOTH",
"484 111 OFFCURVE",
"406 64 OFFCURVE",
"270 64 CURVE SMOOTH",
"115 64 LINE"
);
},
{
closed = 1;
nodes = (
"347 -144 LINE",
"359 -85 LINE",
"72 -85 LINE",
"60 -144 LINE"
);
}
);
width = 642;
}
);
note = Dlinebelow;
rightKerningGroup = D;
unicode = 1E0E;
},
{
glyphname = E;
lastChange = "2015-11-24 11:57:51 +0000";
layers = (
{
layerId = "1336773A-60E9-4881-855D-D55F9632DBDF";
name = "Light Italic";
paths = (
{
closed = 1;
nodes = (
"455 0 LINE",
"468 64 LINE",
"115 64 LINE",
"163 290 LINE",
"480 290 LINE",
"494 354 LINE",
"177 354 LINE",
"225 579 LINE",
"578 579 LINE",
"591 644 LINE",
"156 644 LINE",
"20 0 LINE"
);
}
);
width = 555;
}
);
leftKerningGroup = E;
note = E;
rightKerningGroup = E;
unicode = 0045;
},
{
glyphname = Eacute;
lastChange = "2015-11-24 11:57:52 +0000";
layers = (
{
layerId = "1336773A-60E9-4881-855D-D55F9632DBDF";
name = "Light Italic";
paths = (
{
closed = 1;
nodes = (
"455 0 LINE",
"468 64 LINE",
"115 64 LINE",
"163 290 LINE",
"480 290 LINE",
"494 354 LINE",
"177 354 LINE",
"225 579 LINE",
"578 579 LINE",
"591 644 LINE",
"156 644 LINE",
"20 0 LINE"
);
},
{
closed = 1;
nodes = (
"401 688 LINE",
"516 856 LINE",
"442 856 LINE",
"335 688 LINE"
);
}
);
width = 555;
}
);
leftKerningGroup = E;
note = Eacute;
rightKerningGroup = E;
unicode = 00C9;
},
{
glyphname = Ebreve;
lastChange = "2015-11-24 11:57:53 +0000";
layers = (
{
layerId = "1336773A-60E9-4881-855D-D55F9632DBDF";
name = "Light Italic";
paths = (
{
closed = 1;
nodes = (
"455 0 LINE",
"468 64 LINE",
"115 64 LINE",
"163 290 LINE",
"480 290 LINE",
"494 354 LINE",
"177 354 LINE",
"225 579 LINE",
"578 579 LINE",
"591 644 LINE",
"156 644 LINE",
"20 0 LINE"
);
},
{
closed = 1;
nodes = (
"473 688 OFFCURVE",
"519 739 OFFCURVE",
"535 814 CURVE",
"474 814 LINE",
"463 763 OFFCURVE",
"433 740 OFFCURVE",
"389 740 CURVE SMOOTH",
"342 740 OFFCURVE",
"325 763 OFFCURVE",
"336 814 CURVE",
"281 814 LINE",
"266 739 OFFCURVE",
"297 688 OFFCURVE",
"380 688 CURVE SMOOTH"
);
}
);
width = 555;
}
);
leftKerningGroup = E;
note = Ebreve;
rightKerningGroup = E;
unicode = 0114;
},
{
glyphname = Ecaron;
lastChange = "2015-11-24 11:57:52 +0000";
layers = (
{
layerId = "1336773A-60E9-4881-855D-D55F9632DBDF";
name = "Light Italic";
paths = (
{
closed = 1;
nodes = (
"455 0 LINE",
"468 64 LINE",
"115 64 LINE",
"163 290 LINE",
"480 290 LINE",
"494 354 LINE",
"177 354 LINE",
"225 579 LINE",
"578 579 LINE",
"591 644 LINE",
"156 644 LINE",
"20 0 LINE"
);
},
{
closed = 1;
nodes = (
"416 688 LINE",
"562 836 LINE",
"488 836 LINE",
"389 734 LINE",
"334 836 LINE",
"267 836 LINE",
"350 688 LINE"
);
}
);
width = 555;
}
);
leftKerningGroup = E;
note = Ecaron;
rightKerningGroup = E;
unicode = 011A;
},
{
glyphname = Ecircumflex;
lastChange = "2015-11-24 11:57:53 +0000";
layers = (
{
layerId = "1336773A-60E9-4881-855D-D55F9632DBDF";
name = "Light Italic";
paths = (
{
closed = 1;
nodes = (
"455 0 LINE",
"468 64 LINE",
"115 64 LINE",
"163 290 LINE",
"480 290 LINE",
"494 354 LINE",
"177 354 LINE",
"225 579 LINE",
"578 579 LINE",
"591 644 LINE",
"156 644 LINE",
"20 0 LINE"
);
},
{
closed = 1;
nodes = (
"296 688 LINE",
"394 790 LINE",
"450 688 LINE",
"518 688 LINE",
"434 836 LINE",
"368 836 LINE",
"223 688 LINE"
);
}
);
width = 555;
}
);
leftKerningGroup = E;
note = Ecircumflex;
rightKerningGroup = E;
unicode = 00CA;
},
{
glyphname = Ecircumflexacute;
lastChange = "2015-11-24 11:57:52 +0000";
layers = (
{
layerId = "1336773A-60E9-4881-855D-D55F9632DBDF";
name = "Light Italic";
paths = (
{
closed = 1;
nodes = (
"455 0 LINE",
"468 64 LINE",
"115 64 LINE",
"163 290 LINE",
"480 290 LINE",
"494 354 LINE",
"177 354 LINE",
"225 579 LINE",
"578 579 LINE",
"591 644 LINE",
"156 644 LINE",
"20 0 LINE"
);
},
{
closed = 1;
nodes = (
"299 687 LINE",
"391 770 LINE",
"448 687 LINE",
"515 687 LINE",
"429 805 LINE",
"363 805 LINE",
"227 687 LINE"
);
},
{
closed = 1;
nodes = (
"533 796 LINE",
"627 921 LINE",
"562 921 LINE",
"474 796 LINE"
);
}
);
width = 555;
}
);
leftKerningGroup = E;
note = Ecircumflexacute;
rightKerningGroup = E;
unicode = 1EBE;
},
{
glyphname = Ecircumflexdotbelow;
lastChange = "2015-11-24 11:57:51 +0000";
layers = (
{
layerId = "1336773A-60E9-4881-855D-D55F9632DBDF";
name = "Light Italic";
paths = (
{
closed = 1;
nodes = (
"455 0 LINE",
"468 64 LINE",
"115 64 LINE",
"163 290 LINE",
"480 290 LINE",
"494 354 LINE",
"177 354 LINE",
"225 579 LINE",
"578 579 LINE",
"591 644 LINE",
"156 644 LINE",
"20 0 LINE"
);
},
{
closed = 1;
nodes = (
"226 -164 LINE",
"242 -87 LINE",
"162 -87 LINE",
"146 -164 LINE"
);
},
{
closed = 1;
nodes = (
"292 688 LINE",
"390 790 LINE",
"446 688 LINE",
"514 688 LINE",
"430 836 LINE",
"364 836 LINE",
"219 688 LINE"
);
}
);
width = 555;
}
);
leftKerningGroup = E;
note = Ecircumflexdotbelow;
rightKerningGroup = E;
unicode = 1EC6;
},
{
glyphname = Ecircumflexgrave;
lastChange = "2015-11-24 11:57:54 +0000";
layers = (
{
layerId = "1336773A-60E9-4881-855D-D55F9632DBDF";
name = "Light Italic";
paths = (
{
closed = 1;
nodes = (
"455 0 LINE",
"468 64 LINE",
"115 64 LINE",
"163 290 LINE",
"480 290 LINE",
"494 354 LINE",
"177 354 LINE",
"225 579 LINE",
"578 579 LINE",
"591 644 LINE",
"156 644 LINE",
"20 0 LINE"
);
},
{
closed = 1;
nodes = (
"316 687 LINE",
"409 770 LINE",
"465 687 LINE",
"532 687 LINE",
"447 805 LINE",
"381 805 LINE",
"245 687 LINE"
);
},
{
closed = 1;
nodes = (
"332 796 LINE",
"297 921 LINE",
"232 921 LINE",
"273 796 LINE"
);
}
);
width = 555;
}
);
leftKerningGroup = E;
note = Ecircumflexgrave;
rightKerningGroup = E;
unicode = 1EC0;
},
{
glyphname = Ecircumflexhookabove;
lastChange = "2015-11-24 11:57:52 +0000";
layers = (
{
layerId = "1336773A-60E9-4881-855D-D55F9632DBDF";
name = "Light Italic";
paths = (
{
closed = 1;
nodes = (
"455 0 LINE",
"468 64 LINE",
"115 64 LINE",
"163 290 LINE",
"480 290 LINE",
"494 354 LINE",
"177 354 LINE",
"225 579 LINE",
"578 579 LINE",
"591 644 LINE",
"156 644 LINE",
"20 0 LINE"
);
},
{
closed = 1;
nodes = (
"304 687 LINE",
"396 770 LINE",
"453 687 LINE",
"520 687 LINE",
"434 805 LINE",
"368 805 LINE",
"232 687 LINE"
);
},
{
closed = 1;
nodes = (
"543 775 LINE",
"550 810 LINE",
"607 817 OFFCURVE",
"636 841 OFFCURVE",
"645 884 CURVE SMOOTH",
"655 931 OFFCURVE",
"625 959 OFFCURVE",
"565 959 CURVE SMOOTH",
"535 959 OFFCURVE",
"512 954 OFFCURVE",
"492 947 CURVE",
"483 904 LINE",
"501 911 OFFCURVE",
"520 916 OFFCURVE",
"542 916 CURVE SMOOTH",
"576 916 OFFCURVE",
"590 905 OFFCURVE",
"584 880 CURVE",
"579 854 OFFCURVE",
"563 841 OFFCURVE",
"496 838 CURVE",
"483 775 LINE"
);
}
);
width = 555;
}
);
leftKerningGroup = E;
note = Ecircumflexhookabove;
rightKerningGroup = E;
unicode = 1EC2;
},
{
glyphname = Ecircumflextilde;
lastChange = "2015-11-24 11:57:54 +0000";
layers = (
{
layerId = "1336773A-60E9-4881-855D-D55F9632DBDF";
name = "Light Italic";
paths = (
{
closed = 1;
nodes = (
"455 0 LINE",
"468 64 LINE",
"115 64 LINE",
"163 290 LINE",
"480 290 LINE",
"494 354 LINE",
"177 354 LINE",
"225 579 LINE",
"578 579 LINE",
"591 644 LINE",
"156 644 LINE",
"20 0 LINE"
);
},
{
closed = 1;
nodes = (
"305 688 LINE",
"397 771 LINE",
"454 688 LINE",
"521 688 LINE",
"435 806 LINE",
"369 806 LINE",
"233 688 LINE"
);
},
{
closed = 1;
nodes = (
"505 808 OFFCURVE",
"535 819 OFFCURVE",
"549 835 CURVE",
"562 892 LINE",
"540 869 OFFCURVE",
"516 859 OFFCURVE",
"485 859 CURVE SMOOTH",
"440 859 OFFCURVE",
"410 894 OFFCURVE",
"359 894 CURVE SMOOTH",
"331 894 OFFCURVE",
"296 883 OFFCURVE",
"277 867 CURVE",
"265 811 LINE",
"290 835 OFFCURVE",
"319 843 OFFCURVE",
"348 843 CURVE SMOOTH",
"388 843 OFFCURVE",
"426 808 OFFCURVE",
"474 808 CURVE SMOOTH"
);
}
);
width = 555;
}
);
leftKerningGroup = E;
note = Ecircumflextilde;
rightKerningGroup = E;
unicode = 1EC4;
},
{
glyphname = Edieresis;
lastChange = "2015-11-24 11:57:53 +0000";
layers = (
{
layerId = "1336773A-60E9-4881-855D-D55F9632DBDF";
name = "Light Italic";
paths = (
{
closed = 1;
nodes = (
"455 0 LINE",
"468 64 LINE",
"115 64 LINE",
"163 290 LINE",
"480 290 LINE",
"494 354 LINE",
"177 354 LINE",
"225 579 LINE",
"578 579 LINE",
"591 644 LINE",
"156 644 LINE",
"20 0 LINE"
);
},
{
closed = 1;
nodes = (
"331 711 LINE",
"347 786 LINE",
"270 786 LINE",
"254 711 LINE"
);
},
{
closed = 1;
nodes = (
"507 711 LINE",
"523 786 LINE",
"445 786 LINE",
"429 711 LINE"
);
}
);
width = 555;
}
);
leftKerningGroup = E;
note = Edieresis;
rightKerningGroup = E;
unicode = 00CB;
},
{
glyphname = Edotaccent;
lastChange = "2015-11-24 11:57:51 +0000";
layers = (
{
layerId = "1336773A-60E9-4881-855D-D55F9632DBDF";
name = "Light Italic";
paths = (
{
closed = 1;
nodes = (
"455 0 LINE",
"468 64 LINE",
"115 64 LINE",
"163 290 LINE",
"480 290 LINE",
"494 354 LINE",
"177 354 LINE",
"225 579 LINE",
"578 579 LINE",
"591 644 LINE",
"156 644 LINE",
"20 0 LINE"
);
},
{
closed = 1;
nodes = (
"419 710 LINE",
"435 787 LINE",
"355 787 LINE",
"339 710 LINE"
);
}
);
width = 555;
}
);
leftKerningGroup = E;
note = Edotaccent;
rightKerningGroup = E;
unicode = 0116;
},
{
glyphname = Edotbelow;
lastChange = "2015-11-24 11:57:51 +0000";
layers = (
{
layerId = "1336773A-60E9-4881-855D-D55F9632DBDF";
name = "Light Italic";
paths = (
{
closed = 1;
nodes = (
"455 0 LINE",
"468 64 LINE",
"115 64 LINE",
"163 290 LINE",
"480 290 LINE",
"494 354 LINE",
"177 354 LINE",
"225 579 LINE",
"578 579 LINE",
"591 644 LINE",
"156 644 LINE",
"20 0 LINE"
);
},
{
closed = 1;
nodes = (
"232 -164 LINE",
"248 -87 LINE",
"168 -87 LINE",
"152 -164 LINE"
);
}
);
width = 555;
}
);
leftKerningGroup = E;
note = Edotbelow;
rightKerningGroup = E;
unicode = 1EB8;
},
{
glyphname = Egrave;
lastChange = "2015-11-24 11:57:54 +0000";
layers = (
{
layerId = "1336773A-60E9-4881-855D-D55F9632DBDF";
name = "Light Italic";
paths = (
{
closed = 1;
nodes = (
"455 0 LINE",
"468 64 LINE",
"115 64 LINE",
"163 290 LINE",
"480 290 LINE",
"494 354 LINE",
"177 354 LINE",
"225 579 LINE",
"578 579 LINE",
"591 644 LINE",
"156 644 LINE",
"20 0 LINE"
);
},
{
closed = 1;
nodes = (
"419 688 LINE",
"384 856 LINE",
"310 856 LINE",
"353 688 LINE"
);
}
);
width = 555;
}
);
leftKerningGroup = E;
note = Egrave;
rightKerningGroup = E;
unicode = 00C8;
},
{
glyphname = Ehookabove;
lastChange = "2015-11-24 11:57:53 +0000";
layers = (
{
layerId = "1336773A-60E9-4881-855D-D55F9632DBDF";
name = "Light Italic";
paths = (
{
closed = 1;
nodes = (
"455 0 LINE",
"468 64 LINE",
"115 64 LINE",
"163 290 LINE",
"480 290 LINE",
"494 354 LINE",
"177 354 LINE",
"225 579 LINE",
"578 579 LINE",
"591 644 LINE",
"156 644 LINE",
"20 0 LINE"
);
},
{
closed = 1;
nodes = (
"402 688 LINE",
"412 736 LINE",
"481 745 OFFCURVE",
"509 775 OFFCURVE",
"521 829 CURVE SMOOTH",
"533 886 OFFCURVE",
"491 920 OFFCURVE",
"419 920 CURVE SMOOTH",
"390 920 OFFCURVE",
"353 915 OFFCURVE",
"331 907 CURVE",
"321 856 LINE",
"339 863 OFFCURVE",
"368 868 OFFCURVE",
"389 868 CURVE SMOOTH",
"448 868 OFFCURVE",
"465 856 OFFCURVE",
"458 823 CURVE SMOOTH",
"450 788 OFFCURVE",
"432 775 OFFCURVE",
"354 771 CURVE",
"336 688 LINE"
);
}
);
width = 555;
}
);
leftKerningGroup = E;
note = Ehookabove;
rightKerningGroup = E;
unicode = 1EBA;
},
{
glyphname = Emacron;
lastChange = "2015-11-24 11:57:53 +0000";
layers = (
{
layerId = "1336773A-60E9-4881-855D-D55F9632DBDF";
name = "Light Italic";
paths = (
{
closed = 1;
nodes = (
"455 0 LINE",
"468 64 LINE",
"115 64 LINE",
"163 290 LINE",
"480 290 LINE",
"494 354 LINE",
"177 354 LINE",
"225 579 LINE",
"578 579 LINE",
"591 644 LINE",
"156 644 LINE",
"20 0 LINE"
);
},
{
closed = 1;
nodes = (
"520 720 LINE",
"532 779 LINE",
"245 779 LINE",
"233 720 LINE"
);
}
);
width = 555;
}
);
leftKerningGroup = E;
note = Emacron;
rightKerningGroup = E;
unicode = 0112;
},
{
glyphname = Eogonek;
lastChange = "2015-11-24 11:57:52 +0000";
layers = (
{
layerId = "1336773A-60E9-4881-855D-D55F9632DBDF";
name = "Light Italic";
paths = (
{
closed = 1;
nodes = (
"366 -220 OFFCURVE",
"394 -216 OFFCURVE",
"411 -208 CURVE",
"423 -152 LINE",
"410 -159 OFFCURVE",
"388 -163 OFFCURVE",
"372 -163 CURVE SMOOTH",
"339 -163 OFFCURVE",
"324 -154 OFFCURVE",
"331 -120 CURVE SMOOTH",
"340 -77 OFFCURVE",
"374 -35 OFFCURVE",
"428 0 CURVE",
"455 0 LINE",
"468 64 LINE",
"115 64 LINE",
"163 290 LINE",
"480 290 LINE",
"494 354 LINE",
"177 354 LINE",
"225 579 LINE",
"578 579 LINE",
"591 644 LINE",
"156 644 LINE",
"20 0 LINE",
"364 0 LINE",
"314 -30 OFFCURVE",
"272 -80 OFFCURVE",
"261 -132 CURVE SMOOTH",
"248 -195 OFFCURVE",
"288 -220 OFFCURVE",
"342 -220 CURVE SMOOTH"
);
}
);
width = 555;
}
);
leftKerningGroup = E;
note = Eogonek;
rightKerningGroup = E;
unicode = 0118;
},
{
glyphname = Etilde;
lastChange = "2015-11-24 11:57:53 +0000";
layers = (
{
layerId = "1336773A-60E9-4881-855D-D55F9632DBDF";
name = "Light Italic";
paths = (
{
closed = 1;
nodes = (
"455 0 LINE",
"468 64 LINE",
"115 64 LINE",
"163 290 LINE",
"480 290 LINE",
"494 354 LINE",
"177 354 LINE",
"225 579 LINE",
"578 579 LINE",
"591 644 LINE",
"156 644 LINE",
"20 0 LINE"
);
},
{
closed = 1;
nodes = (
"486 708 OFFCURVE",
"519 720 OFFCURVE",
"536 738 CURVE",
"549 802 LINE",
"526 777 OFFCURVE",
"499 766 OFFCURVE",
"465 766 CURVE SMOOTH",
"416 766 OFFCURVE",
"384 804 OFFCURVE",
"329 804 CURVE SMOOTH",
"298 804 OFFCURVE",
"259 792 OFFCURVE",
"239 774 CURVE",
"226 711 LINE",
"253 737 OFFCURVE",
"284 746 OFFCURVE",
"316 746 CURVE SMOOTH",
"359 746 OFFCURVE",
"400 708 OFFCURVE",
"452 708 CURVE SMOOTH"
);
}
);
width = 555;
}
);
leftKerningGroup = E;
note = Etilde;
rightKerningGroup = E;
unicode = 1EBC;
},
{
glyphname = F;
lastChange = "2015-11-24 11:57:53 +0000";
layers = (
{
layerId = "1336773A-60E9-4881-855D-D55F9632DBDF";
name = "Light Italic";
paths = (
{
closed = 1;
nodes = (
"102 0 LINE",
"163 290 LINE",
"466 290 LINE",
"480 354 LINE",
"177 354 LINE",
"225 579 LINE",
"565 579 LINE",
"578 644 LINE",
"156 644 LINE",
"20 0 LINE"
);
}
);
width = 522;
}
);
note = F;
unicode = 0046;
},
{
glyphname = G;
lastChange = "2015-11-24 11:57:54 +0000";
layers = (
{
layerId = "1336773A-60E9-4881-855D-D55F9632DBDF";
name = "Light Italic";
paths = (
{
closed = 1;
nodes = (
"426 -10 OFFCURVE",
"503 16 OFFCURVE",
"547 41 CURVE",
"612 347 LINE",
"369 347 LINE",
"357 291 LINE",
"529 291 LINE",
"486 86 LINE",
"441 70 OFFCURVE",
"383 60 OFFCURVE",
"326 60 CURVE SMOOTH",
"154 60 OFFCURVE",
"111 144 OFFCURVE",
"147 308 CURVE SMOOTH",
"185 480 OFFCURVE",
"274 584 OFFCURVE",
"439 584 CURVE SMOOTH",
"505 584 OFFCURVE",
"563 572 OFFCURVE",
"612 552 CURVE",
"627 624 LINE",
"578 643 OFFCURVE",
"521 654 OFFCURVE",
"447 654 CURVE SMOOTH",
"230 654 OFFCURVE",
"110 518 OFFCURVE",
"65 308 CURVE SMOOTH",
"24 116 OFFCURVE",
"111 -10 OFFCURVE",
"306 -10 CURVE SMOOTH"
);
}
);
width = 639;
}
);
leftKerningGroup = G;
note = G;
unicode = 0047;
},
{
glyphname = Gbreve;
lastChange = "2015-11-24 11:57:54 +0000";
layers = (
{
layerId = "1336773A-60E9-4881-855D-D55F9632DBDF";
name = "Light Italic";
paths = (
{
closed = 1;
nodes = (
"426 -10 OFFCURVE",
"503 16 OFFCURVE",
"547 41 CURVE",
"612 347 LINE",
"369 347 LINE",
"357 291 LINE",
"529 291 LINE",
"486 86 LINE",
"441 70 OFFCURVE",
"383 60 OFFCURVE",
"326 60 CURVE SMOOTH",
"154 60 OFFCURVE",
"111 144 OFFCURVE",
"147 308 CURVE SMOOTH",
"185 480 OFFCURVE",
"274 584 OFFCURVE",
"439 584 CURVE SMOOTH",
"505 584 OFFCURVE",
"563 572 OFFCURVE",
"612 552 CURVE",
"627 624 LINE",
"578 643 OFFCURVE",
"521 654 OFFCURVE",
"447 654 CURVE SMOOTH",
"230 654 OFFCURVE",
"110 518 OFFCURVE",
"65 308 CURVE SMOOTH",
"24 116 OFFCURVE",
"111 -10 OFFCURVE",
"306 -10 CURVE SMOOTH"
);
},
{
closed = 1;
nodes = (
"537 688 OFFCURVE",
"583 739 OFFCURVE",
"599 814 CURVE",
"538 814 LINE",
"527 763 OFFCURVE",
"497 740 OFFCURVE",
"453 740 CURVE SMOOTH",
"406 740 OFFCURVE",
"389 763 OFFCURVE",
"400 814 CURVE",
"345 814 LINE",
"330 739 OFFCURVE",
"361 688 OFFCURVE",
"444 688 CURVE SMOOTH"
);
}
);
width = 639;
}
);
leftKerningGroup = G;
note = Gbreve;
unicode = 011E;
},
{
glyphname = Gcaron;
lastChange = "2015-11-24 11:57:53 +0000";
layers = (
{
layerId = "1336773A-60E9-4881-855D-D55F9632DBDF";
name = "Light Italic";
paths = (
{
closed = 1;
nodes = (
"426 -10 OFFCURVE",
"503 16 OFFCURVE",
"547 41 CURVE",
"612 347 LINE",
"369 347 LINE",
"357 291 LINE",
"529 291 LINE",
"486 86 LINE",
"441 70 OFFCURVE",
"383 60 OFFCURVE",
"326 60 CURVE SMOOTH",
"154 60 OFFCURVE",
"111 144 OFFCURVE",
"147 308 CURVE SMOOTH",
"185 480 OFFCURVE",
"274 584 OFFCURVE",
"439 584 CURVE SMOOTH",
"505 584 OFFCURVE",
"563 572 OFFCURVE",
"612 552 CURVE",
"627 624 LINE",
"578 643 OFFCURVE",
"521 654 OFFCURVE",
"447 654 CURVE SMOOTH",
"230 654 OFFCURVE",
"110 518 OFFCURVE",
"65 308 CURVE SMOOTH",
"24 116 OFFCURVE",
"111 -10 OFFCURVE",
"306 -10 CURVE SMOOTH"
);
},
{
closed = 1;
nodes = (
"478 687 LINE",
"624 835 LINE",
"550 835 LINE",
"451 733 LINE",
"396 835 LINE",
"329 835 LINE",
"412 687 LINE"
);
}
);
width = 639;
}
);
leftKerningGroup = G;
note = Gcaron;
unicode = 01E6;
},
{
glyphname = Gcircumflex;
lastChange = "2015-11-24 11:57:53 +0000";
layers = (
{
layerId = "1336773A-60E9-4881-855D-D55F9632DBDF";
name = "Light Italic";
paths = (
{
closed = 1;
nodes = (
"426 -10 OFFCURVE",
"503 16 OFFCURVE",
"547 41 CURVE",
"612 347 LINE",
"369 347 LINE",
"357 291 LINE",
"529 291 LINE",
"486 86 LINE",
"441 70 OFFCURVE",
"383 60 OFFCURVE",
"326 60 CURVE SMOOTH",
"154 60 OFFCURVE",
"111 144 OFFCURVE",
"147 308 CURVE SMOOTH",
"185 480 OFFCURVE",
"274 584 OFFCURVE",
"439 584 CURVE SMOOTH",
"505 584 OFFCURVE",
"563 572 OFFCURVE",
"612 552 CURVE",
"627 624 LINE",
"578 643 OFFCURVE",
"521 654 OFFCURVE",
"447 654 CURVE SMOOTH",
"230 654 OFFCURVE",
"110 518 OFFCURVE",
"65 308 CURVE SMOOTH",
"24 116 OFFCURVE",
"111 -10 OFFCURVE",
"306 -10 CURVE SMOOTH"
);
},
{
closed = 1;
nodes = (
"378 688 LINE",
"476 790 LINE",
"532 688 LINE",
"600 688 LINE",
"516 836 LINE",
"450 836 LINE",
"305 688 LINE"
);
}
);
width = 639;
}
);
leftKerningGroup = G;
note = Gcircumflex;
unicode = 011C;
},
{
glyphname = Gcommaaccent;
lastChange = "2015-11-24 11:57:53 +0000";
layers = (
{
layerId = "1336773A-60E9-4881-855D-D55F9632DBDF";
name = "Light Italic";
paths = (
{
closed = 1;
nodes = (
"426 -10 OFFCURVE",
"503 16 OFFCURVE",
"547 41 CURVE",
"612 347 LINE",
"369 347 LINE",
"357 291 LINE",
"529 291 LINE",
"486 86 LINE",
"441 70 OFFCURVE",
"383 60 OFFCURVE",
"326 60 CURVE SMOOTH",
"154 60 OFFCURVE",
"111 144 OFFCURVE",
"147 308 CURVE SMOOTH",
"185 480 OFFCURVE",
"274 584 OFFCURVE",
"439 584 CURVE SMOOTH",
"505 584 OFFCURVE",
"563 572 OFFCURVE",
"612 552 CURVE",
"627 624 LINE",
"578 643 OFFCURVE",
"521 654 OFFCURVE",
"447 654 CURVE SMOOTH",
"230 654 OFFCURVE",
"110 518 OFFCURVE",
"65 308 CURVE SMOOTH",
"24 116 OFFCURVE",
"111 -10 OFFCURVE",
"306 -10 CURVE SMOOTH"
);
},
{
closed = 1;
nodes = (
"267 -224 LINE",
"347 -47 LINE",
"273 -47 LINE",
"207 -224 LINE"
);
}
);
width = 639;
}
);
leftKerningGroup = G;
note = Gcommaaccent;
unicode = 0122;
},
{
glyphname = Gdotaccent;
lastChange = "2015-11-24 11:57:52 +0000";
layers = (
{
layerId = "1336773A-60E9-4881-855D-D55F9632DBDF";
name = "Light Italic";
paths = (
{
closed = 1;
nodes = (
"426 -10 OFFCURVE",
"503 16 OFFCURVE",
"547 41 CURVE",
"612 347 LINE",
"369 347 LINE",
"357 291 LINE",
"529 291 LINE",
"486 86 LINE",
"441 70 OFFCURVE",
"383 60 OFFCURVE",
"326 60 CURVE SMOOTH",
"154 60 OFFCURVE",
"111 144 OFFCURVE",
"147 308 CURVE SMOOTH",
"185 480 OFFCURVE",
"274 584 OFFCURVE",
"439 584 CURVE SMOOTH",
"505 584 OFFCURVE",
"563 572 OFFCURVE",
"612 552 CURVE",
"627 624 LINE",
"578 643 OFFCURVE",
"521 654 OFFCURVE",
"447 654 CURVE SMOOTH",
"230 654 OFFCURVE",
"110 518 OFFCURVE",
"65 308 CURVE SMOOTH",
"24 116 OFFCURVE",
"111 -10 OFFCURVE",
"306 -10 CURVE SMOOTH"
);
},
{
closed = 1;
nodes = (
"492 710 LINE",
"508 787 LINE",
"428 787 LINE",
"412 710 LINE"
);
}
);
width = 639;
}
);
leftKerningGroup = G;
note = Gdotaccent;
unicode = 0120;
},
{
glyphname = Gmacron;
lastChange = "2015-11-24 11:57:52 +0000";
layers = (
{
layerId = "1336773A-60E9-4881-855D-D55F9632DBDF";
name = "Light Italic";
paths = (
{
closed = 1;
nodes = (
"426 -10 OFFCURVE",
"503 16 OFFCURVE",
"547 41 CURVE",
"612 347 LINE",
"369 347 LINE",
"357 291 LINE",
"529 291 LINE",
"486 86 LINE",
"441 70 OFFCURVE",
"383 60 OFFCURVE",
"326 60 CURVE SMOOTH",
"154 60 OFFCURVE",
"111 144 OFFCURVE",
"147 308 CURVE SMOOTH",
"185 480 OFFCURVE",
"274 584 OFFCURVE",
"439 584 CURVE SMOOTH",
"505 584 OFFCURVE",
"563 572 OFFCURVE",
"612 552 CURVE",
"627 624 LINE",
"578 643 OFFCURVE",
"521 654 OFFCURVE",
"447 654 CURVE SMOOTH",
"230 654 OFFCURVE",
"110 518 OFFCURVE",
"65 308 CURVE SMOOTH",
"24 116 OFFCURVE",
"111 -10 OFFCURVE",
"306 -10 CURVE SMOOTH"
);
},
{
closed = 1;
nodes = (
"598 717 LINE",
"610 776 LINE",
"323 776 LINE",
"311 717 LINE"
);
}
);
width = 639;
}
);
leftKerningGroup = G;
note = Gmacron;
unicode = 1E20;
},
{
glyphname = H;
lastChange = "2015-11-24 11:57:53 +0000";
layers = (
{
layerId = "1336773A-60E9-4881-855D-D55F9632DBDF";
name = "Light Italic";
paths = (
{
closed = 1;
nodes = (
"102 0 LINE",
"163 290 LINE",
"503 290 LINE",
"442 0 LINE",
"524 0 LINE",
"660 644 LINE",
"578 644 LINE",
"517 354 LINE",
"177 354 LINE",
"238 644 LINE",
"156 644 LINE",
"20 0 LINE"
);
}
);
width = 644;
}
);
note = H;
unicode = 0048;
},
{
glyphname = Hbar;
lastChange = "2015-11-24 11:57:52 +0000";
layers = (
{
layerId = "1336773A-60E9-4881-855D-D55F9632DBDF";
name = "Light Italic";
paths = (
{
closed = 1;
nodes = (
"102 0 LINE",
"163 290 LINE",
"503 290 LINE",
"442 0 LINE",
"524 0 LINE",
"622 464 LINE",
"679 464 LINE",
"693 529 LINE",
"635 529 LINE",
"660 644 LINE",
"578 644 LINE",
"553 529 LINE",
"213 529 LINE",
"238 644 LINE",
"156 644 LINE",
"131 529 LINE",
"69 529 LINE",
"55 464 LINE",
"118 464 LINE",
"20 0 LINE"
);
},
{
closed = 1;
nodes = (
"200 464 LINE",
"540 464 LINE",
"517 354 LINE",
"177 354 LINE"
);
}
);
width = 644;
}
);
note = Hbar;
unicode = 0126;
},
{
glyphname = Hbrevebelow;
lastChange = "2015-11-24 11:57:53 +0000";
layers = (
{
layerId = "1336773A-60E9-4881-855D-D55F9632DBDF";
name = "Light Italic";
paths = (
{
closed = 1;
nodes = (
"102 0 LINE",
"163 290 LINE",
"503 290 LINE",
"442 0 LINE",
"524 0 LINE",
"660 644 LINE",
"578 644 LINE",
"517 354 LINE",
"177 354 LINE",
"238 644 LINE",
"156 644 LINE",
"20 0 LINE"
);
},
{
closed = 1;
nodes = (
"318 -196 OFFCURVE",
"368 -145 OFFCURVE",
"384 -70 CURVE",
"323 -70 LINE",
"312 -121 OFFCURVE",
"281 -144 OFFCURVE",
"238 -144 CURVE SMOOTH",
"190 -144 OFFCURVE",
"175 -121 OFFCURVE",
"186 -70 CURVE",
"131 -70 LINE",
"115 -145 OFFCURVE",
"147 -196 OFFCURVE",
"230 -196 CURVE SMOOTH"
);
}
);
width = 644;
}
);
note = Hbrevebelow;
unicode = 1E2A;
},
{
glyphname = Hcircumflex;
lastChange = "2015-11-24 11:57:53 +0000";
layers = (
{
layerId = "1336773A-60E9-4881-855D-D55F9632DBDF";
name = "Light Italic";
paths = (
{
closed = 1;
nodes = (
"102 0 LINE",
"163 290 LINE",
"503 290 LINE",
"442 0 LINE",
"524 0 LINE",
"660 644 LINE",
"578 644 LINE",
"517 354 LINE",
"177 354 LINE",
"238 644 LINE",
"156 644 LINE",
"20 0 LINE"
);
},
{
closed = 1;
nodes = (
"344 688 LINE",
"442 790 LINE",
"498 688 LINE",
"566 688 LINE",
"482 836 LINE",
"416 836 LINE",
"271 688 LINE"
);
}
);
width = 644;
}
);
note = Hcircumflex;
unicode = 0124;
},
{
glyphname = Hdotbelow;
lastChange = "2015-11-24 11:57:54 +0000";
layers = (
{
layerId = "1336773A-60E9-4881-855D-D55F9632DBDF";
name = "Light Italic";
paths = (
{
closed = 1;
nodes = (
"102 0 LINE",
"163 290 LINE",
"503 290 LINE",
"442 0 LINE",
"524 0 LINE",
"660 644 LINE",
"578 644 LINE",
"517 354 LINE",
"177 354 LINE",
"238 644 LINE",
"156 644 LINE",
"20 0 LINE"
);
},
{
closed = 1;
nodes = (
"279 -164 LINE",
"295 -87 LINE",
"215 -87 LINE",
"199 -164 LINE"
);
}
);
width = 644;
}
);
note = Hdotbelow;
unicode = 1E24;
},
{
glyphname = I;
lastChange = "2015-11-24 11:57:51 +0000";
layers = (
{
layerId = "1336773A-60E9-4881-855D-D55F9632DBDF";
name = "Light Italic";
paths = (
{
closed = 1;
nodes = (
"102 0 LINE",
"238 644 LINE",
"156 644 LINE",
"20 0 LINE"
);
}
);
width = 222;
}
);
note = I;
unicode = 0049;
},
{
glyphname = IJ;
lastChange = "2015-11-24 11:57:54 +0000";
layers = (
{
layerId = "1336773A-60E9-4881-855D-D55F9632DBDF";
name = "Light Italic";
paths = (
{
closed = 1;
nodes = (
"456 -10 OFFCURVE",
"525 59 OFFCURVE",
"550 177 CURVE SMOOTH",
"649 644 LINE",
"567 644 LINE",
"469 183 LINE SMOOTH",
"451 97 OFFCURVE",
"412 59 OFFCURVE",
"318 59 CURVE SMOOTH",
"274 59 OFFCURVE",
"227 69 OFFCURVE",
"198 83 CURVE",
"183 13 LINE",
"215 -1 OFFCURVE",
"259 -10 OFFCURVE",
"313 -10 CURVE SMOOTH"
);
},
{
closed = 1;
nodes = (
"102 0 LINE",
"238 644 LINE",
"156 644 LINE",
"20 0 LINE"
);
}
);
width = 628;
}
);
note = IJ;
unicode = 0132;
},
{
glyphname = Iacute;
lastChange = "2015-11-24 11:57:53 +0000";
layers = (
{
layerId = "1336773A-60E9-4881-855D-D55F9632DBDF";
name = "Light Italic";
paths = (
{
closed = 1;
nodes = (
"102 0 LINE",
"238 644 LINE",
"156 644 LINE",
"20 0 LINE"
);
},
{
closed = 1;
nodes = (
"232 688 LINE",
"347 856 LINE",
"273 856 LINE",
"166 688 LINE"
);
}
);
width = 222;
}
);
note = Iacute;
unicode = 00CD;
},
{
glyphname = Ibreve;
lastChange = "2015-11-24 11:57:52 +0000";
layers = (
{
layerId = "1336773A-60E9-4881-855D-D55F9632DBDF";
name = "Light Italic";
paths = (
{
closed = 1;
nodes = (
"102 0 LINE",
"238 644 LINE",
"156 644 LINE",
"20 0 LINE"
);
},
{
closed = 1;
nodes = (
"299 695 OFFCURVE",
"345 746 OFFCURVE",
"361 821 CURVE",
"300 821 LINE",
"289 770 OFFCURVE",
"259 747 OFFCURVE",
"215 747 CURVE SMOOTH",
"168 747 OFFCURVE",
"151 770 OFFCURVE",
"162 821 CURVE",
"107 821 LINE",
"92 746 OFFCURVE",
"123 695 OFFCURVE",
"206 695 CURVE SMOOTH"
);
}
);
width = 222;
}
);
note = Ibreve;
unicode = 012C;
},
{
glyphname = Icaron;
lastChange = "2015-11-24 11:57:53 +0000";
layers = (
{
layerId = "1336773A-60E9-4881-855D-D55F9632DBDF";
name = "Light Italic";
paths = (
{
closed = 1;
nodes = (
"102 0 LINE",
"238 644 LINE",
"156 644 LINE",
"20 0 LINE"
);
},
{
closed = 1;
nodes = (
"237 688 LINE",
"383 836 LINE",
"309 836 LINE",
"210 734 LINE",
"155 836 LINE",
"88 836 LINE",
"171 688 LINE"
);
}
);
width = 222;
}
);
note = Icaron;
unicode = 01CF;
},
{
glyphname = Icircumflex;
lastChange = "2015-11-24 11:57:51 +0000";
layers = (
{
layerId = "1336773A-60E9-4881-855D-D55F9632DBDF";
name = "Light Italic";
paths = (
{
closed = 1;
nodes = (
"102 0 LINE",
"238 644 LINE",
"156 644 LINE",
"20 0 LINE"
);
},
{
closed = 1;
nodes = (
"133 688 LINE",
"231 790 LINE",
"287 688 LINE",
"355 688 LINE",
"271 836 LINE",
"205 836 LINE",
"60 688 LINE"
);
}
);
width = 222;
}
);
note = Icircumflex;
unicode = 00CE;
},
{
glyphname = Idieresis;
lastChange = "2015-11-24 11:57:54 +0000";
layers = (
{
layerId = "1336773A-60E9-4881-855D-D55F9632DBDF";
name = "Light Italic";
paths = (
{
closed = 1;
nodes = (
"102 0 LINE",
"238 644 LINE",
"156 644 LINE",
"20 0 LINE"
);
},
{
closed = 1;
nodes = (
"163 713 LINE",
"179 788 LINE",
"102 788 LINE",
"86 713 LINE"
);
},
{
closed = 1;
nodes = (
"339 713 LINE",
"355 788 LINE",
"277 788 LINE",
"261 713 LINE"
);
}
);
width = 222;
}
);
note = Idieresis;
unicode = 00CF;
},
{
glyphname = Idotaccent;
lastChange = "2015-11-24 11:57:53 +0000";
layers = (
{
layerId = "1336773A-60E9-4881-855D-D55F9632DBDF";
name = "Light Italic";
paths = (
{
closed = 1;
nodes = (
"102 0 LINE",
"238 644 LINE",
"156 644 LINE",
"20 0 LINE"
);
},
{
closed = 1;
nodes = (
"252 712 LINE",
"268 789 LINE",
"188 789 LINE",
"172 712 LINE"
);
}
);
width = 222;
}
);
note = Idotaccent;
unicode = 0130;
},
{
glyphname = Idotbelow;
lastChange = "2015-11-24 11:57:53 +0000";
layers = (
{
layerId = "1336773A-60E9-4881-855D-D55F9632DBDF";
name = "Light Italic";
paths = (
{
closed = 1;
nodes = (
"102 0 LINE",
"238 644 LINE",
"156 644 LINE",
"20 0 LINE"
);
},
{
closed = 1;
nodes = (
"67 -164 LINE",
"83 -87 LINE",
"3 -87 LINE",
"-13 -164 LINE"
);
}
);
width = 222;
}
);
note = Idotbelow;
unicode = 1ECA;
},
{
glyphname = Igrave;
lastChange = "2015-11-24 11:57:54 +0000";
layers = (
{
layerId = "1336773A-60E9-4881-855D-D55F9632DBDF";
name = "Light Italic";
paths = (
{
closed = 1;
nodes = (
"102 0 LINE",
"238 644 LINE",
"156 644 LINE",
"20 0 LINE"
);
},
{
closed = 1;
nodes = (
"242 688 LINE",
"207 856 LINE",
"133 856 LINE",
"176 688 LINE"
);
}
);
width = 222;
}
);
note = Igrave;
unicode = 00CC;
},
{
glyphname = Ihookabove;
lastChange = "2015-11-24 11:57:53 +0000";
layers = (
{
layerId = "1336773A-60E9-4881-855D-D55F9632DBDF";
name = "Light Italic";
paths = (
{
closed = 1;
nodes = (
"102 0 LINE",
"238 644 LINE",
"156 644 LINE",
"20 0 LINE"
);
},
{
closed = 1;
nodes = (
"239 688 LINE",
"249 736 LINE",
"318 745 OFFCURVE",
"346 775 OFFCURVE",
"358 829 CURVE SMOOTH",
"370 886 OFFCURVE",
"328 920 OFFCURVE",
"256 920 CURVE SMOOTH",
"227 920 OFFCURVE",
"190 915 OFFCURVE",
"168 907 CURVE",
"158 856 LINE",
"176 863 OFFCURVE",
"205 868 OFFCURVE",
"226 868 CURVE SMOOTH",
"285 868 OFFCURVE",
"302 856 OFFCURVE",
"295 823 CURVE SMOOTH",
"287 788 OFFCURVE",
"269 775 OFFCURVE",
"191 771 CURVE",
"173 688 LINE"
);
}
);
width = 222;
}
);
note = Ihookabove;
unicode = 1EC8;
},
{
glyphname = Imacron;
lastChange = "2015-11-24 11:57:51 +0000";
layers = (
{
layerId = "1336773A-60E9-4881-855D-D55F9632DBDF";
name = "Light Italic";
paths = (
{
closed = 1;
nodes = (
"102 0 LINE",
"238 644 LINE",
"156 644 LINE",
"20 0 LINE"
);
},
{
closed = 1;
nodes = (
"358 720 LINE",
"370 779 LINE",
"82 779 LINE",
"70 720 LINE"
);
}
);
width = 222;
}
);
note = Imacron;
unicode = 012A;
},
{
glyphname = Iogonek;
lastChange = "2015-11-24 11:57:54 +0000";
layers = (
{
layerId = "1336773A-60E9-4881-855D-D55F9632DBDF";
name = "Light Italic";
paths = (
{
closed = 1;
nodes = (
"34 -220 OFFCURVE",
"62 -216 OFFCURVE",
"79 -208 CURVE",
"91 -152 LINE",
"78 -159 OFFCURVE",
"56 -163 OFFCURVE",
"40 -163 CURVE SMOOTH",
"7 -163 OFFCURVE",
"-8 -154 OFFCURVE",
"-1 -120 CURVE SMOOTH",
"8 -77 OFFCURVE",
"42 -35 OFFCURVE",
"96 0 CURVE",
"102 0 LINE",
"238 644 LINE",
"156 644 LINE",
"20 0 LINE",
"32 0 LINE",
"-18 -30 OFFCURVE",
"-60 -80 OFFCURVE",
"-71 -132 CURVE SMOOTH",
"-84 -195 OFFCURVE",
"-44 -220 OFFCURVE",
"10 -220 CURVE SMOOTH"
);
}
);
width = 222;
}
);
note = Iogonek;
unicode = 012E;
},
{
glyphname = Itilde;
lastChange = "2015-11-24 11:57:53 +0000";
layers = (
{
layerId = "1336773A-60E9-4881-855D-D55F9632DBDF";
name = "Light Italic";
paths = (
{
closed = 1;
nodes = (
"102 0 LINE",
"238 644 LINE",
"156 644 LINE",
"20 0 LINE"
);
},
{
closed = 1;
nodes = (
"317 693 OFFCURVE",
"350 705 OFFCURVE",
"367 723 CURVE",
"380 787 LINE",
"357 762 OFFCURVE",
"330 751 OFFCURVE",
"296 751 CURVE SMOOTH",
"247 751 OFFCURVE",
"215 789 OFFCURVE",
"160 789 CURVE SMOOTH",
"129 789 OFFCURVE",
"90 777 OFFCURVE",
"70 759 CURVE",
"57 696 LINE",
"84 722 OFFCURVE",
"115 731 OFFCURVE",
"147 731 CURVE SMOOTH",
"190 731 OFFCURVE",
"231 693 OFFCURVE",
"283 693 CURVE SMOOTH"
);
}
);
width = 222;
}
);
note = Itilde;
unicode = 0128;
},
{
glyphname = J;
lastChange = "2015-11-24 11:57:51 +0000";
layers = (
{
layerId = "1336773A-60E9-4881-855D-D55F9632DBDF";
name = "Light Italic";
paths = (
{
closed = 1;
nodes = (
"255 -10 OFFCURVE",
"324 59 OFFCURVE",
"349 177 CURVE SMOOTH",
"448 644 LINE",
"366 644 LINE",
"268 183 LINE SMOOTH",
"250 97 OFFCURVE",
"211 59 OFFCURVE",
"117 59 CURVE SMOOTH",
"73 59 OFFCURVE",
"26 69 OFFCURVE",
"-3 83 CURVE",
"-18 13 LINE",
"14 -1 OFFCURVE",
"58 -10 OFFCURVE",
"112 -10 CURVE SMOOTH"
);
}
);
width = 427;
}
);
note = J;
unicode = 004A;
},
{
glyphname = Jcircumflex;
lastChange = "2015-11-24 11:57:51 +0000";
layers = (
{
layerId = "1336773A-60E9-4881-855D-D55F9632DBDF";
name = "Light Italic";
paths = (
{
closed = 1;
nodes = (
"255 -10 OFFCURVE",
"324 59 OFFCURVE",
"349 177 CURVE SMOOTH",
"448 644 LINE",
"366 644 LINE",
"268 183 LINE SMOOTH",
"250 97 OFFCURVE",
"211 59 OFFCURVE",
"117 59 CURVE SMOOTH",
"73 59 OFFCURVE",
"26 69 OFFCURVE",
"-3 83 CURVE",
"-18 13 LINE",
"14 -1 OFFCURVE",
"58 -10 OFFCURVE",
"112 -10 CURVE SMOOTH"
);
},
{
closed = 1;
nodes = (
"341 688 LINE",
"439 790 LINE",
"495 688 LINE",
"563 688 LINE",
"479 836 LINE",
"413 836 LINE",
"268 688 LINE"
);
}
);
width = 427;
}
);
note = Jcircumflex;
unicode = 0134;
},
{
glyphname = K;
lastChange = "2015-11-24 11:57:54 +0000";
layers = (
{
layerId = "1336773A-60E9-4881-855D-D55F9632DBDF";
name = "Light Italic";
paths = (
{
closed = 1;
nodes = (
"102 0 LINE",
"149 222 LINE",
"277 333 LINE",
"419 0 LINE",
"507 0 LINE",
"341 386 LINE",
"635 644 LINE",
"539 644 LINE",
"171 325 LINE",
"238 644 LINE",
"156 644 LINE",
"20 0 LINE"
);
}
);
width = 607;
}
);
leftKerningGroup = K;
note = K;
rightKerningGroup = K;
unicode = 004B;
},
{
glyphname = Kcommaaccent;
lastChange = "2015-11-24 11:57:52 +0000";
layers = (
{
layerId = "1336773A-60E9-4881-855D-D55F9632DBDF";
name = "Light Italic";
paths = (
{
closed = 1;
nodes = (
"102 0 LINE",
"149 222 LINE",
"277 333 LINE",
"419 0 LINE",
"507 0 LINE",
"341 386 LINE",
"635 644 LINE",
"539 644 LINE",
"171 325 LINE",
"238 644 LINE",
"156 644 LINE",
"20 0 LINE"
);
},
{
closed = 1;
nodes = (
"211 -214 LINE",
"291 -37 LINE",
"217 -37 LINE",
"151 -214 LINE"
);
}
);
width = 607;
}
);
leftKerningGroup = K;
note = Kcommaaccent;
rightKerningGroup = K;
unicode = 0136;
},
{
glyphname = L;
lastChange = "2015-11-24 11:57:51 +0000";
layers = (
{
layerId = "1336773A-60E9-4881-855D-D55F9632DBDF";
name = "Light Italic";
paths = (
{
closed = 1;
nodes = (
"445 0 LINE",
"458 64 LINE",
"115 64 LINE",
"238 644 LINE",
"156 644 LINE",
"20 0 LINE"
);
}
);
width = 525;
}
);
note = L;
rightKerningGroup = L;
unicode = 004C;
},
{
glyphname = Lacute;
lastChange = "2015-11-24 11:57:53 +0000";
layers = (
{
layerId = "1336773A-60E9-4881-855D-D55F9632DBDF";
name = "Light Italic";
paths = (
{
closed = 1;
nodes = (
"445 0 LINE",
"458 64 LINE",
"115 64 LINE",
"238 644 LINE",
"156 644 LINE",
"20 0 LINE"
);
},
{
closed = 1;
nodes = (
"232 688 LINE",
"347 856 LINE",
"273 856 LINE",
"166 688 LINE"
);
}
);
width = 525;
}
);
note = Lacute;
rightKerningGroup = L;
unicode = 0139;
},
{
glyphname = Lcaron;
lastChange = "2015-11-24 11:57:53 +0000";
layers = (
{
layerId = "1336773A-60E9-4881-855D-D55F9632DBDF";
name = "Light Italic";
paths = (
{
closed = 1;
nodes = (
"445 0 LINE",
"458 64 LINE",
"115 64 LINE",
"238 644 LINE",
"156 644 LINE",
"20 0 LINE"
);
},
{
closed = 1;
nodes = (
"431 568 LINE",
"511 745 LINE",
"437 745 LINE",
"371 568 LINE"
);
}
);
width = 525;
}
);
note = Lcaron;
rightKerningGroup = L;
unicode = 013D;
},
{
glyphname = Lcommaaccent;
lastChange = "2015-11-24 11:57:54 +0000";
layers = (
{
layerId = "1336773A-60E9-4881-855D-D55F9632DBDF";
name = "Light Italic";
paths = (
{
closed = 1;
nodes = (
"445 0 LINE",
"458 64 LINE",
"115 64 LINE",
"238 644 LINE",
"156 644 LINE",
"20 0 LINE"
);
},
{
closed = 1;
nodes = (
"185 -214 LINE",
"265 -37 LINE",
"191 -37 LINE",
"125 -214 LINE"
);
}
);
width = 525;
}
);
note = Lcommaaccent;
rightKerningGroup = L;
unicode = 013B;
},
{
glyphname = Ldot;
lastChange = "2015-11-24 11:57:52 +0000";
layers = (
{
layerId = "1336773A-60E9-4881-855D-D55F9632DBDF";
name = "Light Italic";
paths = (
{
closed = 1;
nodes = (
"445 0 LINE",
"458 64 LINE",
"115 64 LINE",
"238 644 LINE",
"156 644 LINE",
"20 0 LINE"
);
},
{
closed = 1;
nodes = (
"409 259 LINE",
"425 336 LINE",
"345 336 LINE",
"329 259 LINE"
);
}
);
width = 525;
}
);
note = Ldot;
rightKerningGroup = L;
unicode = 013F;
},
{
glyphname = Ldotbelow;
lastChange = "2015-11-24 11:57:53 +0000";
layers = (
{
layerId = "1336773A-60E9-4881-855D-D55F9632DBDF";
name = "Light Italic";
paths = (
{
closed = 1;
nodes = (
"445 0 LINE",
"458 64 LINE",
"115 64 LINE",
"238 644 LINE",
"156 644 LINE",
"20 0 LINE"
);
},
{
closed = 1;
nodes = (
"231 -164 LINE",
"247 -87 LINE",
"167 -87 LINE",
"151 -164 LINE"
);
}
);
width = 525;
}
);
note = Ldotbelow;
rightKerningGroup = L;
unicode = 1E36;
},
{
glyphname = Ldotbelowmacron;
lastChange = "2015-11-24 11:57:51 +0000";
layers = (
{
layerId = "1336773A-60E9-4881-855D-D55F9632DBDF";
name = "Light Italic";
paths = (
{
closed = 1;
nodes = (
"445 0 LINE",
"458 64 LINE",
"115 64 LINE",
"238 644 LINE",
"156 644 LINE",
"20 0 LINE"
);
},
{
closed = 1;
nodes = (
"231 -164 LINE",
"247 -87 LINE",
"167 -87 LINE",
"151 -164 LINE"
);
},
{
closed = 1;
nodes = (
"360 717 LINE",
"372 776 LINE",
"85 776 LINE",
"73 717 LINE"
);
}
);
width = 525;
}
);
note = Ldotbelowmacron;
rightKerningGroup = L;
unicode = 1E38;
},
{
glyphname = Llinebelow;
lastChange = "2015-11-24 11:57:53 +0000";
layers = (
{
layerId = "1336773A-60E9-4881-855D-D55F9632DBDF";
name = "Light Italic";
paths = (
{
closed = 1;
nodes = (
"445 0 LINE",
"458 64 LINE",
"115 64 LINE",
"238 644 LINE",
"156 644 LINE",
"20 0 LINE"
);
},
{
closed = 1;
nodes = (
"332 -132 LINE",
"344 -73 LINE",
"57 -73 LINE",
"45 -132 LINE"
);
}
);
width = 525;
}
);
note = Llinebelow;
rightKerningGroup = L;
unicode = 1E3A;
},
{
glyphname = Lslash;
lastChange = "2015-11-24 11:57:53 +0000";
layers = (
{
layerId = "1336773A-60E9-4881-855D-D55F9632DBDF";
name = "Light Italic";
paths = (
{
closed = 1;
nodes = (
"445 0 LINE",
"458 64 LINE",
"115 64 LINE",
"168 314 LINE",
"315 373 LINE",
"330 444 LINE",
"183 385 LINE",
"238 644 LINE",
"156 644 LINE",
"93 349 LINE",
"-16 305 LINE",
"-31 234 LINE",
"78 278 LINE",
"20 0 LINE"
);
}
);
width = 525;
}
);
note = Lslash;
rightKerningGroup = L;
unicode = 0141;
},
{
glyphname = M;
lastChange = "2015-11-24 11:57:54 +0000";
layers = (
{
layerId = "1336773A-60E9-4881-855D-D55F9632DBDF";
name = "Light Italic";
paths = (
{
closed = 1;
nodes = (
"101 0 LINE",
"210 516 LINE",
"322 112 LINE",
"377 112 LINE",
"660 516 LINE",
"551 0 LINE",
"632 0 LINE",
"768 644 LINE",
"676 644 LINE",
"363 197 LINE",
"240 644 LINE",
"156 644 LINE",
"20 0 LINE"
);
}
);
width = 752;
}
);
note = M;
unicode = 004D;
},
{
glyphname = Mdotbelow;
lastChange = "2015-11-24 11:57:52 +0000";
layers = (
{
layerId = "1336773A-60E9-4881-855D-D55F9632DBDF";
name = "Light Italic";
paths = (
{
closed = 1;
nodes = (
"101 0 LINE",
"210 516 LINE",
"322 112 LINE",
"377 112 LINE",
"660 516 LINE",
"551 0 LINE",
"632 0 LINE",
"768 644 LINE",
"676 644 LINE",
"363 197 LINE",
"240 644 LINE",
"156 644 LINE",
"20 0 LINE"
);
},
{
closed = 1;
nodes = (
"332 -164 LINE",
"348 -87 LINE",
"268 -87 LINE",
"252 -164 LINE"
);
}
);
width = 752;
}
);
note = Mdotbelow;
unicode = 1E42;
},
{
glyphname = N;
lastChange = "2015-11-24 11:57:51 +0000";
layers = (
{
layerId = "1336773A-60E9-4881-855D-D55F9632DBDF";
name = "Light Italic";
paths = (
{
closed = 1;
nodes = (
"102 0 LINE",
"211 517 LINE",
"468 0 LINE",
"543 0 LINE",
"679 644 LINE",
"597 644 LINE",
"487 126 LINE",
"230 644 LINE",
"156 644 LINE",
"20 0 LINE"
);
}
);
width = 663;
}
);
note = N;
unicode = 004E;
},
{
glyphname = Nacute;
lastChange = "2015-11-24 11:57:52 +0000";
layers = (
{
layerId = "1336773A-60E9-4881-855D-D55F9632DBDF";
name = "Light Italic";
paths = (
{
closed = 1;
nodes = (
"102 0 LINE",
"211 517 LINE",
"468 0 LINE",
"543 0 LINE",
"679 644 LINE",
"597 644 LINE",
"487 126 LINE",
"230 644 LINE",
"156 644 LINE",
"20 0 LINE"
);
},
{
closed = 1;
nodes = (
"458 688 LINE",
"573 856 LINE",
"499 856 LINE",
"392 688 LINE"
);
}
);
width = 663;
}
);
note = Nacute;
unicode = 0143;
},
{
glyphname = Ncaron;
lastChange = "2015-11-24 11:57:54 +0000";
layers = (
{
layerId = "1336773A-60E9-4881-855D-D55F9632DBDF";
name = "Light Italic";
paths = (
{
closed = 1;
nodes = (
"102 0 LINE",
"211 517 LINE",
"468 0 LINE",
"543 0 LINE",
"679 644 LINE",
"597 644 LINE",
"487 126 LINE",
"230 644 LINE",
"156 644 LINE",
"20 0 LINE"
);
},
{
closed = 1;
nodes = (
"475 688 LINE",
"621 836 LINE",
"547 836 LINE",
"448 734 LINE",
"393 836 LINE",
"326 836 LINE",
"409 688 LINE"
);
}
);
width = 663;
}
);
note = Ncaron;
unicode = 0147;
},
{
glyphname = Ncommaaccent;
lastChange = "2015-11-24 11:57:52 +0000";
layers = (
{
layerId = "1336773A-60E9-4881-855D-D55F9632DBDF";
name = "Light Italic";
paths = (
{
closed = 1;
nodes = (
"102 0 LINE",
"211 517 LINE",
"468 0 LINE",
"543 0 LINE",
"679 644 LINE",
"597 644 LINE",
"487 126 LINE",
"230 644 LINE",
"156 644 LINE",
"20 0 LINE"
);
},
{
closed = 1;
nodes = (
"243 -214 LINE",
"323 -37 LINE",
"249 -37 LINE",
"183 -214 LINE"
);
}
);
width = 663;
}
);
note = Ncommaaccent;
unicode = 0145;
},
{
glyphname = Ndotaccent;
lastChange = "2015-11-24 11:57:54 +0000";
layers = (
{
layerId = "1336773A-60E9-4881-855D-D55F9632DBDF";
name = "Light Italic";
paths = (
{
closed = 1;
nodes = (
"102 0 LINE",
"211 517 LINE",
"468 0 LINE",
"543 0 LINE",
"679 644 LINE",
"597 644 LINE",
"487 126 LINE",
"230 644 LINE",
"156 644 LINE",
"20 0 LINE"
);
},
{
closed = 1;
nodes = (
"485 710 LINE",
"501 787 LINE",
"421 787 LINE",
"405 710 LINE"
);
}
);
width = 663;
}
);
note = Ndotaccent;
unicode = 1E44;
},
{
glyphname = Ndotbelow;
lastChange = "2015-11-24 11:57:53 +0000";
layers = (
{
layerId = "1336773A-60E9-4881-855D-D55F9632DBDF";
name = "Light Italic";
paths = (
{
closed = 1;
nodes = (
"102 0 LINE",
"211 517 LINE",
"468 0 LINE",
"543 0 LINE",
"679 644 LINE",
"597 644 LINE",
"487 126 LINE",
"230 644 LINE",
"156 644 LINE",
"20 0 LINE"
);
},
{
closed = 1;
nodes = (
"287 -164 LINE",
"303 -87 LINE",
"223 -87 LINE",
"207 -164 LINE"
);
}
);
width = 663;
}
);
note = Ndotbelow;
unicode = 1E46;
},
{
glyphname = Eng;
lastChange = "2015-11-24 11:57:53 +0000";
layers = (
{
layerId = "1336773A-60E9-4881-855D-D55F9632DBDF";
name = "Light Italic";
paths = (
{
closed = 1;
nodes = (
"447 -234 OFFCURVE",
"504 -180 OFFCURVE",
"523 -94 CURVE SMOOTH",
"679 644 LINE",
"597 644 LINE",
"487 126 LINE",
"230 644 LINE",
"156 644 LINE",
"20 0 LINE",
"102 0 LINE",
"211 517 LINE",
"463 10 LINE",
"442 -87 LINE SMOOTH",
"430 -143 OFFCURVE",
"406 -165 OFFCURVE",
"334 -165 CURVE SMOOTH",
"317 -165 OFFCURVE",
"296 -162 OFFCURVE",
"276 -155 CURVE",
"262 -220 LINE",
"285 -229 OFFCURVE",
"315 -234 OFFCURVE",
"348 -234 CURVE SMOOTH"
);
}
);
width = 663;
}
);
note = Eng;
unicode = 014A;
},
{
glyphname = Nlinebelow;
lastChange = "2015-11-24 11:57:53 +0000";
layers = (
{
layerId = "1336773A-60E9-4881-855D-D55F9632DBDF";
name = "Light Italic";
paths = (
{
closed = 1;
nodes = (
"102 0 LINE",
"211 517 LINE",
"468 0 LINE",
"543 0 LINE",
"679 644 LINE",
"597 644 LINE",
"487 126 LINE",
"230 644 LINE",
"156 644 LINE",
"20 0 LINE"
);
},
{
closed = 1;
nodes = (
"403 -130 LINE",
"415 -71 LINE",
"128 -71 LINE",
"116 -130 LINE"
);
}
);
width = 663;
}
);
note = Nlinebelow;
unicode = 1E48;
},
{
glyphname = Ntilde;
lastChange = "2015-11-24 11:57:52 +0000";
layers = (
{
layerId = "1336773A-60E9-4881-855D-D55F9632DBDF";
name = "Light Italic";
paths = (
{
closed = 1;
nodes = (
"102 0 LINE",
"211 517 LINE",
"468 0 LINE",
"543 0 LINE",
"679 644 LINE",
"597 644 LINE",
"487 126 LINE",
"230 644 LINE",
"156 644 LINE",
"20 0 LINE"
);
},
{
closed = 1;
nodes = (
"538 708 OFFCURVE",
"571 720 OFFCURVE",
"588 738 CURVE",
"601 802 LINE",
"578 777 OFFCURVE",
"551 766 OFFCURVE",
"517 766 CURVE SMOOTH",
"468 766 OFFCURVE",
"436 804 OFFCURVE",
"381 804 CURVE SMOOTH",
"350 804 OFFCURVE",
"311 792 OFFCURVE",
"291 774 CURVE",
"278 711 LINE",
"305 737 OFFCURVE",
"336 746 OFFCURVE",
"368 746 CURVE SMOOTH",
"411 746 OFFCURVE",
"452 708 OFFCURVE",
"504 708 CURVE SMOOTH"
);
}
);
width = 663;
}
);
note = Ntilde;
unicode = 00D1;
},
{
glyphname = O;
lastChange = "2015-11-24 11:57:52 +0000";
layers = (
{
layerId = "1336773A-60E9-4881-855D-D55F9632DBDF";
name = "Light Italic";
paths = (
{
closed = 1;
nodes = (
"502 -10 OFFCURVE",
"613 91 OFFCURVE",
"662 322 CURVE SMOOTH",
"711 553 OFFCURVE",
"628 654 OFFCURVE",
"436 654 CURVE SMOOTH",
"224 654 OFFCURVE",
"117 553 OFFCURVE",
"68 322 CURVE SMOOTH",
"19 91 OFFCURVE",
"101 -10 OFFCURVE",
"294 -10 CURVE SMOOTH"
);
},
{
closed = 1;
nodes = (
"148 60 OFFCURVE",
"109 128 OFFCURVE",
"150 322 CURVE SMOOTH",
"191 516 OFFCURVE",
"275 584 OFFCURVE",
"421 584 CURVE SMOOTH",
"580 584 OFFCURVE",
"621 516 OFFCURVE",
"580 322 CURVE SMOOTH",
"539 128 OFFCURVE",
"455 60 OFFCURVE",
"309 60 CURVE SMOOTH"
);
}
);
width = 694;
}
);
leftKerningGroup = O;
note = O;
rightKerningGroup = O;
unicode = 004F;
},
{
glyphname = Oacute;
lastChange = "2015-11-24 11:57:52 +0000";
layers = (
{
layerId = "1336773A-60E9-4881-855D-D55F9632DBDF";
name = "Light Italic";
paths = (
{
closed = 1;
nodes = (
"502 -10 OFFCURVE",
"613 91 OFFCURVE",
"662 322 CURVE SMOOTH",
"711 553 OFFCURVE",
"628 654 OFFCURVE",
"436 654 CURVE SMOOTH",
"224 654 OFFCURVE",
"117 553 OFFCURVE",
"68 322 CURVE SMOOTH",
"19 91 OFFCURVE",
"101 -10 OFFCURVE",
"294 -10 CURVE SMOOTH"
);
},
{
closed = 1;
nodes = (
"148 60 OFFCURVE",
"109 128 OFFCURVE",
"150 322 CURVE SMOOTH",
"191 516 OFFCURVE",
"275 584 OFFCURVE",
"421 584 CURVE SMOOTH",
"580 584 OFFCURVE",
"621 516 OFFCURVE",
"580 322 CURVE SMOOTH",
"539 128 OFFCURVE",
"455 60 OFFCURVE",
"309 60 CURVE SMOOTH"
);
},
{
closed = 1;
nodes = (
"474 688 LINE",
"589 856 LINE",
"515 856 LINE",
"408 688 LINE"
);
}
);
width = 694;
}
);
leftKerningGroup = O;
note = Oacute;
rightKerningGroup = O;
unicode = 00D3;
},
{
glyphname = Obreve;
lastChange = "2015-11-24 11:57:53 +0000";
layers = (
{
layerId = "1336773A-60E9-4881-855D-D55F9632DBDF";
name = "Light Italic";
paths = (
{
closed = 1;
nodes = (
"502 -10 OFFCURVE",
"613 91 OFFCURVE",
"662 322 CURVE SMOOTH",
"711 553 OFFCURVE",
"628 654 OFFCURVE",
"436 654 CURVE SMOOTH",
"224 654 OFFCURVE",
"117 553 OFFCURVE",
"68 322 CURVE SMOOTH",
"19 91 OFFCURVE",
"101 -10 OFFCURVE",
"294 -10 CURVE SMOOTH"
);
},
{
closed = 1;
nodes = (
"148 60 OFFCURVE",
"109 128 OFFCURVE",
"150 322 CURVE SMOOTH",
"191 516 OFFCURVE",
"275 584 OFFCURVE",
"421 584 CURVE SMOOTH",
"580 584 OFFCURVE",
"621 516 OFFCURVE",
"580 322 CURVE SMOOTH",
"539 128 OFFCURVE",
"455 60 OFFCURVE",
"309 60 CURVE SMOOTH"
);
},
{
closed = 1;
nodes = (
"534 688 OFFCURVE",
"580 739 OFFCURVE",
"596 814 CURVE",
"535 814 LINE",
"524 763 OFFCURVE",
"494 740 OFFCURVE",
"450 740 CURVE SMOOTH",
"403 740 OFFCURVE",
"386 763 OFFCURVE",
"397 814 CURVE",
"342 814 LINE",
"327 739 OFFCURVE",
"358 688 OFFCURVE",
"441 688 CURVE SMOOTH"
);
}
);
width = 694;
}
);
leftKerningGroup = O;
note = Obreve;
rightKerningGroup = O;
unicode = 014E;
},
{
glyphname = Ocaron;
lastChange = "2015-11-24 11:57:51 +0000";
layers = (
{
layerId = "1336773A-60E9-4881-855D-D55F9632DBDF";
name = "Light Italic";
paths = (
{
closed = 1;
nodes = (
"502 -10 OFFCURVE",
"613 91 OFFCURVE",
"662 322 CURVE SMOOTH",
"711 553 OFFCURVE",
"628 654 OFFCURVE",
"436 654 CURVE SMOOTH",
"224 654 OFFCURVE",
"117 553 OFFCURVE",
"68 322 CURVE SMOOTH",
"19 91 OFFCURVE",
"101 -10 OFFCURVE",
"294 -10 CURVE SMOOTH"
);
},
{
closed = 1;
nodes = (
"148 60 OFFCURVE",
"109 128 OFFCURVE",
"150 322 CURVE SMOOTH",
"191 516 OFFCURVE",
"275 584 OFFCURVE",
"421 584 CURVE SMOOTH",
"580 584 OFFCURVE",
"621 516 OFFCURVE",
"580 322 CURVE SMOOTH",
"539 128 OFFCURVE",
"455 60 OFFCURVE",
"309 60 CURVE SMOOTH"
);
},
{
closed = 1;
nodes = (
"476 688 LINE",
"622 836 LINE",
"548 836 LINE",
"449 734 LINE",
"394 836 LINE",
"327 836 LINE",
"410 688 LINE"
);
}
);
width = 694;
}
);
leftKerningGroup = O;
note = Ocaron;
rightKerningGroup = O;
unicode = 01D1;
},
{
glyphname = Ocircumflex;
lastChange = "2015-11-24 11:57:54 +0000";
layers = (
{
layerId = "1336773A-60E9-4881-855D-D55F9632DBDF";
name = "Light Italic";
paths = (
{
closed = 1;
nodes = (
"502 -10 OFFCURVE",
"613 91 OFFCURVE",
"662 322 CURVE SMOOTH",
"711 553 OFFCURVE",
"628 654 OFFCURVE",
"436 654 CURVE SMOOTH",
"224 654 OFFCURVE",
"117 553 OFFCURVE",
"68 322 CURVE SMOOTH",
"19 91 OFFCURVE",
"101 -10 OFFCURVE",
"294 -10 CURVE SMOOTH"
);
},
{
closed = 1;
nodes = (
"148 60 OFFCURVE",
"109 128 OFFCURVE",
"150 322 CURVE SMOOTH",
"191 516 OFFCURVE",
"275 584 OFFCURVE",
"421 584 CURVE SMOOTH",
"580 584 OFFCURVE",
"621 516 OFFCURVE",
"580 322 CURVE SMOOTH",
"539 128 OFFCURVE",
"455 60 OFFCURVE",
"309 60 CURVE SMOOTH"
);
},
{
closed = 1;
nodes = (
"369 688 LINE",
"467 790 LINE",
"523 688 LINE",
"591 688 LINE",
"507 836 LINE",
"441 836 LINE",
"296 688 LINE"
);
}
);
width = 694;
}
);
leftKerningGroup = O;
note = Ocircumflex;
rightKerningGroup = O;
unicode = 00D4;
},
{
glyphname = Ocircumflexacute;
lastChange = "2015-11-24 11:57:51 +0000";
layers = (
{
layerId = "1336773A-60E9-4881-855D-D55F9632DBDF";
name = "Light Italic";
paths = (
{
closed = 1;
nodes = (
"502 -10 OFFCURVE",
"613 91 OFFCURVE",
"662 322 CURVE SMOOTH",
"711 553 OFFCURVE",
"628 654 OFFCURVE",
"436 654 CURVE SMOOTH",
"224 654 OFFCURVE",
"117 553 OFFCURVE",
"68 322 CURVE SMOOTH",
"19 91 OFFCURVE",
"101 -10 OFFCURVE",
"294 -10 CURVE SMOOTH"
);
},
{
closed = 1;
nodes = (
"148 60 OFFCURVE",
"109 128 OFFCURVE",
"150 322 CURVE SMOOTH",
"191 516 OFFCURVE",
"275 584 OFFCURVE",
"421 584 CURVE SMOOTH",
"580 584 OFFCURVE",
"621 516 OFFCURVE",
"580 322 CURVE SMOOTH",
"539 128 OFFCURVE",
"455 60 OFFCURVE",
"309 60 CURVE SMOOTH"
);
},
{
closed = 1;
nodes = (
"375 688 LINE",
"467 771 LINE",
"524 688 LINE",
"591 688 LINE",
"505 806 LINE",
"439 806 LINE",
"303 688 LINE"
);
},
{
closed = 1;
nodes = (
"609 797 LINE",
"703 922 LINE",
"638 922 LINE",
"550 797 LINE"
);
}
);
width = 694;
}
);
leftKerningGroup = O;
note = Ocircumflexacute;
rightKerningGroup = O;
unicode = 1ED0;
},
{
glyphname = Ocircumflexdotbelow;
lastChange = "2015-11-24 11:57:52 +0000";
layers = (
{
layerId = "1336773A-60E9-4881-855D-D55F9632DBDF";
name = "Light Italic";
paths = (
{
closed = 1;
nodes = (
"502 -10 OFFCURVE",
"613 91 OFFCURVE",
"662 322 CURVE SMOOTH",
"711 553 OFFCURVE",
"628 654 OFFCURVE",
"436 654 CURVE SMOOTH",
"224 654 OFFCURVE",
"117 553 OFFCURVE",
"68 322 CURVE SMOOTH",
"19 91 OFFCURVE",
"101 -10 OFFCURVE",
"294 -10 CURVE SMOOTH"
);
},
{
closed = 1;
nodes = (
"148 60 OFFCURVE",
"109 128 OFFCURVE",
"150 322 CURVE SMOOTH",
"191 516 OFFCURVE",
"275 584 OFFCURVE",
"421 584 CURVE SMOOTH",
"580 584 OFFCURVE",
"621 516 OFFCURVE",
"580 322 CURVE SMOOTH",
"539 128 OFFCURVE",
"455 60 OFFCURVE",
"309 60 CURVE SMOOTH"
);
},
{
closed = 1;
nodes = (
"303 -164 LINE",
"319 -87 LINE",
"239 -87 LINE",
"223 -164 LINE"
);
},
{
closed = 1;
nodes = (
"369 688 LINE",
"467 790 LINE",
"523 688 LINE",
"591 688 LINE",
"507 836 LINE",
"441 836 LINE",
"296 688 LINE"
);
}
);
width = 694;
}
);
leftKerningGroup = O;
note = Ocircumflexdotbelow;
rightKerningGroup = O;
unicode = 1ED8;
},
{
glyphname = Ocircumflexgrave;
lastChange = "2015-11-24 11:57:54 +0000";
layers = (
{
layerId = "1336773A-60E9-4881-855D-D55F9632DBDF";
name = "Light Italic";
paths = (
{
closed = 1;
nodes = (
"502 -10 OFFCURVE",
"613 91 OFFCURVE",
"662 322 CURVE SMOOTH",
"711 553 OFFCURVE",
"628 654 OFFCURVE",
"436 654 CURVE SMOOTH",
"224 654 OFFCURVE",
"117 553 OFFCURVE",
"68 322 CURVE SMOOTH",
"19 91 OFFCURVE",
"101 -10 OFFCURVE",
"294 -10 CURVE SMOOTH"
);
},
{
closed = 1;
nodes = (
"148 60 OFFCURVE",
"109 128 OFFCURVE",
"150 322 CURVE SMOOTH",
"191 516 OFFCURVE",
"275 584 OFFCURVE",
"421 584 CURVE SMOOTH",
"580 584 OFFCURVE",
"621 516 OFFCURVE",
"580 322 CURVE SMOOTH",
"539 128 OFFCURVE",
"455 60 OFFCURVE",
"309 60 CURVE SMOOTH"
);
},
{
closed = 1;
nodes = (
"358 688 LINE",
"451 771 LINE",
"507 688 LINE",
"574 688 LINE",
"489 806 LINE",
"423 806 LINE",
"287 688 LINE"
);
},
{
closed = 1;
nodes = (
"374 797 LINE",
"339 922 LINE",
"274 922 LINE",
"315 797 LINE"
);
}
);
width = 694;
}
);
leftKerningGroup = O;
note = Ocircumflexgrave;
rightKerningGroup = O;
unicode = 1ED2;
},
{
glyphname = Ocircumflexhookabove;
lastChange = "2015-11-24 11:57:54 +0000";
layers = (
{
layerId = "1336773A-60E9-4881-855D-D55F9632DBDF";
name = "Light Italic";
paths = (
{
closed = 1;
nodes = (
"502 -10 OFFCURVE",
"613 91 OFFCURVE",
"662 322 CURVE SMOOTH",
"711 553 OFFCURVE",
"628 654 OFFCURVE",
"436 654 CURVE SMOOTH",
"224 654 OFFCURVE",
"117 553 OFFCURVE",
"68 322 CURVE SMOOTH",
"19 91 OFFCURVE",
"101 -10 OFFCURVE",
"294 -10 CURVE SMOOTH"
);
},
{
closed = 1;
nodes = (
"148 60 OFFCURVE",
"109 128 OFFCURVE",
"150 322 CURVE SMOOTH",
"191 516 OFFCURVE",
"275 584 OFFCURVE",
"421 584 CURVE SMOOTH",
"580 584 OFFCURVE",
"621 516 OFFCURVE",
"580 322 CURVE SMOOTH",
"539 128 OFFCURVE",
"455 60 OFFCURVE",
"309 60 CURVE SMOOTH"
);
},
{
closed = 1;
nodes = (
"370 688 LINE",
"462 771 LINE",
"519 688 LINE",
"586 688 LINE",
"500 806 LINE",
"434 806 LINE",
"298 688 LINE"
);
},
{
closed = 1;
nodes = (
"609 776 LINE",
"616 811 LINE",
"673 818 OFFCURVE",
"702 842 OFFCURVE",
"711 885 CURVE SMOOTH",
"721 932 OFFCURVE",
"691 960 OFFCURVE",
"631 960 CURVE SMOOTH",
"601 960 OFFCURVE",
"578 955 OFFCURVE",
"558 948 CURVE",
"549 905 LINE",
"567 912 OFFCURVE",
"586 917 OFFCURVE",
"608 917 CURVE SMOOTH",
"642 917 OFFCURVE",
"656 906 OFFCURVE",
"650 881 CURVE",
"645 855 OFFCURVE",
"629 842 OFFCURVE",
"562 839 CURVE",
"549 776 LINE"
);
}
);
width = 694;
}
);
leftKerningGroup = O;
note = Ocircumflexhookabove;
rightKerningGroup = O;
unicode = 1ED4;
},
{
glyphname = Ocircumflextilde;
lastChange = "2015-11-24 11:57:54 +0000";
layers = (
{
layerId = "1336773A-60E9-4881-855D-D55F9632DBDF";
name = "Light Italic";
paths = (
{
closed = 1;
nodes = (
"502 -10 OFFCURVE",
"613 91 OFFCURVE",
"662 322 CURVE SMOOTH",
"711 553 OFFCURVE",
"628 654 OFFCURVE",
"436 654 CURVE SMOOTH",
"224 654 OFFCURVE",
"117 553 OFFCURVE",
"68 322 CURVE SMOOTH",
"19 91 OFFCURVE",
"101 -10 OFFCURVE",
"294 -10 CURVE SMOOTH"
);
},
{
closed = 1;
nodes = (
"148 60 OFFCURVE",
"109 128 OFFCURVE",
"150 322 CURVE SMOOTH",
"191 516 OFFCURVE",
"275 584 OFFCURVE",
"421 584 CURVE SMOOTH",
"580 584 OFFCURVE",
"621 516 OFFCURVE",
"580 322 CURVE SMOOTH",
"539 128 OFFCURVE",
"455 60 OFFCURVE",
"309 60 CURVE SMOOTH"
);
},
{
closed = 1;
nodes = (
"527 688 OFFCURVE",
"598 726 OFFCURVE",
"620 828 CURVE",
"567 828 LINE",
"554 766 OFFCURVE",
"513 736 OFFCURVE",
"452 736 CURVE SMOOTH",
"382 736 OFFCURVE",
"364 766 OFFCURVE",
"377 828 CURVE",
"326 828 LINE",
"307 728 OFFCURVE",
"363 688 OFFCURVE",
"443 688 CURVE SMOOTH"
);
},
{
closed = 1;
nodes = (
"579 849 OFFCURVE",
"609 860 OFFCURVE",
"624 876 CURVE",
"636 933 LINE",
"614 910 OFFCURVE",
"589 900 OFFCURVE",
"558 900 CURVE SMOOTH",
"513 900 OFFCURVE",
"484 935 OFFCURVE",
"433 935 CURVE SMOOTH",
"405 935 OFFCURVE",
"369 924 OFFCURVE",
"351 908 CURVE",
"339 852 LINE",
"364 876 OFFCURVE",
"393 884 OFFCURVE",
"422 884 CURVE SMOOTH",
"462 884 OFFCURVE",
"500 849 OFFCURVE",
"548 849 CURVE SMOOTH"
);
}
);
width = 694;
}
);
leftKerningGroup = O;
note = Ocircumflextilde;
rightKerningGroup = O;
unicode = 1ED6;
},
{
glyphname = Odieresis;
lastChange = "2015-11-24 11:57:53 +0000";
layers = (
{
layerId = "1336773A-60E9-4881-855D-D55F9632DBDF";
name = "Light Italic";
paths = (
{
closed = 1;
nodes = (
"502 -10 OFFCURVE",
"613 91 OFFCURVE",
"662 322 CURVE SMOOTH",
"711 553 OFFCURVE",
"628 654 OFFCURVE",
"436 654 CURVE SMOOTH",
"224 654 OFFCURVE",
"117 553 OFFCURVE",
"68 322 CURVE SMOOTH",
"19 91 OFFCURVE",
"101 -10 OFFCURVE",
"294 -10 CURVE SMOOTH"
);
},
{
closed = 1;
nodes = (
"148 60 OFFCURVE",
"109 128 OFFCURVE",
"150 322 CURVE SMOOTH",
"191 516 OFFCURVE",
"275 584 OFFCURVE",
"421 584 CURVE SMOOTH",
"580 584 OFFCURVE",
"621 516 OFFCURVE",
"580 322 CURVE SMOOTH",
"539 128 OFFCURVE",
"455 60 OFFCURVE",
"309 60 CURVE SMOOTH"
);
},
{
closed = 1;
nodes = (
"398 711 LINE",
"414 786 LINE",
"337 786 LINE",
"321 711 LINE"
);
},
{
closed = 1;
nodes = (
"574 711 LINE",
"590 786 LINE",
"512 786 LINE",
"496 711 LINE"
);
}
);
width = 694;
}
);
leftKerningGroup = O;
note = Odieresis;
rightKerningGroup = O;
unicode = 00D6;
},
{
glyphname = Odotbelow;
lastChange = "2015-11-24 11:57:53 +0000";
layers = (
{
layerId = "1336773A-60E9-4881-855D-D55F9632DBDF";
name = "Light Italic";
paths = (
{
closed = 1;
nodes = (
"502 -10 OFFCURVE",
"613 91 OFFCURVE",
"662 322 CURVE SMOOTH",
"711 553 OFFCURVE",
"628 654 OFFCURVE",
"436 654 CURVE SMOOTH",
"224 654 OFFCURVE",
"117 553 OFFCURVE",
"68 322 CURVE SMOOTH",
"19 91 OFFCURVE",
"101 -10 OFFCURVE",
"294 -10 CURVE SMOOTH"
);
},
{
closed = 1;
nodes = (
"148 60 OFFCURVE",
"109 128 OFFCURVE",
"150 322 CURVE SMOOTH",
"191 516 OFFCURVE",
"275 584 OFFCURVE",
"421 584 CURVE SMOOTH",
"580 584 OFFCURVE",
"621 516 OFFCURVE",
"580 322 CURVE SMOOTH",
"539 128 OFFCURVE",
"455 60 OFFCURVE",
"309 60 CURVE SMOOTH"
);
},
{
closed = 1;
nodes = (
"303 -164 LINE",
"319 -87 LINE",
"239 -87 LINE",
"223 -164 LINE"
);
}
);
width = 694;
}
);
leftKerningGroup = O;
note = Odotbelow;
rightKerningGroup = O;
unicode = 1ECC;
},
{
glyphname = Ograve;
lastChange = "2015-11-24 11:57:53 +0000";
layers = (
{
layerId = "1336773A-60E9-4881-855D-D55F9632DBDF";
name = "Light Italic";
paths = (
{
closed = 1;
nodes = (
"502 -10 OFFCURVE",
"613 91 OFFCURVE",
"662 322 CURVE SMOOTH",
"711 553 OFFCURVE",
"628 654 OFFCURVE",
"436 654 CURVE SMOOTH",
"224 654 OFFCURVE",
"117 553 OFFCURVE",
"68 322 CURVE SMOOTH",
"19 91 OFFCURVE",
"101 -10 OFFCURVE",
"294 -10 CURVE SMOOTH"
);
},
{
closed = 1;
nodes = (
"148 60 OFFCURVE",
"109 128 OFFCURVE",
"150 322 CURVE SMOOTH",
"191 516 OFFCURVE",
"275 584 OFFCURVE",
"421 584 CURVE SMOOTH",
"580 584 OFFCURVE",
"621 516 OFFCURVE",
"580 322 CURVE SMOOTH",
"539 128 OFFCURVE",
"455 60 OFFCURVE",
"309 60 CURVE SMOOTH"
);
},
{
closed = 1;
nodes = (
"482 688 LINE",
"447 856 LINE",
"373 856 LINE",
"416 688 LINE"
);
}
);
width = 694;
}
);
leftKerningGroup = O;
note = Ograve;
rightKerningGroup = O;
unicode = 00D2;
},
{
glyphname = Ohookabove;
lastChange = "2015-11-24 11:57:54 +0000";
layers = (
{
layerId = "1336773A-60E9-4881-855D-D55F9632DBDF";
name = "Light Italic";
paths = (
{
closed = 1;
nodes = (
"502 -10 OFFCURVE",
"613 91 OFFCURVE",
"662 322 CURVE SMOOTH",
"711 553 OFFCURVE",
"628 654 OFFCURVE",
"436 654 CURVE SMOOTH",
"224 654 OFFCURVE",
"117 553 OFFCURVE",
"68 322 CURVE SMOOTH",
"19 91 OFFCURVE",
"101 -10 OFFCURVE",
"294 -10 CURVE SMOOTH"
);
},
{
closed = 1;
nodes = (
"148 60 OFFCURVE",
"109 128 OFFCURVE",
"150 322 CURVE SMOOTH",
"191 516 OFFCURVE",
"275 584 OFFCURVE",
"421 584 CURVE SMOOTH",
"580 584 OFFCURVE",
"621 516 OFFCURVE",
"580 322 CURVE SMOOTH",
"539 128 OFFCURVE",
"455 60 OFFCURVE",
"309 60 CURVE SMOOTH"
);
},
{
closed = 1;
nodes = (
"478 688 LINE",
"488 736 LINE",
"557 745 OFFCURVE",
"585 775 OFFCURVE",
"597 829 CURVE SMOOTH",
"609 886 OFFCURVE",
"567 920 OFFCURVE",
"495 920 CURVE SMOOTH",
"466 920 OFFCURVE",
"429 915 OFFCURVE",
"407 907 CURVE",
"397 856 LINE",
"415 863 OFFCURVE",
"444 868 OFFCURVE",
"465 868 CURVE SMOOTH",
"524 868 OFFCURVE",
"541 856 OFFCURVE",
"534 823 CURVE SMOOTH",
"526 788 OFFCURVE",
"508 775 OFFCURVE",
"430 771 CURVE",
"412 688 LINE"
);
}
);
width = 694;
}
);
leftKerningGroup = O;
note = Ohookabove;
rightKerningGroup = O;
unicode = 1ECE;
},
{
glyphname = Ohorn;
lastChange = "2015-11-24 11:57:53 +0000";
layers = (
{
layerId = "1336773A-60E9-4881-855D-D55F9632DBDF";
name = "Light Italic";
paths = (
{
closed = 1;
nodes = (
"502 -10 OFFCURVE",
"613 91 OFFCURVE",
"662 322 CURVE SMOOTH",
"678 398 OFFCURVE",
"680 460 OFFCURVE",
"668 509 CURVE",
"752 521 OFFCURVE",
"810 570 OFFCURVE",
"836 688 CURVE",
"765 688 LINE",
"746 600 OFFCURVE",
"716 574 OFFCURVE",
"640 573 CURVE",
"602 628 OFFCURVE",
"533 654 OFFCURVE",
"436 654 CURVE SMOOTH",
"224 654 OFFCURVE",
"117 553 OFFCURVE",
"68 322 CURVE SMOOTH",
"19 91 OFFCURVE",
"101 -10 OFFCURVE",
"294 -10 CURVE SMOOTH"
);
},
{
closed = 1;
nodes = (
"148 60 OFFCURVE",
"109 128 OFFCURVE",
"150 322 CURVE SMOOTH",
"191 516 OFFCURVE",
"275 584 OFFCURVE",
"421 584 CURVE SMOOTH",
"580 584 OFFCURVE",
"621 516 OFFCURVE",
"580 322 CURVE SMOOTH",
"539 128 OFFCURVE",
"455 60 OFFCURVE",
"309 60 CURVE SMOOTH"
);
}
);
width = 760;
}
);
leftKerningGroup = O;
note = Ohorn;
rightKerningGroup = O;
unicode = 01A0;
},
{
glyphname = Ohornacute;
lastChange = "2015-11-24 11:57:54 +0000";
layers = (
{
layerId = "1336773A-60E9-4881-855D-D55F9632DBDF";
name = "Light Italic";
paths = (
{
closed = 1;
nodes = (
"502 -10 OFFCURVE",
"613 91 OFFCURVE",
"662 322 CURVE SMOOTH",
"678 398 OFFCURVE",
"680 460 OFFCURVE",
"668 509 CURVE",
"752 521 OFFCURVE",
"810 570 OFFCURVE",
"836 688 CURVE",
"765 688 LINE",
"746 600 OFFCURVE",
"716 574 OFFCURVE",
"640 573 CURVE",
"602 628 OFFCURVE",
"533 654 OFFCURVE",
"436 654 CURVE SMOOTH",
"224 654 OFFCURVE",
"117 553 OFFCURVE",
"68 322 CURVE SMOOTH",
"19 91 OFFCURVE",
"101 -10 OFFCURVE",
"294 -10 CURVE SMOOTH"
);
},
{
closed = 1;
nodes = (
"148 60 OFFCURVE",
"109 128 OFFCURVE",
"150 322 CURVE SMOOTH",
"191 516 OFFCURVE",
"275 584 OFFCURVE",
"421 584 CURVE SMOOTH",
"580 584 OFFCURVE",
"621 516 OFFCURVE",
"580 322 CURVE SMOOTH",
"539 128 OFFCURVE",
"455 60 OFFCURVE",
"309 60 CURVE SMOOTH"
);
},
{
closed = 1;
nodes = (
"487 688 LINE",
"602 856 LINE",
"528 856 LINE",
"421 688 LINE"
);
}
);
width = 760;
}
);
leftKerningGroup = O;
note = Ohornacute;
rightKerningGroup = O;
unicode = 1EDA;
},
{
glyphname = Ohorndotbelow;
lastChange = "2015-11-24 11:57:54 +0000";
layers = (
{
layerId = "1336773A-60E9-4881-855D-D55F9632DBDF";
name = "Light Italic";
paths = (
{
closed = 1;
nodes = (
"502 -10 OFFCURVE",
"613 91 OFFCURVE",
"662 322 CURVE SMOOTH",
"678 398 OFFCURVE",
"680 460 OFFCURVE",
"668 509 CURVE",
"752 521 OFFCURVE",
"810 570 OFFCURVE",
"836 688 CURVE",
"765 688 LINE",
"746 600 OFFCURVE",
"716 574 OFFCURVE",
"640 573 CURVE",
"602 628 OFFCURVE",
"533 654 OFFCURVE",
"436 654 CURVE SMOOTH",
"224 654 OFFCURVE",
"117 553 OFFCURVE",
"68 322 CURVE SMOOTH",
"19 91 OFFCURVE",
"101 -10 OFFCURVE",
"294 -10 CURVE SMOOTH"
);
},
{
closed = 1;
nodes = (
"148 60 OFFCURVE",
"109 128 OFFCURVE",
"150 322 CURVE SMOOTH",
"191 516 OFFCURVE",
"275 584 OFFCURVE",
"421 584 CURVE SMOOTH",
"580 584 OFFCURVE",
"621 516 OFFCURVE",
"580 322 CURVE SMOOTH",
"539 128 OFFCURVE",
"455 60 OFFCURVE",
"309 60 CURVE SMOOTH"
);
},
{
closed = 1;
nodes = (
"307 -164 LINE",
"323 -87 LINE",
"243 -87 LINE",
"227 -164 LINE"
);
}
);
width = 760;
}
);
leftKerningGroup = O;
note = Ohorndotbelow;
rightKerningGroup = O;
unicode = 1EE2;
},
{
glyphname = Ohorngrave;
lastChange = "2015-11-24 11:57:53 +0000";
layers = (
{
layerId = "1336773A-60E9-4881-855D-D55F9632DBDF";
name = "Light Italic";
paths = (
{
closed = 1;
nodes = (
"502 -10 OFFCURVE",
"613 91 OFFCURVE",
"662 322 CURVE SMOOTH",
"678 398 OFFCURVE",
"680 460 OFFCURVE",
"668 509 CURVE",
"752 521 OFFCURVE",
"810 570 OFFCURVE",
"836 688 CURVE",
"765 688 LINE",
"746 600 OFFCURVE",
"716 574 OFFCURVE",
"640 573 CURVE",
"602 628 OFFCURVE",
"533 654 OFFCURVE",
"436 654 CURVE SMOOTH",
"224 654 OFFCURVE",
"117 553 OFFCURVE",
"68 322 CURVE SMOOTH",
"19 91 OFFCURVE",
"101 -10 OFFCURVE",
"294 -10 CURVE SMOOTH"
);
},
{
closed = 1;
nodes = (
"148 60 OFFCURVE",
"109 128 OFFCURVE",
"150 322 CURVE SMOOTH",
"191 516 OFFCURVE",
"275 584 OFFCURVE",
"421 584 CURVE SMOOTH",
"580 584 OFFCURVE",
"621 516 OFFCURVE",
"580 322 CURVE SMOOTH",
"539 128 OFFCURVE",
"455 60 OFFCURVE",
"309 60 CURVE SMOOTH"
);
},
{
closed = 1;
nodes = (
"493 688 LINE",
"458 856 LINE",
"384 856 LINE",
"427 688 LINE"
);
}
);
width = 760;
}
);
leftKerningGroup = O;
note = Ohorngrave;
rightKerningGroup = O;
unicode = 1EDC;
},
{
glyphname = Ohornhookabove;
lastChange = "2015-11-24 11:57:52 +0000";
layers = (
{
layerId = "1336773A-60E9-4881-855D-D55F9632DBDF";
name = "Light Italic";
paths = (
{
closed = 1;
nodes = (
"502 -10 OFFCURVE",
"613 91 OFFCURVE",
"662 322 CURVE SMOOTH",
"678 398 OFFCURVE",
"680 460 OFFCURVE",
"668 509 CURVE",
"752 521 OFFCURVE",
"810 570 OFFCURVE",
"836 688 CURVE",
"765 688 LINE",
"746 600 OFFCURVE",
"716 574 OFFCURVE",
"640 573 CURVE",
"602 628 OFFCURVE",
"533 654 OFFCURVE",
"436 654 CURVE SMOOTH",
"224 654 OFFCURVE",
"117 553 OFFCURVE",
"68 322 CURVE SMOOTH",
"19 91 OFFCURVE",
"101 -10 OFFCURVE",
"294 -10 CURVE SMOOTH"
);
},
{
closed = 1;
nodes = (
"148 60 OFFCURVE",
"109 128 OFFCURVE",
"150 322 CURVE SMOOTH",
"191 516 OFFCURVE",
"275 584 OFFCURVE",
"421 584 CURVE SMOOTH",
"580 584 OFFCURVE",
"621 516 OFFCURVE",
"580 322 CURVE SMOOTH",
"539 128 OFFCURVE",
"455 60 OFFCURVE",
"309 60 CURVE SMOOTH"
);
},
{
closed = 1;
nodes = (
"484 688 LINE",
"494 736 LINE",
"563 745 OFFCURVE",
"591 775 OFFCURVE",
"603 829 CURVE SMOOTH",
"615 886 OFFCURVE",
"573 920 OFFCURVE",
"501 920 CURVE SMOOTH",
"472 920 OFFCURVE",
"435 915 OFFCURVE",
"413 907 CURVE",
"403 856 LINE",
"421 863 OFFCURVE",
"450 868 OFFCURVE",
"471 868 CURVE SMOOTH",
"530 868 OFFCURVE",
"547 856 OFFCURVE",
"540 823 CURVE SMOOTH",
"532 788 OFFCURVE",
"514 775 OFFCURVE",
"436 771 CURVE",
"418 688 LINE"
);
}
);
width = 760;
}
);
leftKerningGroup = O;
note = Ohornhookabove;
rightKerningGroup = O;
unicode = 1EDE;
},
{
glyphname = Ohorntilde;
lastChange = "2015-11-24 11:57:53 +0000";
layers = (
{
layerId = "1336773A-60E9-4881-855D-D55F9632DBDF";
name = "Light Italic";
paths = (
{
closed = 1;
nodes = (
"502 -10 OFFCURVE",
"613 91 OFFCURVE",
"662 322 CURVE SMOOTH",
"678 398 OFFCURVE",
"680 460 OFFCURVE",
"668 509 CURVE",
"752 521 OFFCURVE",
"810 570 OFFCURVE",
"836 688 CURVE",
"765 688 LINE",
"746 600 OFFCURVE",
"716 574 OFFCURVE",
"640 573 CURVE",
"602 628 OFFCURVE",
"533 654 OFFCURVE",
"436 654 CURVE SMOOTH",
"224 654 OFFCURVE",
"117 553 OFFCURVE",
"68 322 CURVE SMOOTH",
"19 91 OFFCURVE",
"101 -10 OFFCURVE",
"294 -10 CURVE SMOOTH"
);
},
{
closed = 1;
nodes = (
"148 60 OFFCURVE",
"109 128 OFFCURVE",
"150 322 CURVE SMOOTH",
"191 516 OFFCURVE",
"275 584 OFFCURVE",
"421 584 CURVE SMOOTH",
"580 584 OFFCURVE",
"621 516 OFFCURVE",
"580 322 CURVE SMOOTH",
"539 128 OFFCURVE",
"455 60 OFFCURVE",
"309 60 CURVE SMOOTH"
);
},
{
closed = 1;
nodes = (
"572 707 OFFCURVE",
"605 719 OFFCURVE",
"622 737 CURVE",
"635 801 LINE",
"612 776 OFFCURVE",
"585 765 OFFCURVE",
"551 765 CURVE SMOOTH",
"502 765 OFFCURVE",
"470 803 OFFCURVE",
"415 803 CURVE SMOOTH",
"384 803 OFFCURVE",
"345 791 OFFCURVE",
"325 773 CURVE",
"312 710 LINE",
"339 736 OFFCURVE",
"370 745 OFFCURVE",
"402 745 CURVE SMOOTH",
"445 745 OFFCURVE",
"486 707 OFFCURVE",
"538 707 CURVE SMOOTH"
);
}
);
width = 760;
}
);
leftKerningGroup = O;
note = Ohorntilde;
rightKerningGroup = O;
unicode = 1EE0;
},
{
glyphname = Ohungarumlaut;
lastChange = "2015-11-24 11:57:54 +0000";
layers = (
{
layerId = "1336773A-60E9-4881-855D-D55F9632DBDF";
name = "Light Italic";
paths = (
{
closed = 1;
nodes = (
"502 -10 OFFCURVE",
"613 91 OFFCURVE",
"662 322 CURVE SMOOTH",
"711 553 OFFCURVE",
"628 654 OFFCURVE",
"436 654 CURVE SMOOTH",
"224 654 OFFCURVE",
"117 553 OFFCURVE",
"68 322 CURVE SMOOTH",
"19 91 OFFCURVE",
"101 -10 OFFCURVE",
"294 -10 CURVE SMOOTH"
);
},
{
closed = 1;
nodes = (
"148 60 OFFCURVE",
"109 128 OFFCURVE",
"150 322 CURVE SMOOTH",
"191 516 OFFCURVE",
"275 584 OFFCURVE",
"421 584 CURVE SMOOTH",
"580 584 OFFCURVE",
"621 516 OFFCURVE",
"580 322 CURVE SMOOTH",
"539 128 OFFCURVE",
"455 60 OFFCURVE",
"309 60 CURVE SMOOTH"
);
},
{
closed = 1;
nodes = (
"353 688 LINE",
"465 840 LINE",
"387 840 LINE",
"285 688 LINE"
);
},
{
closed = 1;
nodes = (
"558 688 LINE",
"671 840 LINE",
"593 840 LINE",
"490 688 LINE"
);
}
);
width = 694;
}
);
leftKerningGroup = O;
note = Ohungarumlaut;
rightKerningGroup = O;
unicode = 0150;
},
{
glyphname = Omacron;
lastChange = "2015-11-24 11:57:52 +0000";
layers = (
{
layerId = "1336773A-60E9-4881-855D-D55F9632DBDF";
name = "Light Italic";
paths = (
{
closed = 1;
nodes = (
"502 -10 OFFCURVE",
"613 91 OFFCURVE",
"662 322 CURVE SMOOTH",
"711 553 OFFCURVE",
"628 654 OFFCURVE",
"436 654 CURVE SMOOTH",
"224 654 OFFCURVE",
"117 553 OFFCURVE",
"68 322 CURVE SMOOTH",
"19 91 OFFCURVE",
"101 -10 OFFCURVE",
"294 -10 CURVE SMOOTH"
);
},
{
closed = 1;
nodes = (
"148 60 OFFCURVE",
"109 128 OFFCURVE",
"150 322 CURVE SMOOTH",
"191 516 OFFCURVE",
"275 584 OFFCURVE",
"421 584 CURVE SMOOTH",
"580 584 OFFCURVE",
"621 516 OFFCURVE",
"580 322 CURVE SMOOTH",
"539 128 OFFCURVE",
"455 60 OFFCURVE",
"309 60 CURVE SMOOTH"
);
},
{
closed = 1;
nodes = (
"593 720 LINE",
"605 779 LINE",
"318 779 LINE",
"306 720 LINE"
);
}
);
width = 694;
}
);
leftKerningGroup = O;
note = Omacron;
rightKerningGroup = O;
unicode = 014C;
},
{
glyphname = Oslash;
lastChange = "2015-11-24 11:57:51 +0000";
layers = (
{
layerId = "1336773A-60E9-4881-855D-D55F9632DBDF";
name = "Light Italic";
paths = (
{
closed = 1;
nodes = (
"179 -53 LINE",
"208 -1 LINE",
"234 -7 OFFCURVE",
"262 -10 OFFCURVE",
"294 -10 CURVE SMOOTH",
"502 -10 OFFCURVE",
"613 91 OFFCURVE",
"662 322 CURVE SMOOTH",
"697 486 OFFCURVE",
"664 585 OFFCURVE",
"574 628 CURVE",
"612 693 LINE",
"540 693 LINE",
"513 647 LINE",
"490 651 OFFCURVE",
"464 654 OFFCURVE",
"436 654 CURVE SMOOTH",
"224 654 OFFCURVE",
"117 553 OFFCURVE",
"68 322 CURVE SMOOTH",
"34 161 OFFCURVE",
"63 63 OFFCURVE",
"149 19 CURVE",
"107 -53 LINE"
);
},
{
closed = 1;
nodes = (
"130 119 OFFCURVE",
"122 192 OFFCURVE",
"150 322 CURVE SMOOTH",
"191 516 OFFCURVE",
"275 584 OFFCURVE",
"421 584 CURVE SMOOTH",
"441 584 OFFCURVE",
"458 582 OFFCURVE",
"475 580 CURVE",
"187 84 LINE"
);
},
{
closed = 1;
nodes = (
"286 60 OFFCURVE",
"265 61 OFFCURVE",
"247 64 CURVE",
"536 562 LINE",
"597 529 OFFCURVE",
"608 455 OFFCURVE",
"580 322 CURVE SMOOTH",
"539 128 OFFCURVE",
"455 60 OFFCURVE",
"309 60 CURVE SMOOTH"
);
}
);
width = 694;
}
);
leftKerningGroup = O;
note = Oslash;
rightKerningGroup = O;
unicode = 00D8;
},
{
glyphname = Oslashacute;
lastChange = "2015-11-24 11:57:53 +0000";
layers = (
{
layerId = "1336773A-60E9-4881-855D-D55F9632DBDF";
name = "Light Italic";
paths = (
{
closed = 1;
nodes = (
"179 -53 LINE",
"208 -1 LINE",
"234 -7 OFFCURVE",
"262 -10 OFFCURVE",
"294 -10 CURVE SMOOTH",
"502 -10 OFFCURVE",
"613 91 OFFCURVE",
"662 322 CURVE SMOOTH",
"697 486 OFFCURVE",
"664 585 OFFCURVE",
"574 628 CURVE",
"612 693 LINE",
"540 693 LINE",
"513 647 LINE",
"490 651 OFFCURVE",
"464 654 OFFCURVE",
"436 654 CURVE SMOOTH",
"224 654 OFFCURVE",
"117 553 OFFCURVE",
"68 322 CURVE SMOOTH",
"34 161 OFFCURVE",
"63 63 OFFCURVE",
"149 19 CURVE",
"107 -53 LINE"
);
},
{
closed = 1;
nodes = (
"130 119 OFFCURVE",
"122 192 OFFCURVE",
"150 322 CURVE SMOOTH",
"191 516 OFFCURVE",
"275 584 OFFCURVE",
"421 584 CURVE SMOOTH",
"441 584 OFFCURVE",
"458 582 OFFCURVE",
"475 580 CURVE",
"187 84 LINE"
);
},
{
closed = 1;
nodes = (
"286 60 OFFCURVE",
"265 61 OFFCURVE",
"247 64 CURVE",
"536 562 LINE",
"597 529 OFFCURVE",
"608 455 OFFCURVE",
"580 322 CURVE SMOOTH",
"539 128 OFFCURVE",
"455 60 OFFCURVE",
"309 60 CURVE SMOOTH"
);
},
{
closed = 1;
nodes = (
"463 688 LINE",
"578 856 LINE",
"504 856 LINE",
"397 688 LINE"
);
}
);
width = 694;
}
);
leftKerningGroup = O;
note = Oslashacute;
rightKerningGroup = O;
unicode = 01FE;
},
{
glyphname = Otilde;
lastChange = "2015-11-24 11:57:54 +0000";
layers = (
{
layerId = "1336773A-60E9-4881-855D-D55F9632DBDF";
name = "Light Italic";
paths = (
{
closed = 1;
nodes = (
"502 -10 OFFCURVE",
"613 91 OFFCURVE",
"662 322 CURVE SMOOTH",
"711 553 OFFCURVE",
"628 654 OFFCURVE",
"436 654 CURVE SMOOTH",
"224 654 OFFCURVE",
"117 553 OFFCURVE",
"68 322 CURVE SMOOTH",
"19 91 OFFCURVE",
"101 -10 OFFCURVE",
"294 -10 CURVE SMOOTH"
);
},
{
closed = 1;
nodes = (
"148 60 OFFCURVE",
"109 128 OFFCURVE",
"150 322 CURVE SMOOTH",
"191 516 OFFCURVE",
"275 584 OFFCURVE",
"421 584 CURVE SMOOTH",
"580 584 OFFCURVE",
"621 516 OFFCURVE",
"580 322 CURVE SMOOTH",
"539 128 OFFCURVE",
"455 60 OFFCURVE",
"309 60 CURVE SMOOTH"
);
},
{
closed = 1;
nodes = (
"557 713 OFFCURVE",
"590 725 OFFCURVE",
"607 743 CURVE",
"620 807 LINE",
"597 782 OFFCURVE",
"570 771 OFFCURVE",
"536 771 CURVE SMOOTH",
"487 771 OFFCURVE",
"455 809 OFFCURVE",
"400 809 CURVE SMOOTH",
"369 809 OFFCURVE",
"330 797 OFFCURVE",
"310 779 CURVE",
"297 716 LINE",
"324 742 OFFCURVE",
"355 751 OFFCURVE",
"387 751 CURVE SMOOTH",
"430 751 OFFCURVE",
"471 713 OFFCURVE",
"523 713 CURVE SMOOTH"
);
}
);
width = 694;
}
);
leftKerningGroup = O;
note = Otilde;
rightKerningGroup = O;
unicode = 00D5;
},
{
glyphname = OE;
lastChange = "2015-11-24 11:57:52 +0000";
layers = (
{
layerId = "1336773A-60E9-4881-855D-D55F9632DBDF";
name = "Light Italic";
paths = (
{
closed = 1;
nodes = (
"390 -10 OFFCURVE",
"470 13 OFFCURVE",
"526 65 CURVE",
"512 0 LINE",
"947 0 LINE",
"960 64 LINE",
"607 64 LINE",
"655 290 LINE",
"972 290 LINE",
"986 354 LINE",
"669 354 LINE",
"717 579 LINE",
"1070 579 LINE",
"1083 644 LINE",
"648 644 LINE",
"633 573 LINE",
"595 627 OFFCURVE",
"528 654 OFFCURVE",
"436 654 CURVE SMOOTH",
"224 654 OFFCURVE",
"117 553 OFFCURVE",
"68 322 CURVE SMOOTH",
"19 91 OFFCURVE",
"101 -10 OFFCURVE",
"294 -10 CURVE SMOOTH"
);
},
{
closed = 1;
nodes = (
"148 60 OFFCURVE",
"109 128 OFFCURVE",
"150 322 CURVE SMOOTH",
"191 516 OFFCURVE",
"275 584 OFFCURVE",
"421 584 CURVE SMOOTH",
"580 584 OFFCURVE",
"621 516 OFFCURVE",
"580 322 CURVE SMOOTH",
"539 128 OFFCURVE",
"455 60 OFFCURVE",
"309 60 CURVE SMOOTH"
);
}
);
width = 1047;
}
);
leftKerningGroup = O;
note = OE;
rightKerningGroup = E;
unicode = 0152;
},
{
glyphname = P;
lastChange = "2015-11-24 11:57:54 +0000";
layers = (
{
layerId = "1336773A-60E9-4881-855D-D55F9632DBDF";
name = "Light Italic";
paths = (
{
closed = 1;
nodes = (
"102 0 LINE",
"151 233 LINE",
"337 233 LINE SMOOTH",
"489 233 OFFCURVE",
"568 311 OFFCURVE",
"594 436 CURVE SMOOTH",
"620 558 OFFCURVE",
"559 644 OFFCURVE",
"419 644 CURVE SMOOTH",
"156 644 LINE",
"20 0 LINE"
);
},
{
closed = 1;
nodes = (
"225 579 LINE",
"403 579 LINE SMOOTH",
"510 579 OFFCURVE",
"532 527 OFFCURVE",
"512 436 CURVE SMOOTH",
"494 351 OFFCURVE",
"446 297 OFFCURVE",
"338 297 CURVE SMOOTH",
"165 297 LINE"
);
}
);
width = 582;
}
);
note = P;
unicode = 0050;
},
{
glyphname = Thorn;
lastChange = "2015-11-24 11:57:54 +0000";
layers = (
{
layerId = "1336773A-60E9-4881-855D-D55F9632DBDF";
name = "Light Italic";
paths = (
{
closed = 1;
nodes = (
"102 0 LINE",
"126 115 LINE",
"312 115 LINE SMOOTH",
"465 115 OFFCURVE",
"543 195 OFFCURVE",
"570 320 CURVE SMOOTH",
"595 442 OFFCURVE",
"532 526 OFFCURVE",
"396 526 CURVE SMOOTH",
"213 526 LINE",
"238 644 LINE",
"156 644 LINE",
"20 0 LINE"
);
},
{
closed = 1;
nodes = (
"199 461 LINE",
"377 461 LINE SMOOTH",
"480 461 OFFCURVE",
"507 416 OFFCURVE",
"488 320 CURVE SMOOTH",
"471 235 OFFCURVE",
"417 179 OFFCURVE",
"313 179 CURVE SMOOTH",
"140 179 LINE"
);
}
);
width = 582;
}
);
note = Thorn;
unicode = 00DE;
},
{
glyphname = Q;
lastChange = "2015-11-24 11:57:52 +0000";
layers = (
{
layerId = "1336773A-60E9-4881-855D-D55F9632DBDF";
name = "Light Italic";
paths = (
{
closed = 1;
nodes = (
"384 -172 OFFCURVE",
"420 -167 OFFCURVE",
"443 -161 CURVE",
"458 -92 LINE",
"436 -98 OFFCURVE",
"406 -102 OFFCURVE",
"385 -102 CURVE SMOOTH",
"326 -102 OFFCURVE",
"317 -79 OFFCURVE",
"330 -9 CURVE",
"515 2 OFFCURVE",
"616 105 OFFCURVE",
"662 322 CURVE SMOOTH",
"711 553 OFFCURVE",
"628 654 OFFCURVE",
"436 654 CURVE SMOOTH",
"224 654 OFFCURVE",
"117 553 OFFCURVE",
"68 322 CURVE SMOOTH",
"23 109 OFFCURVE",
"89 6 OFFCURVE",
"251 -8 CURVE",
"232 -117 OFFCURVE",
"266 -172 OFFCURVE",
"354 -172 CURVE SMOOTH"
);
},
{
closed = 1;
nodes = (
"148 60 OFFCURVE",
"109 128 OFFCURVE",
"150 322 CURVE SMOOTH",
"191 516 OFFCURVE",
"275 584 OFFCURVE",
"421 584 CURVE SMOOTH",
"580 584 OFFCURVE",
"621 516 OFFCURVE",
"580 322 CURVE SMOOTH",
"539 128 OFFCURVE",
"455 60 OFFCURVE",
"309 60 CURVE SMOOTH"
);
}
);
width = 694;
}
);
leftKerningGroup = O;
note = Q;
rightKerningGroup = O;
unicode = 0051;
},
{
glyphname = R;
lastChange = "2015-11-24 11:57:54 +0000";
layers = (
{
layerId = "1336773A-60E9-4881-855D-D55F9632DBDF";
name = "Light Italic";
paths = (
{
closed = 1;
nodes = (
"102 0 LINE",
"153 243 LINE",
"289 243 LINE SMOOTH",
"351 243 OFFCURVE",
"365 227 OFFCURVE",
"374 187 CURVE SMOOTH",
"417 0 LINE",
"501 0 LINE",
"458 194 LINE SMOOTH",
"450 228 OFFCURVE",
"444 247 OFFCURVE",
"420 263 CURVE",
"515 284 OFFCURVE",
"576 349 OFFCURVE",
"596 444 CURVE SMOOTH",
"620 558 OFFCURVE",
"560 644 OFFCURVE",
"431 644 CURVE SMOOTH",
"156 644 LINE",
"20 0 LINE"
);
},
{
closed = 1;
nodes = (
"225 579 LINE",
"414 579 LINE SMOOTH",
"508 579 OFFCURVE",
"533 533 OFFCURVE",
"514 444 CURVE SMOOTH",
"493 348 OFFCURVE",
"432 307 OFFCURVE",
"345 307 CURVE SMOOTH",
"167 307 LINE"
);
}
);
width = 602;
}
);
note = R;
rightKerningGroup = R;
unicode = 0052;
},
{
glyphname = Racute;
lastChange = "2015-11-24 11:57:53 +0000";
layers = (
{
layerId = "1336773A-60E9-4881-855D-D55F9632DBDF";
name = "Light Italic";
paths = (
{
closed = 1;
nodes = (
"102 0 LINE",
"153 243 LINE",
"289 243 LINE SMOOTH",
"351 243 OFFCURVE",
"365 227 OFFCURVE",
"374 187 CURVE SMOOTH",
"417 0 LINE",
"501 0 LINE",
"458 194 LINE SMOOTH",
"450 228 OFFCURVE",
"444 247 OFFCURVE",
"420 263 CURVE",
"515 284 OFFCURVE",
"576 349 OFFCURVE",
"596 444 CURVE SMOOTH",
"620 558 OFFCURVE",
"560 644 OFFCURVE",
"431 644 CURVE SMOOTH",
"156 644 LINE",
"20 0 LINE"
);
},
{
closed = 1;
nodes = (
"225 579 LINE",
"414 579 LINE SMOOTH",
"508 579 OFFCURVE",
"533 533 OFFCURVE",
"514 444 CURVE SMOOTH",
"493 348 OFFCURVE",
"432 307 OFFCURVE",
"345 307 CURVE SMOOTH",
"167 307 LINE"
);
},
{
closed = 1;
nodes = (
"407 688 LINE",
"522 856 LINE",
"448 856 LINE",
"341 688 LINE"
);
}
);
width = 602;
}
);
note = Racute;
rightKerningGroup = R;
unicode = 0154;
},
{
glyphname = Rcaron;
lastChange = "2015-11-24 11:57:54 +0000";
layers = (
{
layerId = "1336773A-60E9-4881-855D-D55F9632DBDF";
name = "Light Italic";
paths = (
{
closed = 1;
nodes = (
"102 0 LINE",
"153 243 LINE",
"289 243 LINE SMOOTH",
"351 243 OFFCURVE",
"365 227 OFFCURVE",
"374 187 CURVE SMOOTH",
"417 0 LINE",
"501 0 LINE",
"458 194 LINE SMOOTH",
"450 228 OFFCURVE",
"444 247 OFFCURVE",
"420 263 CURVE",
"515 284 OFFCURVE",
"576 349 OFFCURVE",
"596 444 CURVE SMOOTH",
"620 558 OFFCURVE",
"560 644 OFFCURVE",
"431 644 CURVE SMOOTH",
"156 644 LINE",
"20 0 LINE"
);
},
{
closed = 1;
nodes = (
"225 579 LINE",
"414 579 LINE SMOOTH",
"508 579 OFFCURVE",
"533 533 OFFCURVE",
"514 444 CURVE SMOOTH",
"493 348 OFFCURVE",
"432 307 OFFCURVE",
"345 307 CURVE SMOOTH",
"167 307 LINE"
);
},
{
closed = 1;
nodes = (
"418 688 LINE",
"564 836 LINE",
"490 836 LINE",
"391 734 LINE",
"336 836 LINE",
"269 836 LINE",
"352 688 LINE"
);
}
);
width = 602;
}
);
note = Rcaron;
rightKerningGroup = R;
unicode = 0158;
},
{
glyphname = Rcommaaccent;
lastChange = "2015-11-24 11:57:54 +0000";
layers = (
{
layerId = "1336773A-60E9-4881-855D-D55F9632DBDF";
name = "Light Italic";
paths = (
{
closed = 1;
nodes = (
"102 0 LINE",
"153 243 LINE",
"289 243 LINE SMOOTH",
"351 243 OFFCURVE",
"365 227 OFFCURVE",
"374 187 CURVE SMOOTH",
"417 0 LINE",
"501 0 LINE",
"458 194 LINE SMOOTH",
"450 228 OFFCURVE",
"444 247 OFFCURVE",
"420 263 CURVE",
"515 284 OFFCURVE",
"576 349 OFFCURVE",
"596 444 CURVE SMOOTH",
"620 558 OFFCURVE",
"560 644 OFFCURVE",
"431 644 CURVE SMOOTH",
"156 644 LINE",
"20 0 LINE"
);
},
{
closed = 1;
nodes = (
"225 579 LINE",
"414 579 LINE SMOOTH",
"508 579 OFFCURVE",
"533 533 OFFCURVE",
"514 444 CURVE SMOOTH",
"493 348 OFFCURVE",
"432 307 OFFCURVE",
"345 307 CURVE SMOOTH",
"167 307 LINE"
);
},
{
closed = 1;
nodes = (
"203 -214 LINE",
"283 -37 LINE",
"209 -37 LINE",
"143 -214 LINE"
);
}
);
width = 602;
}
);
note = Rcommaaccent;
rightKerningGroup = R;
unicode = 0156;
},
{
glyphname = Rdotbelow;
lastChange = "2015-11-24 11:57:54 +0000";
layers = (
{
layerId = "1336773A-60E9-4881-855D-D55F9632DBDF";
name = "Light Italic";
paths = (
{
closed = 1;
nodes = (
"102 0 LINE",
"153 243 LINE",
"289 243 LINE SMOOTH",
"351 243 OFFCURVE",
"365 227 OFFCURVE",
"374 187 CURVE SMOOTH",
"417 0 LINE",
"501 0 LINE",
"458 194 LINE SMOOTH",
"450 228 OFFCURVE",
"444 247 OFFCURVE",
"420 263 CURVE",
"515 284 OFFCURVE",
"576 349 OFFCURVE",
"596 444 CURVE SMOOTH",
"620 558 OFFCURVE",
"560 644 OFFCURVE",
"431 644 CURVE SMOOTH",
"156 644 LINE",
"20 0 LINE"
);
},
{
closed = 1;
nodes = (
"225 579 LINE",
"414 579 LINE SMOOTH",
"508 579 OFFCURVE",
"533 533 OFFCURVE",
"514 444 CURVE SMOOTH",
"493 348 OFFCURVE",
"432 307 OFFCURVE",
"345 307 CURVE SMOOTH",
"167 307 LINE"
);
},
{
closed = 1;
nodes = (
"257 -164 LINE",
"273 -87 LINE",
"193 -87 LINE",
"177 -164 LINE"
);
}
);
width = 602;
}
);
note = Rdotbelow;
rightKerningGroup = R;
unicode = 1E5A;
},
{
glyphname = Rdotbelowmacron;
lastChange = "2015-11-24 11:57:54 +0000";
layers = (
{
layerId = "1336773A-60E9-4881-855D-D55F9632DBDF";
name = "Light Italic";
paths = (
{
closed = 1;
nodes = (
"102 0 LINE",
"153 243 LINE",
"289 243 LINE SMOOTH",
"351 243 OFFCURVE",
"365 227 OFFCURVE",
"374 187 CURVE SMOOTH",
"417 0 LINE",
"501 0 LINE",
"458 194 LINE SMOOTH",
"450 228 OFFCURVE",
"444 247 OFFCURVE",
"420 263 CURVE",
"515 284 OFFCURVE",
"576 349 OFFCURVE",
"596 444 CURVE SMOOTH",
"620 558 OFFCURVE",
"560 644 OFFCURVE",
"431 644 CURVE SMOOTH",
"156 644 LINE",
"20 0 LINE"
);
},
{
closed = 1;
nodes = (
"225 579 LINE",
"414 579 LINE SMOOTH",
"508 579 OFFCURVE",
"533 533 OFFCURVE",
"514 444 CURVE SMOOTH",
"493 348 OFFCURVE",
"432 307 OFFCURVE",
"345 307 CURVE SMOOTH",
"167 307 LINE"
);
},
{
closed = 1;
nodes = (
"257 -164 LINE",
"273 -87 LINE",
"193 -87 LINE",
"177 -164 LINE"
);
},
{
closed = 1;
nodes = (
"539 717 LINE",
"551 776 LINE",
"264 776 LINE",
"252 717 LINE"
);
}
);
width = 602;
}
);
note = Rdotbelowmacron;
rightKerningGroup = R;
unicode = 1E5C;
},
{
glyphname = Rlinebelow;
lastChange = "2015-11-24 11:57:53 +0000";
layers = (
{
layerId = "1336773A-60E9-4881-855D-D55F9632DBDF";
name = "Light Italic";
paths = (
{
closed = 1;
nodes = (
"102 0 LINE",
"153 243 LINE",
"289 243 LINE SMOOTH",
"351 243 OFFCURVE",
"365 227 OFFCURVE",
"374 187 CURVE SMOOTH",
"417 0 LINE",
"501 0 LINE",
"458 194 LINE SMOOTH",
"450 228 OFFCURVE",
"444 247 OFFCURVE",
"420 263 CURVE",
"515 284 OFFCURVE",
"576 349 OFFCURVE",
"596 444 CURVE SMOOTH",
"620 558 OFFCURVE",
"560 644 OFFCURVE",
"431 644 CURVE SMOOTH",
"156 644 LINE",
"20 0 LINE"
);
},
{
closed = 1;
nodes = (
"225 579 LINE",
"414 579 LINE SMOOTH",
"508 579 OFFCURVE",
"533 533 OFFCURVE",
"514 444 CURVE SMOOTH",
"493 348 OFFCURVE",
"432 307 OFFCURVE",
"345 307 CURVE SMOOTH",
"167 307 LINE"
);
},
{
closed = 1;
nodes = (
"357 -130 LINE",
"369 -71 LINE",
"82 -71 LINE",
"70 -130 LINE"
);
}
);
width = 602;
}
);
note = Rlinebelow;
rightKerningGroup = R;
unicode = 1E5E;
},
{
glyphname = S;
lastChange = "2015-11-24 11:57:54 +0000";
layers = (
{
layerId = "1336773A-60E9-4881-855D-D55F9632DBDF";
name = "Light Italic";
paths = (
{
closed = 1;
nodes = (
"380 -10 OFFCURVE",
"467 54 OFFCURVE",
"491 168 CURVE SMOOTH",
"511 261 OFFCURVE",
"470 320 OFFCURVE",
"329 358 CURVE SMOOTH",
"203 392 OFFCURVE",
"169 411 OFFCURVE",
"183 477 CURVE SMOOTH",
"199 555 OFFCURVE",
"267 584 OFFCURVE",
"376 584 CURVE SMOOTH",
"436 584 OFFCURVE",
"491 574 OFFCURVE",
"535 557 CURVE",
"550 629 LINE",
"518 641 OFFCURVE",
"452 654 OFFCURVE",
"378 654 CURVE SMOOTH",
"208 654 OFFCURVE",
"123 586 OFFCURVE",
"101 477 CURVE SMOOTH",
"83 386 OFFCURVE",
"124 334 OFFCURVE",
"255 298 CURVE SMOOTH",
"382 263 OFFCURVE",
"427 247 OFFCURVE",
"409 168 CURVE SMOOTH",
"390 86 OFFCURVE",
"328 60 OFFCURVE",
"214 60 CURVE SMOOTH",
"147 60 OFFCURVE",
"86 72 OFFCURVE",
"34 93 CURVE",
"19 20 LINE",
"68 0 OFFCURVE",
"129 -10 OFFCURVE",
"206 -10 CURVE SMOOTH"
);
}
);
width = 556;
}
);
leftKerningGroup = S;
note = S;
rightKerningGroup = S;
unicode = 0053;
},
{
glyphname = Sacute;
lastChange = "2015-11-24 11:57:52 +0000";
layers = (
{
layerId = "1336773A-60E9-4881-855D-D55F9632DBDF";
name = "Light Italic";
paths = (
{
closed = 1;
nodes = (
"380 -10 OFFCURVE",
"467 54 OFFCURVE",
"491 168 CURVE SMOOTH",
"511 261 OFFCURVE",
"470 320 OFFCURVE",
"329 358 CURVE SMOOTH",
"203 392 OFFCURVE",
"169 411 OFFCURVE",
"183 477 CURVE SMOOTH",
"199 555 OFFCURVE",
"267 584 OFFCURVE",
"376 584 CURVE SMOOTH",
"436 584 OFFCURVE",
"491 574 OFFCURVE",
"535 557 CURVE",
"550 629 LINE",
"518 641 OFFCURVE",
"452 654 OFFCURVE",
"378 654 CURVE SMOOTH",
"208 654 OFFCURVE",
"123 586 OFFCURVE",
"101 477 CURVE SMOOTH",
"83 386 OFFCURVE",
"124 334 OFFCURVE",
"255 298 CURVE SMOOTH",
"382 263 OFFCURVE",
"427 247 OFFCURVE",
"409 168 CURVE SMOOTH",
"390 86 OFFCURVE",
"328 60 OFFCURVE",
"214 60 CURVE SMOOTH",
"147 60 OFFCURVE",
"86 72 OFFCURVE",
"34 93 CURVE",
"19 20 LINE",
"68 0 OFFCURVE",
"129 -10 OFFCURVE",
"206 -10 CURVE SMOOTH"
);
},
{
closed = 1;
nodes = (
"385 688 LINE",
"500 856 LINE",
"426 856 LINE",
"319 688 LINE"
);
}
);
width = 556;
}
);
leftKerningGroup = S;
note = Sacute;
rightKerningGroup = S;
unicode = 015A;
},
{
glyphname = Scaron;
lastChange = "2015-11-24 11:57:54 +0000";
layers = (
{
layerId = "1336773A-60E9-4881-855D-D55F9632DBDF";
name = "Light Italic";
paths = (
{
closed = 1;
nodes = (
"380 -10 OFFCURVE",
"467 54 OFFCURVE",
"491 168 CURVE SMOOTH",
"511 261 OFFCURVE",
"470 320 OFFCURVE",
"329 358 CURVE SMOOTH",
"203 392 OFFCURVE",
"169 411 OFFCURVE",
"183 477 CURVE SMOOTH",
"199 555 OFFCURVE",
"267 584 OFFCURVE",
"376 584 CURVE SMOOTH",
"436 584 OFFCURVE",
"491 574 OFFCURVE",
"535 557 CURVE",
"550 629 LINE",
"518 641 OFFCURVE",
"452 654 OFFCURVE",
"378 654 CURVE SMOOTH",
"208 654 OFFCURVE",
"123 586 OFFCURVE",
"101 477 CURVE SMOOTH",
"83 386 OFFCURVE",
"124 334 OFFCURVE",
"255 298 CURVE SMOOTH",
"382 263 OFFCURVE",
"427 247 OFFCURVE",
"409 168 CURVE SMOOTH",
"390 86 OFFCURVE",
"328 60 OFFCURVE",
"214 60 CURVE SMOOTH",
"147 60 OFFCURVE",
"86 72 OFFCURVE",
"34 93 CURVE",
"19 20 LINE",
"68 0 OFFCURVE",
"129 -10 OFFCURVE",
"206 -10 CURVE SMOOTH"
);
},
{
closed = 1;
nodes = (
"425 688 LINE",
"571 836 LINE",
"497 836 LINE",
"398 734 LINE",
"343 836 LINE",
"276 836 LINE",
"359 688 LINE"
);
}
);
width = 556;
}
);
leftKerningGroup = S;
note = Scaron;
rightKerningGroup = S;
unicode = 0160;
},
{
glyphname = Scedilla;
lastChange = "2015-11-24 11:57:53 +0000";
layers = (
{
layerId = "1336773A-60E9-4881-855D-D55F9632DBDF";
name = "Light Italic";
paths = (
{
closed = 1;
nodes = (
"239 -240 OFFCURVE",
"291 -203 OFFCURVE",
"305 -138 CURVE SMOOTH",
"317 -81 OFFCURVE",
"286 -48 OFFCURVE",
"214 -48 CURVE",
"235 -9 LINE",
"389 -2 OFFCURVE",
"468 60 OFFCURVE",
"491 168 CURVE SMOOTH",
"511 261 OFFCURVE",
"470 320 OFFCURVE",
"329 358 CURVE SMOOTH",
"203 392 OFFCURVE",
"169 411 OFFCURVE",
"183 477 CURVE SMOOTH",
"199 555 OFFCURVE",
"267 584 OFFCURVE",
"376 584 CURVE SMOOTH",
"436 584 OFFCURVE",
"491 574 OFFCURVE",
"535 557 CURVE",
"550 629 LINE",
"518 641 OFFCURVE",
"452 654 OFFCURVE",
"378 654 CURVE SMOOTH",
"208 654 OFFCURVE",
"123 586 OFFCURVE",
"101 477 CURVE SMOOTH",
"83 386 OFFCURVE",
"124 334 OFFCURVE",
"255 298 CURVE SMOOTH",
"382 263 OFFCURVE",
"427 247 OFFCURVE",
"409 168 CURVE SMOOTH",
"390 86 OFFCURVE",
"328 60 OFFCURVE",
"214 60 CURVE SMOOTH",
"147 60 OFFCURVE",
"86 72 OFFCURVE",
"34 93 CURVE",
"19 20 LINE",
"61 2 OFFCURVE",
"113 -7 OFFCURVE",
"177 -9 CURVE",
"134 -91 LINE",
"171 -91 LINE SMOOTH",
"227 -91 OFFCURVE",
"254 -98 OFFCURVE",
"245 -137 CURVE SMOOTH",
"237 -178 OFFCURVE",
"207 -190 OFFCURVE",
"145 -190 CURVE SMOOTH",
"123 -190 OFFCURVE",
"101 -187 OFFCURVE",
"84 -182 CURVE",
"73 -232 LINE",
"87 -236 OFFCURVE",
"119 -240 OFFCURVE",
"141 -240 CURVE SMOOTH"
);
}
);
width = 556;
}
);
leftKerningGroup = S;
note = Scedilla;
rightKerningGroup = S;
unicode = 015E;
},
{
glyphname = Scircumflex;
lastChange = "2015-11-24 11:57:52 +0000";
layers = (
{
layerId = "1336773A-60E9-4881-855D-D55F9632DBDF";
name = "Light Italic";
paths = (
{
closed = 1;
nodes = (
"380 -10 OFFCURVE",
"467 54 OFFCURVE",
"491 168 CURVE SMOOTH",
"511 261 OFFCURVE",
"470 320 OFFCURVE",
"329 358 CURVE SMOOTH",
"203 392 OFFCURVE",
"169 411 OFFCURVE",
"183 477 CURVE SMOOTH",
"199 555 OFFCURVE",
"267 584 OFFCURVE",
"376 584 CURVE SMOOTH",
"436 584 OFFCURVE",
"491 574 OFFCURVE",
"535 557 CURVE",
"550 629 LINE",
"518 641 OFFCURVE",
"452 654 OFFCURVE",
"378 654 CURVE SMOOTH",
"208 654 OFFCURVE",
"123 586 OFFCURVE",
"101 477 CURVE SMOOTH",
"83 386 OFFCURVE",
"124 334 OFFCURVE",
"255 298 CURVE SMOOTH",
"382 263 OFFCURVE",
"427 247 OFFCURVE",
"409 168 CURVE SMOOTH",
"390 86 OFFCURVE",
"328 60 OFFCURVE",
"214 60 CURVE SMOOTH",
"147 60 OFFCURVE",
"86 72 OFFCURVE",
"34 93 CURVE",
"19 20 LINE",
"68 0 OFFCURVE",
"129 -10 OFFCURVE",
"206 -10 CURVE SMOOTH"
);
},
{
closed = 1;
nodes = (
"303 688 LINE",
"401 790 LINE",
"457 688 LINE",
"525 688 LINE",
"441 836 LINE",
"375 836 LINE",
"230 688 LINE"
);
}
);
width = 556;
}
);
leftKerningGroup = S;
note = Scircumflex;
rightKerningGroup = S;
unicode = 015C;
},
{
glyphname = Scommaaccent;
lastChange = "2015-11-24 11:57:54 +0000";
layers = (
{
layerId = "1336773A-60E9-4881-855D-D55F9632DBDF";
name = "Light Italic";
paths = (
{
closed = 1;
nodes = (
"380 -10 OFFCURVE",
"467 54 OFFCURVE",
"491 168 CURVE SMOOTH",
"511 261 OFFCURVE",
"470 320 OFFCURVE",
"329 358 CURVE SMOOTH",
"203 392 OFFCURVE",
"169 411 OFFCURVE",
"183 477 CURVE SMOOTH",
"199 555 OFFCURVE",
"267 584 OFFCURVE",
"376 584 CURVE SMOOTH",
"436 584 OFFCURVE",
"491 574 OFFCURVE",
"535 557 CURVE",
"550 629 LINE",
"518 641 OFFCURVE",
"452 654 OFFCURVE",
"378 654 CURVE SMOOTH",
"208 654 OFFCURVE",
"123 586 OFFCURVE",
"101 477 CURVE SMOOTH",
"83 386 OFFCURVE",
"124 334 OFFCURVE",
"255 298 CURVE SMOOTH",
"382 263 OFFCURVE",
"427 247 OFFCURVE",
"409 168 CURVE SMOOTH",
"390 86 OFFCURVE",
"328 60 OFFCURVE",
"214 60 CURVE SMOOTH",
"147 60 OFFCURVE",
"86 72 OFFCURVE",
"34 93 CURVE",
"19 20 LINE",
"68 0 OFFCURVE",
"129 -10 OFFCURVE",
"206 -10 CURVE SMOOTH"
);
},
{
closed = 1;
nodes = (
"171 -218 LINE",
"245 -52 LINE",
"171 -52 LINE",
"108 -218 LINE"
);
}
);
width = 556;
}
);
leftKerningGroup = S;
note = Scommaaccent;
rightKerningGroup = S;
unicode = 0218;
},
{
glyphname = Sdotaccent;
lastChange = "2015-11-24 11:57:54 +0000";
layers = (
{
layerId = "1336773A-60E9-4881-855D-D55F9632DBDF";
name = "Light Italic";
paths = (
{
closed = 1;
nodes = (
"380 -10 OFFCURVE",
"467 54 OFFCURVE",
"491 168 CURVE SMOOTH",
"511 261 OFFCURVE",
"470 320 OFFCURVE",
"329 358 CURVE SMOOTH",
"203 392 OFFCURVE",
"169 411 OFFCURVE",
"183 477 CURVE SMOOTH",
"199 555 OFFCURVE",
"267 584 OFFCURVE",
"376 584 CURVE SMOOTH",
"436 584 OFFCURVE",
"491 574 OFFCURVE",
"535 557 CURVE",
"550 629 LINE",
"518 641 OFFCURVE",
"452 654 OFFCURVE",
"378 654 CURVE SMOOTH",
"208 654 OFFCURVE",
"123 586 OFFCURVE",
"101 477 CURVE SMOOTH",
"83 386 OFFCURVE",
"124 334 OFFCURVE",
"255 298 CURVE SMOOTH",
"382 263 OFFCURVE",
"427 247 OFFCURVE",
"409 168 CURVE SMOOTH",
"390 86 OFFCURVE",
"328 60 OFFCURVE",
"214 60 CURVE SMOOTH",
"147 60 OFFCURVE",
"86 72 OFFCURVE",
"34 93 CURVE",
"19 20 LINE",
"68 0 OFFCURVE",
"129 -10 OFFCURVE",
"206 -10 CURVE SMOOTH"
);
},
{
closed = 1;
nodes = (
"420 710 LINE",
"436 787 LINE",
"356 787 LINE",
"340 710 LINE"
);
}
);
width = 556;
}
);
leftKerningGroup = S;
note = Sdotaccent;
rightKerningGroup = S;
unicode = 1E60;
},
{
glyphname = Sdotbelow;
lastChange = "2015-11-24 11:57:52 +0000";
layers = (
{
layerId = "1336773A-60E9-4881-855D-D55F9632DBDF";
name = "Light Italic";
paths = (
{
closed = 1;
nodes = (
"380 -10 OFFCURVE",
"467 54 OFFCURVE",
"491 168 CURVE SMOOTH",
"511 261 OFFCURVE",
"470 320 OFFCURVE",
"329 358 CURVE SMOOTH",
"203 392 OFFCURVE",
"169 411 OFFCURVE",
"183 477 CURVE SMOOTH",
"199 555 OFFCURVE",
"267 584 OFFCURVE",
"376 584 CURVE SMOOTH",
"436 584 OFFCURVE",
"491 574 OFFCURVE",
"535 557 CURVE",
"550 629 LINE",
"518 641 OFFCURVE",
"452 654 OFFCURVE",
"378 654 CURVE SMOOTH",
"208 654 OFFCURVE",
"123 586 OFFCURVE",
"101 477 CURVE SMOOTH",
"83 386 OFFCURVE",
"124 334 OFFCURVE",
"255 298 CURVE SMOOTH",
"382 263 OFFCURVE",
"427 247 OFFCURVE",
"409 168 CURVE SMOOTH",
"390 86 OFFCURVE",
"328 60 OFFCURVE",
"214 60 CURVE SMOOTH",
"147 60 OFFCURVE",
"86 72 OFFCURVE",
"34 93 CURVE",
"19 20 LINE",
"68 0 OFFCURVE",
"129 -10 OFFCURVE",
"206 -10 CURVE SMOOTH"
);
},
{
closed = 1;
nodes = (
"220 -164 LINE",
"236 -87 LINE",
"156 -87 LINE",
"140 -164 LINE"
);
}
);
width = 556;
}
);
leftKerningGroup = S;
note = Sdotbelow;
rightKerningGroup = S;
unicode = 1E62;
},
{
glyphname = Germandbls;
lastChange = "2015-11-24 11:57:51 +0000";
layers = (
{
layerId = "1336773A-60E9-4881-855D-D55F9632DBDF";
name = "Light Italic";
paths = (
{
closed = 1;
nodes = (
"457 -10 OFFCURVE",
"537 63 OFFCURVE",
"561 181 CURVE SMOOTH",
"579 271 OFFCURVE",
"530 343 OFFCURVE",
"430 343 CURVE SMOOTH",
"383 343 LINE",
"590 455 LINE",
"614 566 OFFCURVE",
"553 654 OFFCURVE",
"398 654 CURVE SMOOTH",
"226 654 OFFCURVE",
"137 576 OFFCURVE",
"107 435 CURVE SMOOTH",
"15 0 LINE",
"97 0 LINE",
"189 436 LINE SMOOTH",
"211 538 OFFCURVE",
"263 584 OFFCURVE",
"383 584 CURVE SMOOTH",
"497 584 OFFCURVE",
"530 540 OFFCURVE",
"518 480 CURVE",
"300 360 LINE",
"284 283 LINE",
"382 283 LINE SMOOTH",
"477 283 OFFCURVE",
"495 256 OFFCURVE",
"479 182 CURVE SMOOTH",
"462 100 OFFCURVE",
"413 60 OFFCURVE",
"327 60 CURVE SMOOTH",
"282 60 OFFCURVE",
"235 66 OFFCURVE",
"201 82 CURVE",
"186 12 LINE",
"223 -3 OFFCURVE",
"272 -10 OFFCURVE",
"325 -10 CURVE SMOOTH"
);
}
);
width = 623;
}
);
note = uni1E9E;
unicode = 1E9E;
},
{
glyphname = Schwa;
lastChange = "2015-11-24 11:57:54 +0000";
layers = (
{
layerId = "1336773A-60E9-4881-855D-D55F9632DBDF";
name = "Light Italic";
paths = (
{
closed = 1;
nodes = (
"492 -10 OFFCURVE",
"594 114 OFFCURVE",
"636 315 CURVE SMOOTH",
"684 541 OFFCURVE",
"607 654 OFFCURVE",
"379 654 CURVE SMOOTH",
"308 654 OFFCURVE",
"230 639 OFFCURVE",
"171 617 CURVE",
"157 551 LINE",
"216 574 OFFCURVE",
"288 588 OFFCURVE",
"350 588 CURVE SMOOTH",
"564 588 OFFCURVE",
"597 517 OFFCURVE",
"571 359 CURVE",
"76 359 LINE",
"53 253 LINE SMOOTH",
"21 100 OFFCURVE",
"82 -10 OFFCURVE",
"268 -10 CURVE SMOOTH"
);
},
{
closed = 1;
nodes = (
"132 56 OFFCURVE",
"98 119 OFFCURVE",
"124 240 CURVE SMOOTH",
"136 300 LINE",
"558 300 LINE",
"524 138 OFFCURVE",
"437 56 OFFCURVE",
"282 56 CURVE SMOOTH"
);
}
);
width = 670;
}
);
note = uni018F;
unicode = 018F;
},
{
glyphname = T;
lastChange = "2015-11-24 11:57:54 +0000";
layers = (
{
layerId = "1336773A-60E9-4881-855D-D55F9632DBDF";
name = "Light Italic";
paths = (
{
closed = 1;
nodes = (
"276 0 LINE",
"399 579 LINE",
"613 579 LINE",
"626 644 LINE",
"116 644 LINE",
"103 579 LINE",
"317 579 LINE",
"194 0 LINE"
);
}
);
width = 570;
}
);
leftKerningGroup = T;
note = T;
rightKerningGroup = T;
unicode = 0054;
},
{
glyphname = Tbar;
lastChange = "2015-11-24 11:57:51 +0000";
layers = (
{
layerId = "1336773A-60E9-4881-855D-D55F9632DBDF";
name = "Light Italic";
paths = (
{
closed = 1;
nodes = (
"276 0 LINE",
"344 320 LINE",
"486 320 LINE",
"499 382 LINE",
"357 382 LINE",
"399 579 LINE",
"613 579 LINE",
"626 644 LINE",
"116 644 LINE",
"103 579 LINE",
"317 579 LINE",
"275 382 LINE",
"137 382 LINE",
"124 320 LINE",
"262 320 LINE",
"194 0 LINE"
);
}
);
width = 570;
}
);
leftKerningGroup = T;
note = Tbar;
rightKerningGroup = T;
unicode = 0166;
},
{
glyphname = Tcaron;
lastChange = "2015-11-24 11:57:52 +0000";
layers = (
{
layerId = "1336773A-60E9-4881-855D-D55F9632DBDF";
name = "Light Italic";
paths = (
{
closed = 1;
nodes = (
"276 0 LINE",
"399 579 LINE",
"613 579 LINE",
"626 644 LINE",
"116 644 LINE",
"103 579 LINE",
"317 579 LINE",
"194 0 LINE"
);
},
{
closed = 1;
nodes = (
"414 688 LINE",
"560 836 LINE",
"486 836 LINE",
"387 734 LINE",
"332 836 LINE",
"265 836 LINE",
"348 688 LINE"
);
}
);
width = 570;
}
);
leftKerningGroup = T;
note = Tcaron;
rightKerningGroup = T;
unicode = 0164;
},
{
glyphname = Tcedilla;
lastChange = "2015-11-24 11:57:52 +0000";
layers = (
{
layerId = "1336773A-60E9-4881-855D-D55F9632DBDF";
name = "Light Italic";
paths = (
{
closed = 1;
nodes = (
"262 -240 OFFCURVE",
"314 -203 OFFCURVE",
"328 -138 CURVE SMOOTH",
"340 -81 OFFCURVE",
"309 -48 OFFCURVE",
"237 -48 CURVE",
"263 0 LINE",
"276 0 LINE",
"399 579 LINE",
"613 579 LINE",
"626 644 LINE",
"116 644 LINE",
"103 579 LINE",
"317 579 LINE",
"194 0 LINE",
"205 0 LINE",
"157 -91 LINE",
"194 -91 LINE SMOOTH",
"250 -91 OFFCURVE",
"277 -98 OFFCURVE",
"268 -137 CURVE SMOOTH",
"260 -178 OFFCURVE",
"230 -190 OFFCURVE",
"168 -190 CURVE SMOOTH",
"146 -190 OFFCURVE",
"124 -187 OFFCURVE",
"107 -182 CURVE",
"96 -232 LINE",
"110 -236 OFFCURVE",
"142 -240 OFFCURVE",
"164 -240 CURVE SMOOTH"
);
}
);
width = 570;
}
);
leftKerningGroup = T;
note = Tcedilla;
rightKerningGroup = T;
unicode = 0162;
},
{
glyphname = Tcommaaccent;
lastChange = "2015-11-24 11:57:51 +0000";
layers = (
{
layerId = "1336773A-60E9-4881-855D-D55F9632DBDF";
name = "Light Italic";
paths = (
{
closed = 1;
nodes = (
"276 0 LINE",
"399 579 LINE",
"613 579 LINE",
"626 644 LINE",
"116 644 LINE",
"103 579 LINE",
"317 579 LINE",
"194 0 LINE"
);
},
{
closed = 1;
nodes = (
"184 -219 LINE",
"264 -42 LINE",
"190 -42 LINE",
"124 -219 LINE"
);
}
);
width = 570;
}
);
leftKerningGroup = T;
note = Tcommaaccent;
rightKerningGroup = T;
unicode = 021A;
},
{
glyphname = Tdotbelow;
lastChange = "2015-11-24 11:57:54 +0000";
layers = (
{
layerId = "1336773A-60E9-4881-855D-D55F9632DBDF";
name = "Light Italic";
paths = (
{
closed = 1;
nodes = (
"276 0 LINE",
"399 579 LINE",
"613 579 LINE",
"626 644 LINE",
"116 644 LINE",
"103 579 LINE",
"317 579 LINE",
"194 0 LINE"
);
},
{
closed = 1;
nodes = (
"242 -159 LINE",
"258 -82 LINE",
"178 -82 LINE",
"162 -159 LINE"
);
}
);
width = 570;
}
);
leftKerningGroup = T;
note = Tdotbelow;
rightKerningGroup = T;
unicode = 1E6C;
},
{
glyphname = Tlinebelow;
lastChange = "2015-11-24 11:57:54 +0000";
layers = (
{
layerId = "1336773A-60E9-4881-855D-D55F9632DBDF";
name = "Light Italic";
paths = (
{
closed = 1;
nodes = (
"276 0 LINE",
"399 579 LINE",
"613 579 LINE",
"626 644 LINE",
"116 644 LINE",
"103 579 LINE",
"317 579 LINE",
"194 0 LINE"
);
},
{
closed = 1;
nodes = (
"352 -125 LINE",
"364 -66 LINE",
"77 -66 LINE",
"65 -125 LINE"
);
}
);
width = 570;
}
);
leftKerningGroup = T;
note = Tlinebelow;
rightKerningGroup = T;
unicode = 1E6E;
},
{
glyphname = U;
lastChange = "2015-11-24 11:57:53 +0000";
layers = (
{
layerId = "1336773A-60E9-4881-855D-D55F9632DBDF";
name = "Light Italic";
paths = (
{
closed = 1;
nodes = (
"475 -10 OFFCURVE",
"571 70 OFFCURVE",
"606 236 CURVE SMOOTH",
"692 644 LINE",
"610 644 LINE",
"523 235 LINE SMOOTH",
"496 109 OFFCURVE",
"425 60 OFFCURVE",
"298 60 CURVE SMOOTH",
"167 60 OFFCURVE",
"119 106 OFFCURVE",
"146 235 CURVE SMOOTH",
"233 644 LINE",
"151 644 LINE",
"65 236 LINE SMOOTH",
"32 82 OFFCURVE",
"110 -10 OFFCURVE",
"283 -10 CURVE SMOOTH"
);
}
);
width = 671;
}
);
leftKerningGroup = U;
note = U;
rightKerningGroup = U;
unicode = 0055;
},
{
glyphname = Uacute;
lastChange = "2015-11-24 11:57:53 +0000";
layers = (
{
layerId = "1336773A-60E9-4881-855D-D55F9632DBDF";
name = "Light Italic";
paths = (
{
closed = 1;
nodes = (
"475 -10 OFFCURVE",
"571 70 OFFCURVE",
"606 236 CURVE SMOOTH",
"692 644 LINE",
"610 644 LINE",
"523 235 LINE SMOOTH",
"496 109 OFFCURVE",
"425 60 OFFCURVE",
"298 60 CURVE SMOOTH",
"167 60 OFFCURVE",
"119 106 OFFCURVE",
"146 235 CURVE SMOOTH",
"233 644 LINE",
"151 644 LINE",
"65 236 LINE SMOOTH",
"32 82 OFFCURVE",
"110 -10 OFFCURVE",
"283 -10 CURVE SMOOTH"
);
},
{
closed = 1;
nodes = (
"457 688 LINE",
"572 856 LINE",
"498 856 LINE",
"391 688 LINE"
);
}
);
width = 671;
}
);
leftKerningGroup = U;
note = Uacute;
rightKerningGroup = U;
unicode = 00DA;
},
{
glyphname = Ubreve;
lastChange = "2015-11-24 11:57:53 +0000";
layers = (
{
layerId = "1336773A-60E9-4881-855D-D55F9632DBDF";
name = "Light Italic";
paths = (
{
closed = 1;
nodes = (
"475 -10 OFFCURVE",
"571 70 OFFCURVE",
"606 236 CURVE SMOOTH",
"692 644 LINE",
"610 644 LINE",
"523 235 LINE SMOOTH",
"496 109 OFFCURVE",
"425 60 OFFCURVE",
"298 60 CURVE SMOOTH",
"167 60 OFFCURVE",
"119 106 OFFCURVE",
"146 235 CURVE SMOOTH",
"233 644 LINE",
"151 644 LINE",
"65 236 LINE SMOOTH",
"32 82 OFFCURVE",
"110 -10 OFFCURVE",
"283 -10 CURVE SMOOTH"
);
},
{
closed = 1;
nodes = (
"503 688 OFFCURVE",
"549 739 OFFCURVE",
"565 814 CURVE",
"504 814 LINE",
"493 763 OFFCURVE",
"463 740 OFFCURVE",
"419 740 CURVE SMOOTH",
"372 740 OFFCURVE",
"355 763 OFFCURVE",
"366 814 CURVE",
"311 814 LINE",
"296 739 OFFCURVE",
"327 688 OFFCURVE",
"410 688 CURVE SMOOTH"
);
}
);
width = 671;
}
);
leftKerningGroup = U;
note = Ubreve;
rightKerningGroup = U;
unicode = 016C;
},
{
glyphname = Ucaron;
lastChange = "2015-11-24 11:57:53 +0000";
layers = (
{
layerId = "1336773A-60E9-4881-855D-D55F9632DBDF";
name = "Light Italic";
paths = (
{
closed = 1;
nodes = (
"475 -10 OFFCURVE",
"571 70 OFFCURVE",
"606 236 CURVE SMOOTH",
"692 644 LINE",
"610 644 LINE",
"523 235 LINE SMOOTH",
"496 109 OFFCURVE",
"425 60 OFFCURVE",
"298 60 CURVE SMOOTH",
"167 60 OFFCURVE",
"119 106 OFFCURVE",
"146 235 CURVE SMOOTH",
"233 644 LINE",
"151 644 LINE",
"65 236 LINE SMOOTH",
"32 82 OFFCURVE",
"110 -10 OFFCURVE",
"283 -10 CURVE SMOOTH"
);
},
{
closed = 1;
nodes = (
"464 688 LINE",
"610 836 LINE",
"536 836 LINE",
"437 734 LINE",
"382 836 LINE",
"315 836 LINE",
"398 688 LINE"
);
}
);
width = 671;
}
);
leftKerningGroup = U;
note = Ucaron;
rightKerningGroup = U;
unicode = 01D3;
},
{
glyphname = Ucircumflex;
lastChange = "2015-11-24 11:57:54 +0000";
layers = (
{
layerId = "1336773A-60E9-4881-855D-D55F9632DBDF";
name = "Light Italic";
paths = (
{
closed = 1;
nodes = (
"475 -10 OFFCURVE",
"571 70 OFFCURVE",
"606 236 CURVE SMOOTH",
"692 644 LINE",
"610 644 LINE",
"523 235 LINE SMOOTH",
"496 109 OFFCURVE",
"425 60 OFFCURVE",
"298 60 CURVE SMOOTH",
"167 60 OFFCURVE",
"119 106 OFFCURVE",
"146 235 CURVE SMOOTH",
"233 644 LINE",
"151 644 LINE",
"65 236 LINE SMOOTH",
"32 82 OFFCURVE",
"110 -10 OFFCURVE",
"283 -10 CURVE SMOOTH"
);
},
{
closed = 1;
nodes = (
"357 688 LINE",
"455 790 LINE",
"511 688 LINE",
"579 688 LINE",
"495 836 LINE",
"429 836 LINE",
"284 688 LINE"
);
}
);
width = 671;
}
);
leftKerningGroup = U;
note = Ucircumflex;
rightKerningGroup = U;
unicode = 00DB;
},
{
glyphname = Udieresis;
lastChange = "2015-11-24 11:57:52 +0000";
layers = (
{
layerId = "1336773A-60E9-4881-855D-D55F9632DBDF";
name = "Light Italic";
paths = (
{
closed = 1;
nodes = (
"475 -10 OFFCURVE",
"571 70 OFFCURVE",
"606 236 CURVE SMOOTH",
"692 644 LINE",
"610 644 LINE",
"523 235 LINE SMOOTH",
"496 109 OFFCURVE",
"425 60 OFFCURVE",
"298 60 CURVE SMOOTH",
"167 60 OFFCURVE",
"119 106 OFFCURVE",
"146 235 CURVE SMOOTH",
"233 644 LINE",
"151 644 LINE",
"65 236 LINE SMOOTH",
"32 82 OFFCURVE",
"110 -10 OFFCURVE",
"283 -10 CURVE SMOOTH"
);
},
{
closed = 1;
nodes = (
"374 711 LINE",
"390 786 LINE",
"313 786 LINE",
"297 711 LINE"
);
},
{
closed = 1;
nodes = (
"550 711 LINE",
"566 786 LINE",
"488 786 LINE",
"472 711 LINE"
);
}
);
width = 671;
}
);
leftKerningGroup = U;
note = Udieresis;
rightKerningGroup = U;
unicode = 00DC;
},
{
glyphname = Udieresisacute;
lastChange = "2015-11-24 11:57:53 +0000";
layers = (
{
layerId = "1336773A-60E9-4881-855D-D55F9632DBDF";
name = "Light Italic";
paths = (
{
closed = 1;
nodes = (
"475 -10 OFFCURVE",
"571 70 OFFCURVE",
"606 236 CURVE SMOOTH",
"692 644 LINE",
"610 644 LINE",
"523 235 LINE SMOOTH",
"496 109 OFFCURVE",
"425 60 OFFCURVE",
"298 60 CURVE SMOOTH",
"167 60 OFFCURVE",
"119 106 OFFCURVE",
"146 235 CURVE SMOOTH",
"233 644 LINE",
"151 644 LINE",
"65 236 LINE SMOOTH",
"32 82 OFFCURVE",
"110 -10 OFFCURVE",
"283 -10 CURVE SMOOTH"
);
},
{
closed = 1;
nodes = (
"372 688 LINE",
"388 763 LINE",
"311 763 LINE",
"295 688 LINE"
);
},
{
closed = 1;
nodes = (
"568 688 LINE",
"584 763 LINE",
"506 763 LINE",
"490 688 LINE"
);
},
{
closed = 1;
nodes = (
"475 771 LINE",
"570 896 LINE",
"505 896 LINE",
"416 771 LINE"
);
}
);
width = 671;
}
);
leftKerningGroup = U;
note = Udieresisacute;
rightKerningGroup = U;
unicode = 01D7;
},
{
glyphname = Udieresiscaron;
lastChange = "2015-11-24 11:57:53 +0000";
layers = (
{
layerId = "1336773A-60E9-4881-855D-D55F9632DBDF";
name = "Light Italic";
paths = (
{
closed = 1;
nodes = (
"475 -10 OFFCURVE",
"571 70 OFFCURVE",
"606 236 CURVE SMOOTH",
"692 644 LINE",
"610 644 LINE",
"523 235 LINE SMOOTH",
"496 109 OFFCURVE",
"425 60 OFFCURVE",
"298 60 CURVE SMOOTH",
"167 60 OFFCURVE",
"119 106 OFFCURVE",
"146 235 CURVE SMOOTH",
"233 644 LINE",
"151 644 LINE",
"65 236 LINE SMOOTH",
"32 82 OFFCURVE",
"110 -10 OFFCURVE",
"283 -10 CURVE SMOOTH"
);
},
{
closed = 1;
nodes = (
"368 688 LINE",
"384 763 LINE",
"306 763 LINE",
"290 688 LINE"
);
},
{
closed = 1;
nodes = (
"563 688 LINE",
"579 763 LINE",
"502 763 LINE",
"486 688 LINE"
);
},
{
closed = 1;
nodes = (
"481 771 LINE",
"616 889 LINE",
"544 889 LINE",
"453 806 LINE",
"396 889 LINE",
"329 889 LINE",
"415 771 LINE"
);
}
);
width = 671;
}
);
leftKerningGroup = U;
note = Udieresiscaron;
rightKerningGroup = U;
unicode = 01D9;
},
{
glyphname = Udieresisgrave;
lastChange = "2015-11-24 11:57:54 +0000";
layers = (
{
layerId = "1336773A-60E9-4881-855D-D55F9632DBDF";
name = "Light Italic";
paths = (
{
closed = 1;
nodes = (
"475 -10 OFFCURVE",
"571 70 OFFCURVE",
"606 236 CURVE SMOOTH",
"692 644 LINE",
"610 644 LINE",
"523 235 LINE SMOOTH",
"496 109 OFFCURVE",
"425 60 OFFCURVE",
"298 60 CURVE SMOOTH",
"167 60 OFFCURVE",
"119 106 OFFCURVE",
"146 235 CURVE SMOOTH",
"233 644 LINE",
"151 644 LINE",
"65 236 LINE SMOOTH",
"32 82 OFFCURVE",
"110 -10 OFFCURVE",
"283 -10 CURVE SMOOTH"
);
},
{
closed = 1;
nodes = (
"371 688 LINE",
"387 763 LINE",
"310 763 LINE",
"294 688 LINE"
);
},
{
closed = 1;
nodes = (
"567 688 LINE",
"583 763 LINE",
"505 763 LINE",
"489 688 LINE"
);
},
{
closed = 1;
nodes = (
"479 771 LINE",
"444 896 LINE",
"379 896 LINE",
"420 771 LINE"
);
}
);
width = 671;
}
);
leftKerningGroup = U;
note = Udieresisgrave;
rightKerningGroup = U;
unicode = 01DB;
},
{
glyphname = Udieresismacron;
lastChange = "2015-11-24 11:57:53 +0000";
layers = (
{
layerId = "1336773A-60E9-4881-855D-D55F9632DBDF";
name = "Light Italic";
paths = (
{
closed = 1;
nodes = (
"475 -10 OFFCURVE",
"571 70 OFFCURVE",
"606 236 CURVE SMOOTH",
"692 644 LINE",
"610 644 LINE",
"523 235 LINE SMOOTH",
"496 109 OFFCURVE",
"425 60 OFFCURVE",
"298 60 CURVE SMOOTH",
"167 60 OFFCURVE",
"119 106 OFFCURVE",
"146 235 CURVE SMOOTH",
"233 644 LINE",
"151 644 LINE",
"65 236 LINE SMOOTH",
"32 82 OFFCURVE",
"110 -10 OFFCURVE",
"283 -10 CURVE SMOOTH"
);
},
{
closed = 1;
nodes = (
"385 705 LINE",
"401 780 LINE",
"324 780 LINE",
"308 705 LINE"
);
},
{
closed = 1;
nodes = (
"561 705 LINE",
"577 780 LINE",
"499 780 LINE",
"483 705 LINE"
);
},
{
closed = 1;
nodes = (
"599 826 LINE",
"611 885 LINE",
"324 885 LINE",
"312 826 LINE"
);
}
);
width = 671;
}
);
leftKerningGroup = U;
note = Udieresismacron;
rightKerningGroup = U;
unicode = 01D5;
},
{
glyphname = Udotbelow;
lastChange = "2015-11-24 11:57:53 +0000";
layers = (
{
layerId = "1336773A-60E9-4881-855D-D55F9632DBDF";
name = "Light Italic";
paths = (
{
closed = 1;
nodes = (
"475 -10 OFFCURVE",
"571 70 OFFCURVE",
"606 236 CURVE SMOOTH",
"692 644 LINE",
"610 644 LINE",
"523 235 LINE SMOOTH",
"496 109 OFFCURVE",
"425 60 OFFCURVE",
"298 60 CURVE SMOOTH",
"167 60 OFFCURVE",
"119 106 OFFCURVE",
"146 235 CURVE SMOOTH",
"233 644 LINE",
"151 644 LINE",
"65 236 LINE SMOOTH",
"32 82 OFFCURVE",
"110 -10 OFFCURVE",
"283 -10 CURVE SMOOTH"
);
},
{
closed = 1;
nodes = (
"291 -164 LINE",
"307 -87 LINE",
"227 -87 LINE",
"211 -164 LINE"
);
}
);
width = 671;
}
);
leftKerningGroup = U;
note = Udotbelow;
rightKerningGroup = U;
unicode = 1EE4;
},
{
glyphname = Ugrave;
lastChange = "2015-11-24 11:57:52 +0000";
layers = (
{
layerId = "1336773A-60E9-4881-855D-D55F9632DBDF";
name = "Light Italic";
paths = (
{
closed = 1;
nodes = (
"475 -10 OFFCURVE",
"571 70 OFFCURVE",
"606 236 CURVE SMOOTH",
"692 644 LINE",
"610 644 LINE",
"523 235 LINE SMOOTH",
"496 109 OFFCURVE",
"425 60 OFFCURVE",
"298 60 CURVE SMOOTH",
"167 60 OFFCURVE",
"119 106 OFFCURVE",
"146 235 CURVE SMOOTH",
"233 644 LINE",
"151 644 LINE",
"65 236 LINE SMOOTH",
"32 82 OFFCURVE",
"110 -10 OFFCURVE",
"283 -10 CURVE SMOOTH"
);
},
{
closed = 1;
nodes = (
"481 688 LINE",
"446 856 LINE",
"372 856 LINE",
"415 688 LINE"
);
}
);
width = 671;
}
);
leftKerningGroup = U;
note = Ugrave;
rightKerningGroup = U;
unicode = 00D9;
},
{
glyphname = Uhookabove;
lastChange = "2015-11-24 11:57:51 +0000";
layers = (
{
layerId = "1336773A-60E9-4881-855D-D55F9632DBDF";
name = "Light Italic";
paths = (
{
closed = 1;
nodes = (
"475 -10 OFFCURVE",
"571 70 OFFCURVE",
"606 236 CURVE SMOOTH",
"692 644 LINE",
"610 644 LINE",
"523 235 LINE SMOOTH",
"496 109 OFFCURVE",
"425 60 OFFCURVE",
"298 60 CURVE SMOOTH",
"167 60 OFFCURVE",
"119 106 OFFCURVE",
"146 235 CURVE SMOOTH",
"233 644 LINE",
"151 644 LINE",
"65 236 LINE SMOOTH",
"32 82 OFFCURVE",
"110 -10 OFFCURVE",
"283 -10 CURVE SMOOTH"
);
},
{
closed = 1;
nodes = (
"461 688 LINE",
"471 736 LINE",
"540 745 OFFCURVE",
"568 775 OFFCURVE",
"580 829 CURVE SMOOTH",
"592 886 OFFCURVE",
"550 920 OFFCURVE",
"478 920 CURVE SMOOTH",
"449 920 OFFCURVE",
"412 915 OFFCURVE",
"390 907 CURVE",
"380 856 LINE",
"398 863 OFFCURVE",
"427 868 OFFCURVE",
"448 868 CURVE SMOOTH",
"507 868 OFFCURVE",
"524 856 OFFCURVE",
"517 823 CURVE SMOOTH",
"509 788 OFFCURVE",
"491 775 OFFCURVE",
"413 771 CURVE",
"395 688 LINE"
);
}
);
width = 671;
}
);
leftKerningGroup = U;
note = Uhookabove;
rightKerningGroup = U;
unicode = 1EE6;
},
{
glyphname = Uhorn;
lastChange = "2015-11-24 11:57:54 +0000";
layers = (
{
layerId = "1336773A-60E9-4881-855D-D55F9632DBDF";
name = "Light Italic";
paths = (
{
closed = 1;
nodes = (
"32 82 OFFCURVE",
"110 -10 OFFCURVE",
"283 -10 CURVE SMOOTH",
"475 -10 OFFCURVE",
"571 70 OFFCURVE",
"606 236 CURVE SMOOTH",
"663 505 LINE",
"775 506 OFFCURVE",
"842 553 OFFCURVE",
"871 688 CURVE",
"800 688 LINE",
"781 598 OFFCURVE",
"754 570 OFFCURVE",
"676 569 CURVE",
"692 644 LINE",
"610 644 LINE",
"523 235 LINE SMOOTH",
"496 109 OFFCURVE",
"425 60 OFFCURVE",
"298 60 CURVE SMOOTH",
"167 60 OFFCURVE",
"119 106 OFFCURVE",
"146 235 CURVE SMOOTH",
"233 644 LINE",
"151 644 LINE",
"65 236 LINE SMOOTH"
);
}
);
width = 805;
}
);
leftKerningGroup = U;
note = Uhorn;
rightKerningGroup = U;
unicode = 01AF;
},
{
glyphname = Uhornacute;
lastChange = "2015-11-24 11:57:52 +0000";
layers = (
{
layerId = "1336773A-60E9-4881-855D-D55F9632DBDF";
name = "Light Italic";
paths = (
{
closed = 1;
nodes = (
"472 688 LINE",
"587 856 LINE",
"513 856 LINE",
"406 688 LINE"
);
},
{
closed = 1;
nodes = (
"32 82 OFFCURVE",
"110 -10 OFFCURVE",
"283 -10 CURVE SMOOTH",
"475 -10 OFFCURVE",
"571 70 OFFCURVE",
"606 236 CURVE SMOOTH",
"663 505 LINE",
"775 506 OFFCURVE",
"842 553 OFFCURVE",
"871 688 CURVE",
"800 688 LINE",
"781 598 OFFCURVE",
"754 570 OFFCURVE",
"676 569 CURVE",
"692 644 LINE",
"610 644 LINE",
"523 235 LINE SMOOTH",
"496 109 OFFCURVE",
"425 60 OFFCURVE",
"298 60 CURVE SMOOTH",
"167 60 OFFCURVE",
"119 106 OFFCURVE",
"146 235 CURVE SMOOTH",
"233 644 LINE",
"151 644 LINE",
"65 236 LINE SMOOTH"
);
}
);
width = 805;
}
);
leftKerningGroup = U;
note = Uhornacute;
rightKerningGroup = U;
unicode = 1EE8;
},
{
glyphname = Uhorndotbelow;
lastChange = "2015-11-24 11:57:51 +0000";
layers = (
{
layerId = "1336773A-60E9-4881-855D-D55F9632DBDF";
name = "Light Italic";
paths = (
{
closed = 1;
nodes = (
"289 -164 LINE",
"305 -87 LINE",
"225 -87 LINE",
"209 -164 LINE"
);
},
{
closed = 1;
nodes = (
"32 82 OFFCURVE",
"110 -10 OFFCURVE",
"283 -10 CURVE SMOOTH",
"475 -10 OFFCURVE",
"571 70 OFFCURVE",
"606 236 CURVE SMOOTH",
"663 505 LINE",
"775 506 OFFCURVE",
"842 553 OFFCURVE",
"871 688 CURVE",
"800 688 LINE",
"781 598 OFFCURVE",
"754 570 OFFCURVE",
"676 569 CURVE",
"692 644 LINE",
"610 644 LINE",
"523 235 LINE SMOOTH",
"496 109 OFFCURVE",
"425 60 OFFCURVE",
"298 60 CURVE SMOOTH",
"167 60 OFFCURVE",
"119 106 OFFCURVE",
"146 235 CURVE SMOOTH",
"233 644 LINE",
"151 644 LINE",
"65 236 LINE SMOOTH"
);
}
);
width = 805;
}
);
leftKerningGroup = U;
note = Uhorndotbelow;
rightKerningGroup = U;
unicode = 1EF0;
},
{
glyphname = Uhorngrave;
lastChange = "2015-11-24 11:57:54 +0000";
layers = (
{
layerId = "1336773A-60E9-4881-855D-D55F9632DBDF";
name = "Light Italic";
paths = (
{
closed = 1;
nodes = (
"474 688 LINE",
"439 856 LINE",
"365 856 LINE",
"408 688 LINE"
);
},
{
closed = 1;
nodes = (
"32 82 OFFCURVE",
"110 -10 OFFCURVE",
"283 -10 CURVE SMOOTH",
"475 -10 OFFCURVE",
"571 70 OFFCURVE",
"606 236 CURVE SMOOTH",
"663 505 LINE",
"775 506 OFFCURVE",
"842 553 OFFCURVE",
"871 688 CURVE",
"800 688 LINE",
"781 598 OFFCURVE",
"754 570 OFFCURVE",
"676 569 CURVE",
"692 644 LINE",
"610 644 LINE",
"523 235 LINE SMOOTH",
"496 109 OFFCURVE",
"425 60 OFFCURVE",
"298 60 CURVE SMOOTH",
"167 60 OFFCURVE",
"119 106 OFFCURVE",
"146 235 CURVE SMOOTH",
"233 644 LINE",
"151 644 LINE",
"65 236 LINE SMOOTH"
);
}
);
width = 805;
}
);
leftKerningGroup = U;
note = Uhorngrave;
rightKerningGroup = U;
unicode = 1EEA;
},
{
glyphname = Uhornhookabove;
lastChange = "2015-11-24 11:57:54 +0000";
layers = (
{
layerId = "1336773A-60E9-4881-855D-D55F9632DBDF";
name = "Light Italic";
paths = (
{
closed = 1;
nodes = (
"470 688 LINE",
"480 736 LINE",
"549 745 OFFCURVE",
"577 775 OFFCURVE",
"589 829 CURVE SMOOTH",
"601 886 OFFCURVE",
"559 920 OFFCURVE",
"487 920 CURVE SMOOTH",
"458 920 OFFCURVE",
"421 915 OFFCURVE",
"399 907 CURVE",
"389 856 LINE",
"407 863 OFFCURVE",
"436 868 OFFCURVE",
"457 868 CURVE SMOOTH",
"516 868 OFFCURVE",
"533 856 OFFCURVE",
"526 823 CURVE SMOOTH",
"518 788 OFFCURVE",
"500 775 OFFCURVE",
"422 771 CURVE",
"404 688 LINE"
);
},
{
closed = 1;
nodes = (
"32 82 OFFCURVE",
"110 -10 OFFCURVE",
"283 -10 CURVE SMOOTH",
"475 -10 OFFCURVE",
"571 70 OFFCURVE",
"606 236 CURVE SMOOTH",
"663 505 LINE",
"775 506 OFFCURVE",
"842 553 OFFCURVE",
"871 688 CURVE",
"800 688 LINE",
"781 598 OFFCURVE",
"754 570 OFFCURVE",
"676 569 CURVE",
"692 644 LINE",
"610 644 LINE",
"523 235 LINE SMOOTH",
"496 109 OFFCURVE",
"425 60 OFFCURVE",
"298 60 CURVE SMOOTH",
"167 60 OFFCURVE",
"119 106 OFFCURVE",
"146 235 CURVE SMOOTH",
"233 644 LINE",
"151 644 LINE",
"65 236 LINE SMOOTH"
);
}
);
width = 805;
}
);
leftKerningGroup = U;
note = Uhornhookabove;
rightKerningGroup = U;
unicode = 1EEC;
},
{
glyphname = Uhorntilde;
lastChange = "2015-11-24 11:57:52 +0000";
layers = (
{
layerId = "1336773A-60E9-4881-855D-D55F9632DBDF";
name = "Light Italic";
paths = (
{
closed = 1;
nodes = (
"543 707 OFFCURVE",
"576 719 OFFCURVE",
"593 737 CURVE",
"606 801 LINE",
"583 776 OFFCURVE",
"556 765 OFFCURVE",
"522 765 CURVE SMOOTH",
"473 765 OFFCURVE",
"441 803 OFFCURVE",
"386 803 CURVE SMOOTH",
"355 803 OFFCURVE",
"316 791 OFFCURVE",
"296 773 CURVE",
"283 710 LINE",
"310 736 OFFCURVE",
"341 745 OFFCURVE",
"373 745 CURVE SMOOTH",
"416 745 OFFCURVE",
"457 707 OFFCURVE",
"509 707 CURVE SMOOTH"
);
},
{
closed = 1;
nodes = (
"32 82 OFFCURVE",
"110 -10 OFFCURVE",
"283 -10 CURVE SMOOTH",
"475 -10 OFFCURVE",
"571 70 OFFCURVE",
"606 236 CURVE SMOOTH",
"663 505 LINE",
"775 506 OFFCURVE",
"842 553 OFFCURVE",
"871 688 CURVE",
"800 688 LINE",
"781 598 OFFCURVE",
"754 570 OFFCURVE",
"676 569 CURVE",
"692 644 LINE",
"610 644 LINE",
"523 235 LINE SMOOTH",
"496 109 OFFCURVE",
"425 60 OFFCURVE",
"298 60 CURVE SMOOTH",
"167 60 OFFCURVE",
"119 106 OFFCURVE",
"146 235 CURVE SMOOTH",
"233 644 LINE",
"151 644 LINE",
"65 236 LINE SMOOTH"
);
}
);
width = 805;
}
);
leftKerningGroup = U;
note = Uhorntilde;
rightKerningGroup = U;
unicode = 1EEE;
},
{
glyphname = Uhungarumlaut;
lastChange = "2015-11-24 11:57:52 +0000";
layers = (
{
layerId = "1336773A-60E9-4881-855D-D55F9632DBDF";
name = "Light Italic";
paths = (
{
closed = 1;
nodes = (
"475 -10 OFFCURVE",
"571 70 OFFCURVE",
"606 236 CURVE SMOOTH",
"692 644 LINE",
"610 644 LINE",
"523 235 LINE SMOOTH",
"496 109 OFFCURVE",
"425 60 OFFCURVE",
"298 60 CURVE SMOOTH",
"167 60 OFFCURVE",
"119 106 OFFCURVE",
"146 235 CURVE SMOOTH",
"233 644 LINE",
"151 644 LINE",
"65 236 LINE SMOOTH",
"32 82 OFFCURVE",
"110 -10 OFFCURVE",
"283 -10 CURVE SMOOTH"
);
},
{
closed = 1;
nodes = (
"325 688 LINE",
"437 840 LINE",
"359 840 LINE",
"257 688 LINE"
);
},
{
closed = 1;
nodes = (
"530 688 LINE",
"643 840 LINE",
"565 840 LINE",
"462 688 LINE"
);
}
);
width = 671;
}
);
leftKerningGroup = U;
note = Uhungarumlaut;
rightKerningGroup = U;
unicode = 0170;
},
{
glyphname = Umacron;
lastChange = "2015-11-24 11:57:54 +0000";
layers = (
{
layerId = "1336773A-60E9-4881-855D-D55F9632DBDF";
name = "Light Italic";
paths = (
{
closed = 1;
nodes = (
"475 -10 OFFCURVE",
"571 70 OFFCURVE",
"606 236 CURVE SMOOTH",
"692 644 LINE",
"610 644 LINE",
"523 235 LINE SMOOTH",
"496 109 OFFCURVE",
"425 60 OFFCURVE",
"298 60 CURVE SMOOTH",
"167 60 OFFCURVE",
"119 106 OFFCURVE",
"146 235 CURVE SMOOTH",
"233 644 LINE",
"151 644 LINE",
"65 236 LINE SMOOTH",
"32 82 OFFCURVE",
"110 -10 OFFCURVE",
"283 -10 CURVE SMOOTH"
);
},
{
closed = 1;
nodes = (
"570 720 LINE",
"582 779 LINE",
"295 779 LINE",
"283 720 LINE"
);
}
);
width = 671;
}
);
leftKerningGroup = U;
note = Umacron;
rightKerningGroup = U;
unicode = 016A;
},
{
glyphname = Uogonek;
lastChange = "2015-11-24 11:57:53 +0000";
layers = (
{
layerId = "1336773A-60E9-4881-855D-D55F9632DBDF";
name = "Light Italic";
paths = (
{
closed = 1;
nodes = (
"273 -220 OFFCURVE",
"301 -216 OFFCURVE",
"318 -208 CURVE",
"330 -152 LINE",
"317 -159 OFFCURVE",
"295 -163 OFFCURVE",
"279 -163 CURVE SMOOTH",
"246 -163 OFFCURVE",
"231 -154 OFFCURVE",
"238 -120 CURVE SMOOTH",
"246 -80 OFFCURVE",
"275 -41 OFFCURVE",
"322 -8 CURVE",
"488 2 OFFCURVE",
"573 81 OFFCURVE",
"606 236 CURVE SMOOTH",
"692 644 LINE",
"610 644 LINE",
"523 235 LINE SMOOTH",
"496 109 OFFCURVE",
"425 60 OFFCURVE",
"298 60 CURVE SMOOTH",
"167 60 OFFCURVE",
"119 106 OFFCURVE",
"146 235 CURVE SMOOTH",
"233 644 LINE",
"151 644 LINE",
"65 236 LINE SMOOTH",
"34 90 OFFCURVE",
"102 0 OFFCURVE",
"256 -9 CURVE",
"213 -40 OFFCURVE",
"178 -85 OFFCURVE",
"168 -132 CURVE SMOOTH",
"155 -195 OFFCURVE",
"195 -220 OFFCURVE",
"249 -220 CURVE SMOOTH"
);
}
);
width = 671;
}
);
leftKerningGroup = U;
note = Uogonek;
rightKerningGroup = U;
unicode = 0172;
},
{
glyphname = Uring;
lastChange = "2015-11-24 11:57:52 +0000";
layers = (
{
layerId = "1336773A-60E9-4881-855D-D55F9632DBDF";
name = "Light Italic";
paths = (
{
closed = 1;
nodes = (
"475 -10 OFFCURVE",
"571 70 OFFCURVE",
"606 236 CURVE SMOOTH",
"692 644 LINE",
"610 644 LINE",
"523 235 LINE SMOOTH",
"496 109 OFFCURVE",
"425 60 OFFCURVE",
"298 60 CURVE SMOOTH",
"167 60 OFFCURVE",
"119 106 OFFCURVE",
"146 235 CURVE SMOOTH",
"233 644 LINE",
"151 644 LINE",
"65 236 LINE SMOOTH",
"32 82 OFFCURVE",
"110 -10 OFFCURVE",
"283 -10 CURVE SMOOTH"
);
},
{
closed = 1;
nodes = (
"490 688 OFFCURVE",
"539 735 OFFCURVE",
"552 795 CURVE SMOOTH",
"565 855 OFFCURVE",
"530 903 OFFCURVE",
"464 903 CURVE SMOOTH",
"393 903 OFFCURVE",
"345 855 OFFCURVE",
"332 795 CURVE SMOOTH",
"319 735 OFFCURVE",
"354 688 OFFCURVE",
"418 688 CURVE SMOOTH"
);
},
{
closed = 1;
nodes = (
"385 734 OFFCURVE",
"373 761 OFFCURVE",
"380 795 CURVE SMOOTH",
"387 829 OFFCURVE",
"417 856 OFFCURVE",
"454 856 CURVE SMOOTH",
"497 856 OFFCURVE",
"510 829 OFFCURVE",
"503 795 CURVE SMOOTH",
"496 761 OFFCURVE",
"467 734 OFFCURVE",
"428 734 CURVE SMOOTH"
);
}
);
width = 671;
}
);
leftKerningGroup = U;
note = Uring;
rightKerningGroup = U;
unicode = 016E;
},
{
glyphname = Utilde;
lastChange = "2015-11-24 11:57:53 +0000";
layers = (
{
layerId = "1336773A-60E9-4881-855D-D55F9632DBDF";
name = "Light Italic";
paths = (
{
closed = 1;
nodes = (
"475 -10 OFFCURVE",
"571 70 OFFCURVE",
"606 236 CURVE SMOOTH",
"692 644 LINE",
"610 644 LINE",
"523 235 LINE SMOOTH",
"496 109 OFFCURVE",
"425 60 OFFCURVE",
"298 60 CURVE SMOOTH",
"167 60 OFFCURVE",
"119 106 OFFCURVE",
"146 235 CURVE SMOOTH",
"233 644 LINE",
"151 644 LINE",
"65 236 LINE SMOOTH",
"32 82 OFFCURVE",
"110 -10 OFFCURVE",
"283 -10 CURVE SMOOTH"
);
},
{
closed = 1;
nodes = (
"533 708 OFFCURVE",
"566 720 OFFCURVE",
"583 738 CURVE",
"596 802 LINE",
"573 777 OFFCURVE",
"546 766 OFFCURVE",
"512 766 CURVE SMOOTH",
"463 766 OFFCURVE",
"431 804 OFFCURVE",
"376 804 CURVE SMOOTH",
"345 804 OFFCURVE",
"306 792 OFFCURVE",
"286 774 CURVE",
"273 711 LINE",
"300 737 OFFCURVE",
"331 746 OFFCURVE",
"363 746 CURVE SMOOTH",
"406 746 OFFCURVE",
"447 708 OFFCURVE",
"499 708 CURVE SMOOTH"
);
}
);
width = 671;
}
);
leftKerningGroup = U;
note = Utilde;
rightKerningGroup = U;
unicode = 0168;
},
{
glyphname = V;
lastChange = "2015-11-24 11:57:51 +0000";
layers = (
{
layerId = "1336773A-60E9-4881-855D-D55F9632DBDF";
name = "Light Italic";
paths = (
{
closed = 1;
nodes = (
"341 0 LINE",
"721 644 LINE",
"632 644 LINE",
"305 83 LINE",
"217 644 LINE",
"136 644 LINE",
"245 0 LINE"
);
}
);
width = 685;
}
);
note = V;
unicode = 0056;
},
{
glyphname = W;
lastChange = "2015-11-24 11:57:53 +0000";
layers = (
{
layerId = "1336773A-60E9-4881-855D-D55F9632DBDF";
name = "Light Italic";
paths = (
{
closed = 1;
nodes = (
"240 0 LINE",
"491 490 LINE",
"527 0 LINE",
"612 0 LINE",
"897 644 LINE",
"817 644 LINE",
"582 114 LINE",
"544 644 LINE",
"477 644 LINE",
"462 573 LINE",
"226 114 LINE",
"217 644 LINE",
"136 644 LINE",
"150 0 LINE"
);
}
);
width = 861;
}
);
leftKerningGroup = W;
note = W;
rightKerningGroup = W;
unicode = 0057;
},
{
glyphname = Wacute;
lastChange = "2015-11-24 11:57:51 +0000";
layers = (
{
layerId = "1336773A-60E9-4881-855D-D55F9632DBDF";
name = "Light Italic";
paths = (
{
closed = 1;
nodes = (
"240 0 LINE",
"491 490 LINE",
"527 0 LINE",
"612 0 LINE",
"897 644 LINE",
"817 644 LINE",
"582 114 LINE",
"544 644 LINE",
"477 644 LINE",
"462 573 LINE",
"226 114 LINE",
"217 644 LINE",
"136 644 LINE",
"150 0 LINE"
);
},
{
closed = 1;
nodes = (
"561 688 LINE",
"676 856 LINE",
"602 856 LINE",
"495 688 LINE"
);
}
);
width = 861;
}
);
leftKerningGroup = W;
note = Wacute;
rightKerningGroup = W;
unicode = 1E82;
},
{
glyphname = Wcircumflex;
lastChange = "2015-11-24 11:57:51 +0000";
layers = (
{
layerId = "1336773A-60E9-4881-855D-D55F9632DBDF";
name = "Light Italic";
paths = (
{
closed = 1;
nodes = (
"240 0 LINE",
"491 490 LINE",
"527 0 LINE",
"612 0 LINE",
"897 644 LINE",
"817 644 LINE",
"582 114 LINE",
"544 644 LINE",
"477 644 LINE",
"462 573 LINE",
"226 114 LINE",
"217 644 LINE",
"136 644 LINE",
"150 0 LINE"
);
},
{
closed = 1;
nodes = (
"457 688 LINE",
"555 790 LINE",
"611 688 LINE",
"679 688 LINE",
"595 836 LINE",
"529 836 LINE",
"384 688 LINE"
);
}
);
width = 861;
}
);
leftKerningGroup = W;
note = Wcircumflex;
rightKerningGroup = W;
unicode = 0174;
},
{
glyphname = Wdieresis;
lastChange = "2015-11-24 11:57:51 +0000";
layers = (
{
layerId = "1336773A-60E9-4881-855D-D55F9632DBDF";
name = "Light Italic";
paths = (
{
closed = 1;
nodes = (
"240 0 LINE",
"491 490 LINE",
"527 0 LINE",
"612 0 LINE",
"897 644 LINE",
"817 644 LINE",
"582 114 LINE",
"544 644 LINE",
"477 644 LINE",
"462 573 LINE",
"226 114 LINE",
"217 644 LINE",
"136 644 LINE",
"150 0 LINE"
);
},
{
closed = 1;
nodes = (
"486 708 LINE",
"502 783 LINE",
"425 783 LINE",
"409 708 LINE"
);
},
{
closed = 1;
nodes = (
"662 708 LINE",
"678 783 LINE",
"600 783 LINE",
"584 708 LINE"
);
}
);
width = 861;
}
);
leftKerningGroup = W;
note = Wdieresis;
rightKerningGroup = W;
unicode = 1E84;
},
{
glyphname = Wgrave;
lastChange = "2015-11-24 11:57:53 +0000";
layers = (
{
layerId = "1336773A-60E9-4881-855D-D55F9632DBDF";
name = "Light Italic";
paths = (
{
closed = 1;
nodes = (
"240 0 LINE",
"491 490 LINE",
"527 0 LINE",
"612 0 LINE",
"897 644 LINE",
"817 644 LINE",
"582 114 LINE",
"544 644 LINE",
"477 644 LINE",
"462 573 LINE",
"226 114 LINE",
"217 644 LINE",
"136 644 LINE",
"150 0 LINE"
);
},
{
closed = 1;
nodes = (
"556 688 LINE",
"521 856 LINE",
"447 856 LINE",
"490 688 LINE"
);
}
);
width = 861;
}
);
leftKerningGroup = W;
note = Wgrave;
rightKerningGroup = W;
unicode = 1E80;
},
{
glyphname = X;
lastChange = "2015-11-24 11:57:52 +0000";
layers = (
{
layerId = "1336773A-60E9-4881-855D-D55F9632DBDF";
name = "Light Italic";
paths = (
{
closed = 1;
nodes = (
"95 0 LINE",
"330 257 LINE",
"457 0 LINE",
"552 0 LINE",
"393 320 LINE",
"685 644 LINE",
"591 644 LINE",
"356 381 LINE",
"233 644 LINE",
"139 644 LINE",
"295 320 LINE",
"0 0 LINE"
);
}
);
width = 652;
}
);
note = X;
unicode = 0058;
},
{
glyphname = Y;
lastChange = "2015-11-24 11:57:52 +0000";
layers = (
{
layerId = "1336773A-60E9-4881-855D-D55F9632DBDF";
name = "Light Italic";
paths = (
{
closed = 1;
nodes = (
"312 0 LINE",
"363 240 LINE",
"678 644 LINE",
"589 644 LINE",
"332 310 LINE",
"217 644 LINE",
"136 644 LINE",
"281 240 LINE",
"230 0 LINE"
);
}
);
width = 642;
}
);
leftKerningGroup = Y;
note = Y;
rightKerningGroup = Y;
unicode = 0059;
},
{
glyphname = Yacute;
lastChange = "2015-11-24 11:57:54 +0000";
layers = (
{
layerId = "1336773A-60E9-4881-855D-D55F9632DBDF";
name = "Light Italic";
paths = (
{
closed = 1;
nodes = (
"312 0 LINE",
"363 240 LINE",
"678 644 LINE",
"589 644 LINE",
"332 310 LINE",
"217 644 LINE",
"136 644 LINE",
"281 240 LINE",
"230 0 LINE"
);
},
{
closed = 1;
nodes = (
"438 688 LINE",
"553 856 LINE",
"479 856 LINE",
"372 688 LINE"
);
}
);
width = 642;
}
);
leftKerningGroup = Y;
note = Yacute;
rightKerningGroup = Y;
unicode = 00DD;
},
{
glyphname = Ycircumflex;
lastChange = "2015-11-24 11:57:52 +0000";
layers = (
{
layerId = "1336773A-60E9-4881-855D-D55F9632DBDF";
name = "Light Italic";
paths = (
{
closed = 1;
nodes = (
"312 0 LINE",
"363 240 LINE",
"678 644 LINE",
"589 644 LINE",
"332 310 LINE",
"217 644 LINE",
"136 644 LINE",
"281 240 LINE",
"230 0 LINE"
);
},
{
closed = 1;
nodes = (
"343 688 LINE",
"441 790 LINE",
"497 688 LINE",
"565 688 LINE",
"481 836 LINE",
"415 836 LINE",
"270 688 LINE"
);
}
);
width = 642;
}
);
leftKerningGroup = Y;
note = Ycircumflex;
rightKerningGroup = Y;
unicode = 0176;
},
{
glyphname = Ydieresis;
lastChange = "2015-11-24 11:57:54 +0000";
layers = (
{
layerId = "1336773A-60E9-4881-855D-D55F9632DBDF";
name = "Light Italic";
paths = (
{
closed = 1;
nodes = (
"312 0 LINE",
"363 240 LINE",
"678 644 LINE",
"589 644 LINE",
"332 310 LINE",
"217 644 LINE",
"136 644 LINE",
"281 240 LINE",
"230 0 LINE"
);
},
{
closed = 1;
nodes = (
"372 711 LINE",
"388 786 LINE",
"311 786 LINE",
"295 711 LINE"
);
},
{
closed = 1;
nodes = (
"548 711 LINE",
"564 786 LINE",
"486 786 LINE",
"470 711 LINE"
);
}
);
width = 642;
}
);
leftKerningGroup = Y;
note = Ydieresis;
rightKerningGroup = Y;
unicode = 0178;
},
{
glyphname = Ydotaccent;
lastChange = "2015-11-24 11:57:53 +0000";
layers = (
{
layerId = "1336773A-60E9-4881-855D-D55F9632DBDF";
name = "Light Italic";
paths = (
{
closed = 1;
nodes = (
"312 0 LINE",
"363 240 LINE",
"678 644 LINE",
"589 644 LINE",
"332 310 LINE",
"217 644 LINE",
"136 644 LINE",
"281 240 LINE",
"230 0 LINE"
);
},
{
closed = 1;
nodes = (
"461 710 LINE",
"477 787 LINE",
"397 787 LINE",
"381 710 LINE"
);
}
);
width = 642;
}
);
leftKerningGroup = Y;
note = Ydotaccent;
rightKerningGroup = Y;
unicode = 1E8E;
},
{
glyphname = Ydotbelow;
lastChange = "2015-11-24 11:57:53 +0000";
layers = (
{
layerId = "1336773A-60E9-4881-855D-D55F9632DBDF";
name = "Light Italic";
paths = (
{
closed = 1;
nodes = (
"312 0 LINE",
"363 240 LINE",
"678 644 LINE",
"589 644 LINE",
"332 310 LINE",
"217 644 LINE",
"136 644 LINE",
"281 240 LINE",
"230 0 LINE"
);
},
{
closed = 1;
nodes = (
"280 -149 LINE",
"296 -72 LINE",
"216 -72 LINE",
"200 -149 LINE"
);
}
);
width = 642;
}
);
leftKerningGroup = Y;
note = Ydotbelow;
rightKerningGroup = Y;
unicode = 1EF4;
},
{
glyphname = Ygrave;
lastChange = "2015-11-24 11:57:54 +0000";
layers = (
{
layerId = "1336773A-60E9-4881-855D-D55F9632DBDF";
name = "Light Italic";
paths = (
{
closed = 1;
nodes = (
"312 0 LINE",
"363 240 LINE",
"678 644 LINE",
"589 644 LINE",
"332 310 LINE",
"217 644 LINE",
"136 644 LINE",
"281 240 LINE",
"230 0 LINE"
);
},
{
closed = 1;
nodes = (
"463 688 LINE",
"428 856 LINE",
"354 856 LINE",
"397 688 LINE"
);
}
);
width = 642;
}
);
leftKerningGroup = Y;
note = Ygrave;
rightKerningGroup = Y;
unicode = 1EF2;
},
{
glyphname = Yhookabove;
lastChange = "2015-11-24 11:57:52 +0000";
layers = (
{
layerId = "1336773A-60E9-4881-855D-D55F9632DBDF";
name = "Light Italic";
paths = (
{
closed = 1;
nodes = (
"312 0 LINE",
"363 240 LINE",
"678 644 LINE",
"589 644 LINE",
"332 310 LINE",
"217 644 LINE",
"136 644 LINE",
"281 240 LINE",
"230 0 LINE"
);
},
{
closed = 1;
nodes = (
"441 688 LINE",
"451 736 LINE",
"520 745 OFFCURVE",
"548 775 OFFCURVE",
"560 829 CURVE SMOOTH",
"572 886 OFFCURVE",
"530 920 OFFCURVE",
"458 920 CURVE SMOOTH",
"429 920 OFFCURVE",
"392 915 OFFCURVE",
"370 907 CURVE",
"360 856 LINE",
"378 863 OFFCURVE",
"407 868 OFFCURVE",
"428 868 CURVE SMOOTH",
"487 868 OFFCURVE",
"504 856 OFFCURVE",
"497 823 CURVE SMOOTH",
"489 788 OFFCURVE",
"471 775 OFFCURVE",
"393 771 CURVE",
"375 688 LINE"
);
}
);
width = 642;
}
);
leftKerningGroup = Y;
note = Yhookabove;
rightKerningGroup = Y;
unicode = 1EF6;
},
{
glyphname = Ytilde;
lastChange = "2015-11-24 11:57:54 +0000";
layers = (
{
layerId = "1336773A-60E9-4881-855D-D55F9632DBDF";
name = "Light Italic";
paths = (
{
closed = 1;
nodes = (
"312 0 LINE",
"363 240 LINE",
"678 644 LINE",
"589 644 LINE",
"332 310 LINE",
"217 644 LINE",
"136 644 LINE",
"281 240 LINE",
"230 0 LINE"
);
},
{
closed = 1;
nodes = (
"530 708 OFFCURVE",
"563 720 OFFCURVE",
"580 738 CURVE",
"593 802 LINE",
"570 777 OFFCURVE",
"543 766 OFFCURVE",
"509 766 CURVE SMOOTH",
"460 766 OFFCURVE",
"428 804 OFFCURVE",
"373 804 CURVE SMOOTH",
"342 804 OFFCURVE",
"303 792 OFFCURVE",
"283 774 CURVE",
"270 711 LINE",
"297 737 OFFCURVE",
"328 746 OFFCURVE",
"360 746 CURVE SMOOTH",
"403 746 OFFCURVE",
"444 708 OFFCURVE",
"496 708 CURVE SMOOTH"
);
}
);
width = 642;
}
);
leftKerningGroup = Y;
note = Ytilde;
rightKerningGroup = Y;
unicode = 1EF8;
},
{
glyphname = Z;
lastChange = "2015-11-24 11:57:54 +0000";
layers = (
{
layerId = "1336773A-60E9-4881-855D-D55F9632DBDF";
name = "Light Italic";
paths = (
{
closed = 1;
nodes = (
"477 0 LINE",
"490 64 LINE",
"120 64 LINE",
"598 593 LINE",
"608 644 LINE",
"153 644 LINE",
"140 579 LINE",
"491 579 LINE",
"9 46 LINE",
"0 0 LINE"
);
}
);
width = 572;
}
);
leftKerningGroup = Z;
note = Z;
rightKerningGroup = Z;
unicode = 005A;
},
{
glyphname = Zacute;
lastChange = "2015-11-24 11:57:53 +0000";
layers = (
{
layerId = "1336773A-60E9-4881-855D-D55F9632DBDF";
name = "Light Italic";
paths = (
{
closed = 1;
nodes = (
"477 0 LINE",
"490 64 LINE",
"120 64 LINE",
"598 593 LINE",
"608 644 LINE",
"153 644 LINE",
"140 579 LINE",
"491 579 LINE",
"9 46 LINE",
"0 0 LINE"
);
},
{
closed = 1;
nodes = (
"422 688 LINE",
"537 856 LINE",
"463 856 LINE",
"356 688 LINE"
);
}
);
width = 572;
}
);
leftKerningGroup = Z;
note = Zacute;
rightKerningGroup = Z;
unicode = 0179;
},
{
glyphname = Zcaron;
lastChange = "2015-11-24 11:57:53 +0000";
layers = (
{
layerId = "1336773A-60E9-4881-855D-D55F9632DBDF";
name = "Light Italic";
paths = (
{
closed = 1;
nodes = (
"477 0 LINE",
"490 64 LINE",
"120 64 LINE",
"598 593 LINE",
"608 644 LINE",
"153 644 LINE",
"140 579 LINE",
"491 579 LINE",
"9 46 LINE",
"0 0 LINE"
);
},
{
closed = 1;
nodes = (
"432 688 LINE",
"578 836 LINE",
"504 836 LINE",
"405 734 LINE",
"350 836 LINE",
"283 836 LINE",
"366 688 LINE"
);
}
);
width = 572;
}
);
leftKerningGroup = Z;
note = Zcaron;
rightKerningGroup = Z;
unicode = 017D;
},
{
glyphname = Zdotaccent;
lastChange = "2015-11-24 11:57:54 +0000";
layers = (
{
layerId = "1336773A-60E9-4881-855D-D55F9632DBDF";
name = "Light Italic";
paths = (
{
closed = 1;
nodes = (
"477 0 LINE",
"490 64 LINE",
"120 64 LINE",
"598 593 LINE",
"608 644 LINE",
"153 644 LINE",
"140 579 LINE",
"491 579 LINE",
"9 46 LINE",
"0 0 LINE"
);
},
{
closed = 1;
nodes = (
"435 710 LINE",
"451 787 LINE",
"371 787 LINE",
"355 710 LINE"
);
}
);
width = 572;
}
);
leftKerningGroup = Z;
note = Zdotaccent;
rightKerningGroup = Z;
unicode = 017B;
},
{
glyphname = Zdotbelow;
lastChange = "2015-11-24 11:57:51 +0000";
layers = (
{
layerId = "1336773A-60E9-4881-855D-D55F9632DBDF";
name = "Light Italic";
paths = (
{
closed = 1;
nodes = (
"477 0 LINE",
"490 64 LINE",
"120 64 LINE",
"598 593 LINE",
"608 644 LINE",
"153 644 LINE",
"140 579 LINE",
"491 579 LINE",
"9 46 LINE",
"0 0 LINE"
);
},
{
closed = 1;
nodes = (
"253 -164 LINE",
"269 -87 LINE",
"189 -87 LINE",
"173 -164 LINE"
);
}
);
width = 572;
}
);
leftKerningGroup = Z;
note = Zdotbelow;
rightKerningGroup = Z;
unicode = 1E92;
},
{
glyphname = a;
lastChange = "2015-11-24 11:57:52 +0000";
layers = (
{
layerId = "1336773A-60E9-4881-855D-D55F9632DBDF";
name = "Light Italic";
paths = (
{
closed = 1;
nodes = (
"282 -10 OFFCURVE",
"336 9 OFFCURVE",
"389 50 CURVE",
"385 0 LINE",
"455 0 LINE",
"555 474 LINE",
"473 474 LINE",
"466 439 LINE",
"427 470 OFFCURVE",
"386 484 OFFCURVE",
"325 484 CURVE SMOOTH",
"197 484 OFFCURVE",
"82 394 OFFCURVE",
"47 223 CURVE SMOOTH",
"13 59 OFFCURVE",
"78 -10 OFFCURVE",
"211 -10 CURVE SMOOTH"
);
},
{
closed = 1;
nodes = (
"130 56 OFFCURVE",
"103 99 OFFCURVE",
"129 223 CURVE SMOOTH",
"156 352 OFFCURVE",
"222 418 OFFCURVE",
"333 418 CURVE SMOOTH",
"390 418 OFFCURVE",
"425 400 OFFCURVE",
"451 371 CURVE",
"397 113 LINE",
"352 74 OFFCURVE",
"301 56 OFFCURVE",
"246 56 CURVE SMOOTH"
);
}
);
width = 575;
}
);
leftKerningGroup = a;
note = a;
rightKerningGroup = a;
unicode = 0061;
},
{
glyphname = aacute;
lastChange = "2015-11-24 11:57:54 +0000";
layers = (
{
layerId = "1336773A-60E9-4881-855D-D55F9632DBDF";
name = "Light Italic";
paths = (
{
closed = 1;
nodes = (
"282 -10 OFFCURVE",
"336 9 OFFCURVE",
"389 50 CURVE",
"385 0 LINE",
"455 0 LINE",
"555 474 LINE",
"473 474 LINE",
"466 439 LINE",
"427 470 OFFCURVE",
"386 484 OFFCURVE",
"325 484 CURVE SMOOTH",
"197 484 OFFCURVE",
"82 394 OFFCURVE",
"47 223 CURVE SMOOTH",
"13 59 OFFCURVE",
"78 -10 OFFCURVE",
"211 -10 CURVE SMOOTH"
);
},
{
closed = 1;
nodes = (
"130 56 OFFCURVE",
"103 99 OFFCURVE",
"129 223 CURVE SMOOTH",
"156 352 OFFCURVE",
"222 418 OFFCURVE",
"333 418 CURVE SMOOTH",
"390 418 OFFCURVE",
"425 400 OFFCURVE",
"451 371 CURVE",
"397 113 LINE",
"352 74 OFFCURVE",
"301 56 OFFCURVE",
"246 56 CURVE SMOOTH"
);
},
{
closed = 1;
nodes = (
"371 522 LINE",
"486 690 LINE",
"412 690 LINE",
"305 522 LINE"
);
}
);
width = 575;
}
);
leftKerningGroup = a;
note = aacute;
rightKerningGroup = a;
unicode = 00E1;
},
{
glyphname = abreve;
lastChange = "2015-11-24 11:57:54 +0000";
layers = (
{
layerId = "1336773A-60E9-4881-855D-D55F9632DBDF";
name = "Light Italic";
paths = (
{
closed = 1;
nodes = (
"282 -10 OFFCURVE",
"336 9 OFFCURVE",
"389 50 CURVE",
"385 0 LINE",
"455 0 LINE",
"555 474 LINE",
"473 474 LINE",
"466 439 LINE",
"427 470 OFFCURVE",
"386 484 OFFCURVE",
"325 484 CURVE SMOOTH",
"197 484 OFFCURVE",
"82 394 OFFCURVE",
"47 223 CURVE SMOOTH",
"13 59 OFFCURVE",
"78 -10 OFFCURVE",
"211 -10 CURVE SMOOTH"
);
},
{
closed = 1;
nodes = (
"130 56 OFFCURVE",
"103 99 OFFCURVE",
"129 223 CURVE SMOOTH",
"156 352 OFFCURVE",
"222 418 OFFCURVE",
"333 418 CURVE SMOOTH",
"390 418 OFFCURVE",
"425 400 OFFCURVE",
"451 371 CURVE",
"397 113 LINE",
"352 74 OFFCURVE",
"301 56 OFFCURVE",
"246 56 CURVE SMOOTH"
);
},
{
closed = 1;
nodes = (
"435 522 OFFCURVE",
"481 573 OFFCURVE",
"497 648 CURVE",
"436 648 LINE",
"425 597 OFFCURVE",
"395 574 OFFCURVE",
"351 574 CURVE SMOOTH",
"304 574 OFFCURVE",
"287 597 OFFCURVE",
"298 648 CURVE",
"243 648 LINE",
"228 573 OFFCURVE",
"259 522 OFFCURVE",
"342 522 CURVE SMOOTH"
);
}
);
width = 575;
}
);
leftKerningGroup = a;
note = abreve;
rightKerningGroup = a;
unicode = 0103;
},
{
glyphname = abreveacute;
lastChange = "2015-11-24 11:57:53 +0000";
layers = (
{
layerId = "1336773A-60E9-4881-855D-D55F9632DBDF";
name = "Light Italic";
paths = (
{
closed = 1;
nodes = (
"282 -10 OFFCURVE",
"336 9 OFFCURVE",
"389 50 CURVE",
"385 0 LINE",
"455 0 LINE",
"555 474 LINE",
"473 474 LINE",
"466 439 LINE",
"427 470 OFFCURVE",
"386 484 OFFCURVE",
"325 484 CURVE SMOOTH",
"197 484 OFFCURVE",
"82 394 OFFCURVE",
"47 223 CURVE SMOOTH",
"13 59 OFFCURVE",
"78 -10 OFFCURVE",
"211 -10 CURVE SMOOTH"
);
},
{
closed = 1;
nodes = (
"130 56 OFFCURVE",
"103 99 OFFCURVE",
"129 223 CURVE SMOOTH",
"156 352 OFFCURVE",
"222 418 OFFCURVE",
"333 418 CURVE SMOOTH",
"390 418 OFFCURVE",
"425 400 OFFCURVE",
"451 371 CURVE",
"397 113 LINE",
"352 74 OFFCURVE",
"301 56 OFFCURVE",
"246 56 CURVE SMOOTH"
);
},
{
closed = 1;
nodes = (
"436 522 OFFCURVE",
"507 560 OFFCURVE",
"529 662 CURVE",
"476 662 LINE",
"463 600 OFFCURVE",
"422 570 OFFCURVE",
"361 570 CURVE SMOOTH",
"291 570 OFFCURVE",
"273 600 OFFCURVE",
"286 662 CURVE",
"235 662 LINE",
"216 562 OFFCURVE",
"272 522 OFFCURVE",
"352 522 CURVE SMOOTH"
);
},
{
closed = 1;
nodes = (
"394 626 LINE",
"489 751 LINE",
"424 751 LINE",
"335 626 LINE"
);
}
);
width = 575;
}
);
leftKerningGroup = a;
note = abreveacute;
rightKerningGroup = a;
unicode = 1EAF;
},
{
glyphname = abrevedotbelow;
lastChange = "2015-11-24 11:57:53 +0000";
layers = (
{
layerId = "1336773A-60E9-4881-855D-D55F9632DBDF";
name = "Light Italic";
paths = (
{
closed = 1;
nodes = (
"282 -10 OFFCURVE",
"336 9 OFFCURVE",
"389 50 CURVE",
"385 0 LINE",
"455 0 LINE",
"555 474 LINE",
"473 474 LINE",
"466 439 LINE",
"427 470 OFFCURVE",
"386 484 OFFCURVE",
"325 484 CURVE SMOOTH",
"197 484 OFFCURVE",
"82 394 OFFCURVE",
"47 223 CURVE SMOOTH",
"13 59 OFFCURVE",
"78 -10 OFFCURVE",
"211 -10 CURVE SMOOTH"
);
},
{
closed = 1;
nodes = (
"130 56 OFFCURVE",
"103 99 OFFCURVE",
"129 223 CURVE SMOOTH",
"156 352 OFFCURVE",
"222 418 OFFCURVE",
"333 418 CURVE SMOOTH",
"390 418 OFFCURVE",
"425 400 OFFCURVE",
"451 371 CURVE",
"397 113 LINE",
"352 74 OFFCURVE",
"301 56 OFFCURVE",
"246 56 CURVE SMOOTH"
);
},
{
closed = 1;
nodes = (
"236 -164 LINE",
"252 -87 LINE",
"172 -87 LINE",
"156 -164 LINE"
);
},
{
closed = 1;
nodes = (
"431 522 OFFCURVE",
"477 573 OFFCURVE",
"493 648 CURVE",
"432 648 LINE",
"421 597 OFFCURVE",
"391 574 OFFCURVE",
"347 574 CURVE SMOOTH",
"300 574 OFFCURVE",
"283 597 OFFCURVE",
"294 648 CURVE",
"239 648 LINE",
"224 573 OFFCURVE",
"255 522 OFFCURVE",
"338 522 CURVE SMOOTH"
);
}
);
width = 575;
}
);
leftKerningGroup = a;
note = abrevedotbelow;
rightKerningGroup = a;
unicode = 1EB7;
},
{
glyphname = abrevegrave;
lastChange = "2015-11-24 11:57:53 +0000";
layers = (
{
layerId = "1336773A-60E9-4881-855D-D55F9632DBDF";
name = "Light Italic";
paths = (
{
closed = 1;
nodes = (
"282 -10 OFFCURVE",
"336 9 OFFCURVE",
"389 50 CURVE",
"385 0 LINE",
"455 0 LINE",
"555 474 LINE",
"473 474 LINE",
"466 439 LINE",
"427 470 OFFCURVE",
"386 484 OFFCURVE",
"325 484 CURVE SMOOTH",
"197 484 OFFCURVE",
"82 394 OFFCURVE",
"47 223 CURVE SMOOTH",
"13 59 OFFCURVE",
"78 -10 OFFCURVE",
"211 -10 CURVE SMOOTH"
);
},
{
closed = 1;
nodes = (
"130 56 OFFCURVE",
"103 99 OFFCURVE",
"129 223 CURVE SMOOTH",
"156 352 OFFCURVE",
"222 418 OFFCURVE",
"333 418 CURVE SMOOTH",
"390 418 OFFCURVE",
"425 400 OFFCURVE",
"451 371 CURVE",
"397 113 LINE",
"352 74 OFFCURVE",
"301 56 OFFCURVE",
"246 56 CURVE SMOOTH"
);
},
{
closed = 1;
nodes = (
"431 522 OFFCURVE",
"502 560 OFFCURVE",
"524 662 CURVE",
"471 662 LINE",
"458 600 OFFCURVE",
"417 570 OFFCURVE",
"356 570 CURVE SMOOTH",
"286 570 OFFCURVE",
"268 600 OFFCURVE",
"281 662 CURVE",
"230 662 LINE",
"211 562 OFFCURVE",
"267 522 OFFCURVE",
"347 522 CURVE SMOOTH"
);
},
{
closed = 1;
nodes = (
"408 626 LINE",
"373 751 LINE",
"308 751 LINE",
"349 626 LINE"
);
}
);
width = 575;
}
);
leftKerningGroup = a;
note = abrevegrave;
rightKerningGroup = a;
unicode = 1EB1;
},
{
glyphname = abrevehookabove;
lastChange = "2015-11-24 11:57:53 +0000";
layers = (
{
layerId = "1336773A-60E9-4881-855D-D55F9632DBDF";
name = "Light Italic";
paths = (
{
closed = 1;
nodes = (
"282 -10 OFFCURVE",
"336 9 OFFCURVE",
"389 50 CURVE",
"385 0 LINE",
"455 0 LINE",
"555 474 LINE",
"473 474 LINE",
"466 439 LINE",
"427 470 OFFCURVE",
"386 484 OFFCURVE",
"325 484 CURVE SMOOTH",
"197 484 OFFCURVE",
"82 394 OFFCURVE",
"47 223 CURVE SMOOTH",
"13 59 OFFCURVE",
"78 -10 OFFCURVE",
"211 -10 CURVE SMOOTH"
);
},
{
closed = 1;
nodes = (
"130 56 OFFCURVE",
"103 99 OFFCURVE",
"129 223 CURVE SMOOTH",
"156 352 OFFCURVE",
"222 418 OFFCURVE",
"333 418 CURVE SMOOTH",
"390 418 OFFCURVE",
"425 400 OFFCURVE",
"451 371 CURVE",
"397 113 LINE",
"352 74 OFFCURVE",
"301 56 OFFCURVE",
"246 56 CURVE SMOOTH"
);
},
{
closed = 1;
nodes = (
"429 522 OFFCURVE",
"500 560 OFFCURVE",
"522 662 CURVE",
"469 662 LINE",
"456 600 OFFCURVE",
"415 570 OFFCURVE",
"354 570 CURVE SMOOTH",
"284 570 OFFCURVE",
"266 600 OFFCURVE",
"279 662 CURVE",
"228 662 LINE",
"209 562 OFFCURVE",
"265 522 OFFCURVE",
"345 522 CURVE SMOOTH"
);
},
{
closed = 1;
nodes = (
"390 627 LINE",
"397 661 LINE",
"456 670 OFFCURVE",
"482 692 OFFCURVE",
"492 735 CURVE",
"501 781 OFFCURVE",
"473 809 OFFCURVE",
"414 809 CURVE SMOOTH",
"386 809 OFFCURVE",
"358 804 OFFCURVE",
"338 797 CURVE",
"329 756 LINE",
"348 764 OFFCURVE",
"367 769 OFFCURVE",
"389 769 CURVE SMOOTH",
"425 769 OFFCURVE",
"439 757 OFFCURVE",
"433 730 CURVE",
"428 703 OFFCURVE",
"410 688 OFFCURVE",
"342 685 CURVE",
"330 627 LINE"
);
}
);
width = 575;
}
);
leftKerningGroup = a;
note = abrevehookabove;
rightKerningGroup = a;
unicode = 1EB3;
},
{
glyphname = abrevetilde;
lastChange = "2015-11-24 11:57:53 +0000";
layers = (
{
layerId = "1336773A-60E9-4881-855D-D55F9632DBDF";
name = "Light Italic";
paths = (
{
closed = 1;
nodes = (
"282 -10 OFFCURVE",
"336 9 OFFCURVE",
"389 50 CURVE",
"385 0 LINE",
"455 0 LINE",
"555 474 LINE",
"473 474 LINE",
"466 439 LINE",
"427 470 OFFCURVE",
"386 484 OFFCURVE",
"325 484 CURVE SMOOTH",
"197 484 OFFCURVE",
"82 394 OFFCURVE",
"47 223 CURVE SMOOTH",
"13 59 OFFCURVE",
"78 -10 OFFCURVE",
"211 -10 CURVE SMOOTH"
);
},
{
closed = 1;
nodes = (
"130 56 OFFCURVE",
"103 99 OFFCURVE",
"129 223 CURVE SMOOTH",
"156 352 OFFCURVE",
"222 418 OFFCURVE",
"333 418 CURVE SMOOTH",
"390 418 OFFCURVE",
"425 400 OFFCURVE",
"451 371 CURVE",
"397 113 LINE",
"352 74 OFFCURVE",
"301 56 OFFCURVE",
"246 56 CURVE SMOOTH"
);
},
{
closed = 1;
nodes = (
"433 522 OFFCURVE",
"504 560 OFFCURVE",
"526 662 CURVE",
"473 662 LINE",
"460 600 OFFCURVE",
"419 570 OFFCURVE",
"358 570 CURVE SMOOTH",
"288 570 OFFCURVE",
"270 600 OFFCURVE",
"283 662 CURVE",
"232 662 LINE",
"213 562 OFFCURVE",
"269 522 OFFCURVE",
"349 522 CURVE SMOOTH"
);
},
{
closed = 1;
nodes = (
"485 683 OFFCURVE",
"515 694 OFFCURVE",
"530 710 CURVE",
"542 767 LINE",
"520 744 OFFCURVE",
"495 734 OFFCURVE",
"464 734 CURVE SMOOTH",
"419 734 OFFCURVE",
"390 769 OFFCURVE",
"339 769 CURVE SMOOTH",
"311 769 OFFCURVE",
"275 758 OFFCURVE",
"257 742 CURVE",
"245 686 LINE",
"270 710 OFFCURVE",
"299 718 OFFCURVE",
"328 718 CURVE SMOOTH",
"368 718 OFFCURVE",
"406 683 OFFCURVE",
"454 683 CURVE SMOOTH"
);
}
);
width = 575;
}
);
leftKerningGroup = a;
note = abrevetilde;
rightKerningGroup = a;
unicode = 1EB5;
},
{
glyphname = acaron;
lastChange = "2015-11-24 11:57:52 +0000";
layers = (
{
layerId = "1336773A-60E9-4881-855D-D55F9632DBDF";
name = "Light Italic";
paths = (
{
closed = 1;
nodes = (
"282 -10 OFFCURVE",
"336 9 OFFCURVE",
"389 50 CURVE",
"385 0 LINE",
"455 0 LINE",
"555 474 LINE",
"473 474 LINE",
"466 439 LINE",
"427 470 OFFCURVE",
"386 484 OFFCURVE",
"325 484 CURVE SMOOTH",
"197 484 OFFCURVE",
"82 394 OFFCURVE",
"47 223 CURVE SMOOTH",
"13 59 OFFCURVE",
"78 -10 OFFCURVE",
"211 -10 CURVE SMOOTH"
);
},
{
closed = 1;
nodes = (
"130 56 OFFCURVE",
"103 99 OFFCURVE",
"129 223 CURVE SMOOTH",
"156 352 OFFCURVE",
"222 418 OFFCURVE",
"333 418 CURVE SMOOTH",
"390 418 OFFCURVE",
"425 400 OFFCURVE",
"451 371 CURVE",
"397 113 LINE",
"352 74 OFFCURVE",
"301 56 OFFCURVE",
"246 56 CURVE SMOOTH"
);
},
{
closed = 1;
nodes = (
"373 522 LINE",
"519 670 LINE",
"445 670 LINE",
"346 568 LINE",
"291 670 LINE",
"224 670 LINE",
"307 522 LINE"
);
}
);
width = 575;
}
);
leftKerningGroup = a;
note = acaron;
rightKerningGroup = a;
unicode = 01CE;
},
{
glyphname = acircumflex;
lastChange = "2015-11-24 11:57:52 +0000";
layers = (
{
layerId = "1336773A-60E9-4881-855D-D55F9632DBDF";
name = "Light Italic";
paths = (
{
closed = 1;
nodes = (
"282 -10 OFFCURVE",
"336 9 OFFCURVE",
"389 50 CURVE",
"385 0 LINE",
"455 0 LINE",
"555 474 LINE",
"473 474 LINE",
"466 439 LINE",
"427 470 OFFCURVE",
"386 484 OFFCURVE",
"325 484 CURVE SMOOTH",
"197 484 OFFCURVE",
"82 394 OFFCURVE",
"47 223 CURVE SMOOTH",
"13 59 OFFCURVE",
"78 -10 OFFCURVE",
"211 -10 CURVE SMOOTH"
);
},
{
closed = 1;
nodes = (
"130 56 OFFCURVE",
"103 99 OFFCURVE",
"129 223 CURVE SMOOTH",
"156 352 OFFCURVE",
"222 418 OFFCURVE",
"333 418 CURVE SMOOTH",
"390 418 OFFCURVE",
"425 400 OFFCURVE",
"451 371 CURVE",
"397 113 LINE",
"352 74 OFFCURVE",
"301 56 OFFCURVE",
"246 56 CURVE SMOOTH"
);
},
{
closed = 1;
nodes = (
"268 522 LINE",
"366 624 LINE",
"422 522 LINE",
"490 522 LINE",
"406 670 LINE",
"340 670 LINE",
"195 522 LINE"
);
}
);
width = 575;
}
);
leftKerningGroup = a;
note = acircumflex;
rightKerningGroup = a;
unicode = 00E2;
},
{
glyphname = acircumflexacute;
lastChange = "2015-11-24 11:57:52 +0000";
layers = (
{
layerId = "1336773A-60E9-4881-855D-D55F9632DBDF";
name = "Light Italic";
paths = (
{
closed = 1;
nodes = (
"282 -10 OFFCURVE",
"336 9 OFFCURVE",
"389 50 CURVE",
"385 0 LINE",
"455 0 LINE",
"555 474 LINE",
"473 474 LINE",
"466 439 LINE",
"427 470 OFFCURVE",
"386 484 OFFCURVE",
"325 484 CURVE SMOOTH",
"197 484 OFFCURVE",
"82 394 OFFCURVE",
"47 223 CURVE SMOOTH",
"13 59 OFFCURVE",
"78 -10 OFFCURVE",
"211 -10 CURVE SMOOTH"
);
},
{
closed = 1;
nodes = (
"130 56 OFFCURVE",
"103 99 OFFCURVE",
"129 223 CURVE SMOOTH",
"156 352 OFFCURVE",
"222 418 OFFCURVE",
"333 418 CURVE SMOOTH",
"390 418 OFFCURVE",
"425 400 OFFCURVE",
"451 371 CURVE",
"397 113 LINE",
"352 74 OFFCURVE",
"301 56 OFFCURVE",
"246 56 CURVE SMOOTH"
);
},
{
closed = 1;
nodes = (
"268 522 LINE",
"360 605 LINE",
"417 522 LINE",
"484 522 LINE",
"398 640 LINE",
"332 640 LINE",
"196 522 LINE"
);
},
{
closed = 1;
nodes = (
"502 631 LINE",
"596 756 LINE",
"531 756 LINE",
"443 631 LINE"
);
}
);
width = 575;
}
);
leftKerningGroup = a;
note = acircumflexacute;
rightKerningGroup = a;
unicode = 1EA5;
},
{
glyphname = acircumflexdotbelow;
lastChange = "2015-11-24 11:57:53 +0000";
layers = (
{
layerId = "1336773A-60E9-4881-855D-D55F9632DBDF";
name = "Light Italic";
paths = (
{
closed = 1;
nodes = (
"282 -10 OFFCURVE",
"336 9 OFFCURVE",
"389 50 CURVE",
"385 0 LINE",
"455 0 LINE",
"555 474 LINE",
"473 474 LINE",
"466 439 LINE",
"427 470 OFFCURVE",
"386 484 OFFCURVE",
"325 484 CURVE SMOOTH",
"197 484 OFFCURVE",
"82 394 OFFCURVE",
"47 223 CURVE SMOOTH",
"13 59 OFFCURVE",
"78 -10 OFFCURVE",
"211 -10 CURVE SMOOTH"
);
},
{
closed = 1;
nodes = (
"130 56 OFFCURVE",
"103 99 OFFCURVE",
"129 223 CURVE SMOOTH",
"156 352 OFFCURVE",
"222 418 OFFCURVE",
"333 418 CURVE SMOOTH",
"390 418 OFFCURVE",
"425 400 OFFCURVE",
"451 371 CURVE",
"397 113 LINE",
"352 74 OFFCURVE",
"301 56 OFFCURVE",
"246 56 CURVE SMOOTH"
);
},
{
closed = 1;
nodes = (
"231 -164 LINE",
"247 -87 LINE",
"167 -87 LINE",
"151 -164 LINE"
);
},
{
closed = 1;
nodes = (
"261 522 LINE",
"359 624 LINE",
"415 522 LINE",
"483 522 LINE",
"399 670 LINE",
"333 670 LINE",
"188 522 LINE"
);
}
);
width = 575;
}
);
leftKerningGroup = a;
note = acircumflexdotbelow;
rightKerningGroup = a;
unicode = 1EAD;
},
{
glyphname = acircumflexgrave;
lastChange = "2015-11-24 11:57:53 +0000";
layers = (
{
layerId = "1336773A-60E9-4881-855D-D55F9632DBDF";
name = "Light Italic";
paths = (
{
closed = 1;
nodes = (
"282 -10 OFFCURVE",
"336 9 OFFCURVE",
"389 50 CURVE",
"385 0 LINE",
"455 0 LINE",
"555 474 LINE",
"473 474 LINE",
"466 439 LINE",
"427 470 OFFCURVE",
"386 484 OFFCURVE",
"325 484 CURVE SMOOTH",
"197 484 OFFCURVE",
"82 394 OFFCURVE",
"47 223 CURVE SMOOTH",
"13 59 OFFCURVE",
"78 -10 OFFCURVE",
"211 -10 CURVE SMOOTH"
);
},
{
closed = 1;
nodes = (
"130 56 OFFCURVE",
"103 99 OFFCURVE",
"129 223 CURVE SMOOTH",
"156 352 OFFCURVE",
"222 418 OFFCURVE",
"333 418 CURVE SMOOTH",
"390 418 OFFCURVE",
"425 400 OFFCURVE",
"451 371 CURVE",
"397 113 LINE",
"352 74 OFFCURVE",
"301 56 OFFCURVE",
"246 56 CURVE SMOOTH"
);
},
{
closed = 1;
nodes = (
"273 522 LINE",
"366 605 LINE",
"422 522 LINE",
"489 522 LINE",
"404 640 LINE",
"338 640 LINE",
"202 522 LINE"
);
},
{
closed = 1;
nodes = (
"289 631 LINE",
"254 756 LINE",
"189 756 LINE",
"230 631 LINE"
);
}
);
width = 575;
}
);
leftKerningGroup = a;
note = acircumflexgrave;
rightKerningGroup = a;
unicode = 1EA7;
},
{
glyphname = acircumflexhookabove;
lastChange = "2015-11-24 11:57:52 +0000";
layers = (
{
layerId = "1336773A-60E9-4881-855D-D55F9632DBDF";
name = "Light Italic";
paths = (
{
closed = 1;
nodes = (
"282 -10 OFFCURVE",
"336 9 OFFCURVE",
"389 50 CURVE",
"385 0 LINE",
"455 0 LINE",
"555 474 LINE",
"473 474 LINE",
"466 439 LINE",
"427 470 OFFCURVE",
"386 484 OFFCURVE",
"325 484 CURVE SMOOTH",
"197 484 OFFCURVE",
"82 394 OFFCURVE",
"47 223 CURVE SMOOTH",
"13 59 OFFCURVE",
"78 -10 OFFCURVE",
"211 -10 CURVE SMOOTH"
);
},
{
closed = 1;
nodes = (
"130 56 OFFCURVE",
"103 99 OFFCURVE",
"129 223 CURVE SMOOTH",
"156 352 OFFCURVE",
"222 418 OFFCURVE",
"333 418 CURVE SMOOTH",
"390 418 OFFCURVE",
"425 400 OFFCURVE",
"451 371 CURVE",
"397 113 LINE",
"352 74 OFFCURVE",
"301 56 OFFCURVE",
"246 56 CURVE SMOOTH"
);
},
{
closed = 1;
nodes = (
"271 521 LINE",
"363 604 LINE",
"420 521 LINE",
"487 521 LINE",
"401 639 LINE",
"335 639 LINE",
"199 521 LINE"
);
},
{
closed = 1;
nodes = (
"510 609 LINE",
"517 644 LINE",
"574 651 OFFCURVE",
"603 675 OFFCURVE",
"612 718 CURVE SMOOTH",
"622 765 OFFCURVE",
"592 793 OFFCURVE",
"532 793 CURVE SMOOTH",
"502 793 OFFCURVE",
"479 788 OFFCURVE",
"459 781 CURVE",
"450 738 LINE",
"468 745 OFFCURVE",
"487 750 OFFCURVE",
"509 750 CURVE SMOOTH",
"543 750 OFFCURVE",
"557 739 OFFCURVE",
"551 714 CURVE",
"546 688 OFFCURVE",
"530 675 OFFCURVE",
"463 672 CURVE",
"450 609 LINE"
);
}
);
width = 575;
}
);
leftKerningGroup = a;
note = acircumflexhookabove;
rightKerningGroup = a;
unicode = 1EA9;
},
{
glyphname = acircumflextilde;
lastChange = "2015-11-24 11:57:52 +0000";
layers = (
{
layerId = "1336773A-60E9-4881-855D-D55F9632DBDF";
name = "Light Italic";
paths = (
{
closed = 1;
nodes = (
"282 -10 OFFCURVE",
"336 9 OFFCURVE",
"389 50 CURVE",
"385 0 LINE",
"455 0 LINE",
"555 474 LINE",
"473 474 LINE",
"466 439 LINE",
"427 470 OFFCURVE",
"386 484 OFFCURVE",
"325 484 CURVE SMOOTH",
"197 484 OFFCURVE",
"82 394 OFFCURVE",
"47 223 CURVE SMOOTH",
"13 59 OFFCURVE",
"78 -10 OFFCURVE",
"211 -10 CURVE SMOOTH"
);
},
{
closed = 1;
nodes = (
"130 56 OFFCURVE",
"103 99 OFFCURVE",
"129 223 CURVE SMOOTH",
"156 352 OFFCURVE",
"222 418 OFFCURVE",
"333 418 CURVE SMOOTH",
"390 418 OFFCURVE",
"425 400 OFFCURVE",
"451 371 CURVE",
"397 113 LINE",
"352 74 OFFCURVE",
"301 56 OFFCURVE",
"246 56 CURVE SMOOTH"
);
},
{
closed = 1;
nodes = (
"271 522 LINE",
"363 605 LINE",
"420 522 LINE",
"487 522 LINE",
"401 640 LINE",
"335 640 LINE",
"199 522 LINE"
);
},
{
closed = 1;
nodes = (
"471 642 OFFCURVE",
"501 653 OFFCURVE",
"515 669 CURVE",
"528 726 LINE",
"506 703 OFFCURVE",
"482 693 OFFCURVE",
"451 693 CURVE SMOOTH",
"406 693 OFFCURVE",
"376 728 OFFCURVE",
"325 728 CURVE SMOOTH",
"297 728 OFFCURVE",
"262 717 OFFCURVE",
"243 701 CURVE",
"231 645 LINE",
"256 669 OFFCURVE",
"285 677 OFFCURVE",
"314 677 CURVE SMOOTH",
"354 677 OFFCURVE",
"392 642 OFFCURVE",
"440 642 CURVE SMOOTH"
);
}
);
width = 575;
}
);
leftKerningGroup = a;
note = acircumflextilde;
rightKerningGroup = a;
unicode = 1EAB;
},
{
glyphname = adieresis;
lastChange = "2015-11-24 11:57:53 +0000";
layers = (
{
layerId = "1336773A-60E9-4881-855D-D55F9632DBDF";
name = "Light Italic";
paths = (
{
closed = 1;
nodes = (
"282 -10 OFFCURVE",
"336 9 OFFCURVE",
"389 50 CURVE",
"385 0 LINE",
"455 0 LINE",
"555 474 LINE",
"473 474 LINE",
"466 439 LINE",
"427 470 OFFCURVE",
"386 484 OFFCURVE",
"325 484 CURVE SMOOTH",
"197 484 OFFCURVE",
"82 394 OFFCURVE",
"47 223 CURVE SMOOTH",
"13 59 OFFCURVE",
"78 -10 OFFCURVE",
"211 -10 CURVE SMOOTH"
);
},
{
closed = 1;
nodes = (
"130 56 OFFCURVE",
"103 99 OFFCURVE",
"129 223 CURVE SMOOTH",
"156 352 OFFCURVE",
"222 418 OFFCURVE",
"333 418 CURVE SMOOTH",
"390 418 OFFCURVE",
"425 400 OFFCURVE",
"451 371 CURVE",
"397 113 LINE",
"352 74 OFFCURVE",
"301 56 OFFCURVE",
"246 56 CURVE SMOOTH"
);
},
{
closed = 1;
nodes = (
"303 545 LINE",
"319 620 LINE",
"242 620 LINE",
"226 545 LINE"
);
},
{
closed = 1;
nodes = (
"479 545 LINE",
"495 620 LINE",
"417 620 LINE",
"401 545 LINE"
);
}
);
width = 575;
}
);
leftKerningGroup = a;
note = adieresis;
rightKerningGroup = a;
unicode = 00E4;
},
{
glyphname = adotbelow;
lastChange = "2015-11-24 11:57:54 +0000";
layers = (
{
layerId = "1336773A-60E9-4881-855D-D55F9632DBDF";
name = "Light Italic";
paths = (
{
closed = 1;
nodes = (
"282 -10 OFFCURVE",
"336 9 OFFCURVE",
"389 50 CURVE",
"385 0 LINE",
"455 0 LINE",
"555 474 LINE",
"473 474 LINE",
"466 439 LINE",
"427 470 OFFCURVE",
"386 484 OFFCURVE",
"325 484 CURVE SMOOTH",
"197 484 OFFCURVE",
"82 394 OFFCURVE",
"47 223 CURVE SMOOTH",
"13 59 OFFCURVE",
"78 -10 OFFCURVE",
"211 -10 CURVE SMOOTH"
);
},
{
closed = 1;
nodes = (
"130 56 OFFCURVE",
"103 99 OFFCURVE",
"129 223 CURVE SMOOTH",
"156 352 OFFCURVE",
"222 418 OFFCURVE",
"333 418 CURVE SMOOTH",
"390 418 OFFCURVE",
"425 400 OFFCURVE",
"451 371 CURVE",
"397 113 LINE",
"352 74 OFFCURVE",
"301 56 OFFCURVE",
"246 56 CURVE SMOOTH"
);
},
{
closed = 1;
nodes = (
"235 -164 LINE",
"251 -87 LINE",
"171 -87 LINE",
"155 -164 LINE"
);
}
);
width = 575;
}
);
leftKerningGroup = a;
note = adotbelow;
rightKerningGroup = a;
unicode = 1EA1;
},
{
glyphname = agrave;
lastChange = "2015-11-24 11:57:52 +0000";
layers = (
{
layerId = "1336773A-60E9-4881-855D-D55F9632DBDF";
name = "Light Italic";
paths = (
{
closed = 1;
nodes = (
"282 -10 OFFCURVE",
"336 9 OFFCURVE",
"389 50 CURVE",
"385 0 LINE",
"455 0 LINE",
"555 474 LINE",
"473 474 LINE",
"466 439 LINE",
"427 470 OFFCURVE",
"386 484 OFFCURVE",
"325 484 CURVE SMOOTH",
"197 484 OFFCURVE",
"82 394 OFFCURVE",
"47 223 CURVE SMOOTH",
"13 59 OFFCURVE",
"78 -10 OFFCURVE",
"211 -10 CURVE SMOOTH"
);
},
{
closed = 1;
nodes = (
"130 56 OFFCURVE",
"103 99 OFFCURVE",
"129 223 CURVE SMOOTH",
"156 352 OFFCURVE",
"222 418 OFFCURVE",
"333 418 CURVE SMOOTH",
"390 418 OFFCURVE",
"425 400 OFFCURVE",
"451 371 CURVE",
"397 113 LINE",
"352 74 OFFCURVE",
"301 56 OFFCURVE",
"246 56 CURVE SMOOTH"
);
},
{
closed = 1;
nodes = (
"388 522 LINE",
"353 690 LINE",
"279 690 LINE",
"322 522 LINE"
);
}
);
width = 575;
}
);
leftKerningGroup = a;
note = agrave;
rightKerningGroup = a;
unicode = 00E0;
},
{
glyphname = ahookabove;
lastChange = "2015-11-24 11:57:53 +0000";
layers = (
{
layerId = "1336773A-60E9-4881-855D-D55F9632DBDF";
name = "Light Italic";
paths = (
{
closed = 1;
nodes = (
"282 -10 OFFCURVE",
"336 9 OFFCURVE",
"389 50 CURVE",
"385 0 LINE",
"455 0 LINE",
"555 474 LINE",
"473 474 LINE",
"466 439 LINE",
"427 470 OFFCURVE",
"386 484 OFFCURVE",
"325 484 CURVE SMOOTH",
"197 484 OFFCURVE",
"82 394 OFFCURVE",
"47 223 CURVE SMOOTH",
"13 59 OFFCURVE",
"78 -10 OFFCURVE",
"211 -10 CURVE SMOOTH"
);
},
{
closed = 1;
nodes = (
"130 56 OFFCURVE",
"103 99 OFFCURVE",
"129 223 CURVE SMOOTH",
"156 352 OFFCURVE",
"222 418 OFFCURVE",
"333 418 CURVE SMOOTH",
"390 418 OFFCURVE",
"425 400 OFFCURVE",
"451 371 CURVE",
"397 113 LINE",
"352 74 OFFCURVE",
"301 56 OFFCURVE",
"246 56 CURVE SMOOTH"
);
},
{
closed = 1;
nodes = (
"367 522 LINE",
"377 570 LINE",
"446 579 OFFCURVE",
"474 609 OFFCURVE",
"486 663 CURVE SMOOTH",
"498 720 OFFCURVE",
"456 754 OFFCURVE",
"384 754 CURVE SMOOTH",
"355 754 OFFCURVE",
"318 749 OFFCURVE",
"296 741 CURVE",
"286 690 LINE",
"304 697 OFFCURVE",
"333 702 OFFCURVE",
"354 702 CURVE SMOOTH",
"413 702 OFFCURVE",
"430 690 OFFCURVE",
"423 657 CURVE SMOOTH",
"415 622 OFFCURVE",
"397 609 OFFCURVE",
"319 605 CURVE",
"301 522 LINE"
);
}
);
width = 575;
}
);
leftKerningGroup = a;
note = ahookabove;
rightKerningGroup = a;
unicode = 1EA3;
},
{
glyphname = "alpha-latin";
lastChange = "2015-11-24 11:57:54 +0000";
layers = (
{
layerId = "1336773A-60E9-4881-855D-D55F9632DBDF";
name = "Light Italic";
paths = (
{
closed = 1;
nodes = (
"282 -10 OFFCURVE",
"336 9 OFFCURVE",
"389 50 CURVE",
"385 0 LINE",
"455 0 LINE",
"555 474 LINE",
"473 474 LINE",
"466 439 LINE",
"427 470 OFFCURVE",
"386 484 OFFCURVE",
"325 484 CURVE SMOOTH",
"197 484 OFFCURVE",
"82 394 OFFCURVE",
"47 223 CURVE SMOOTH",
"13 59 OFFCURVE",
"78 -10 OFFCURVE",
"211 -10 CURVE SMOOTH"
);
},
{
closed = 1;
nodes = (
"130 56 OFFCURVE",
"103 99 OFFCURVE",
"129 223 CURVE SMOOTH",
"156 352 OFFCURVE",
"222 418 OFFCURVE",
"333 418 CURVE SMOOTH",
"390 418 OFFCURVE",
"425 400 OFFCURVE",
"451 371 CURVE",
"397 113 LINE",
"352 74 OFFCURVE",
"301 56 OFFCURVE",
"246 56 CURVE SMOOTH"
);
}
);
width = 575;
}
);
leftKerningGroup = a;
note = ascript;
rightKerningGroup = a;
unicode = 0251;
},
{
glyphname = amacron;
lastChange = "2015-11-24 11:57:52 +0000";
layers = (
{
layerId = "1336773A-60E9-4881-855D-D55F9632DBDF";
name = "Light Italic";
paths = (
{
closed = 1;
nodes = (
"282 -10 OFFCURVE",
"336 9 OFFCURVE",
"389 50 CURVE",
"385 0 LINE",
"455 0 LINE",
"555 474 LINE",
"473 474 LINE",
"466 439 LINE",
"427 470 OFFCURVE",
"386 484 OFFCURVE",
"325 484 CURVE SMOOTH",
"197 484 OFFCURVE",
"82 394 OFFCURVE",
"47 223 CURVE SMOOTH",
"13 59 OFFCURVE",
"78 -10 OFFCURVE",
"211 -10 CURVE SMOOTH"
);
},
{
closed = 1;
nodes = (
"130 56 OFFCURVE",
"103 99 OFFCURVE",
"129 223 CURVE SMOOTH",
"156 352 OFFCURVE",
"222 418 OFFCURVE",
"333 418 CURVE SMOOTH",
"390 418 OFFCURVE",
"425 400 OFFCURVE",
"451 371 CURVE",
"397 113 LINE",
"352 74 OFFCURVE",
"301 56 OFFCURVE",
"246 56 CURVE SMOOTH"
);
},
{
closed = 1;
nodes = (
"486 546 LINE",
"498 605 LINE",
"211 605 LINE",
"199 546 LINE"
);
}
);
width = 575;
}
);
leftKerningGroup = a;
note = amacron;
rightKerningGroup = a;
unicode = 0101;
},
{
glyphname = aogonek;
lastChange = "2015-11-24 11:57:54 +0000";
layers = (
{
layerId = "1336773A-60E9-4881-855D-D55F9632DBDF";
name = "Light Italic";
paths = (
{
closed = 1;
nodes = (
"393 -220 OFFCURVE",
"421 -216 OFFCURVE",
"438 -208 CURVE",
"450 -152 LINE",
"437 -159 OFFCURVE",
"415 -163 OFFCURVE",
"399 -163 CURVE SMOOTH",
"366 -163 OFFCURVE",
"351 -154 OFFCURVE",
"358 -120 CURVE SMOOTH",
"367 -77 OFFCURVE",
"401 -35 OFFCURVE",
"455 0 CURVE",
"555 474 LINE",
"473 474 LINE",
"466 439 LINE",
"427 470 OFFCURVE",
"386 484 OFFCURVE",
"325 484 CURVE SMOOTH",
"197 484 OFFCURVE",
"82 394 OFFCURVE",
"47 223 CURVE SMOOTH",
"13 59 OFFCURVE",
"78 -10 OFFCURVE",
"211 -10 CURVE SMOOTH",
"282 -10 OFFCURVE",
"336 9 OFFCURVE",
"389 50 CURVE",
"385 0 LINE",
"341 -30 OFFCURVE",
"299 -80 OFFCURVE",
"288 -132 CURVE SMOOTH",
"275 -195 OFFCURVE",
"315 -220 OFFCURVE",
"369 -220 CURVE SMOOTH"
);
},
{
closed = 1;
nodes = (
"130 56 OFFCURVE",
"103 99 OFFCURVE",
"129 223 CURVE SMOOTH",
"156 352 OFFCURVE",
"222 418 OFFCURVE",
"333 418 CURVE SMOOTH",
"390 418 OFFCURVE",
"425 400 OFFCURVE",
"451 371 CURVE",
"397 113 LINE",
"352 74 OFFCURVE",
"301 56 OFFCURVE",
"246 56 CURVE SMOOTH"
);
}
);
width = 575;
}
);
leftKerningGroup = a;
note = aogonek;
rightKerningGroup = a;
unicode = 0105;
},
{
glyphname = aring;
lastChange = "2015-11-24 11:57:53 +0000";
layers = (
{
layerId = "1336773A-60E9-4881-855D-D55F9632DBDF";
name = "Light Italic";
paths = (
{
closed = 1;
nodes = (
"282 -10 OFFCURVE",
"336 9 OFFCURVE",
"389 50 CURVE",
"385 0 LINE",
"455 0 LINE",
"555 474 LINE",
"473 474 LINE",
"466 439 LINE",
"427 470 OFFCURVE",
"386 484 OFFCURVE",
"325 484 CURVE SMOOTH",
"197 484 OFFCURVE",
"82 394 OFFCURVE",
"47 223 CURVE SMOOTH",
"13 59 OFFCURVE",
"78 -10 OFFCURVE",
"211 -10 CURVE SMOOTH"
);
},
{
closed = 1;
nodes = (
"130 56 OFFCURVE",
"103 99 OFFCURVE",
"129 223 CURVE SMOOTH",
"156 352 OFFCURVE",
"222 418 OFFCURVE",
"333 418 CURVE SMOOTH",
"390 418 OFFCURVE",
"425 400 OFFCURVE",
"451 371 CURVE",
"397 113 LINE",
"352 74 OFFCURVE",
"301 56 OFFCURVE",
"246 56 CURVE SMOOTH"
);
},
{
closed = 1;
nodes = (
"415 522 OFFCURVE",
"464 569 OFFCURVE",
"477 629 CURVE SMOOTH",
"490 689 OFFCURVE",
"455 737 OFFCURVE",
"389 737 CURVE SMOOTH",
"318 737 OFFCURVE",
"270 689 OFFCURVE",
"257 629 CURVE SMOOTH",
"244 569 OFFCURVE",
"279 522 OFFCURVE",
"343 522 CURVE SMOOTH"
);
},
{
closed = 1;
nodes = (
"310 568 OFFCURVE",
"298 595 OFFCURVE",
"305 629 CURVE SMOOTH",
"312 663 OFFCURVE",
"342 690 OFFCURVE",
"379 690 CURVE SMOOTH",
"422 690 OFFCURVE",
"435 663 OFFCURVE",
"428 629 CURVE SMOOTH",
"421 595 OFFCURVE",
"392 568 OFFCURVE",
"353 568 CURVE SMOOTH"
);
}
);
width = 575;
}
);
leftKerningGroup = a;
note = aring;
rightKerningGroup = a;
unicode = 00E5;
},
{
glyphname = aringacute;
lastChange = "2015-11-24 11:57:51 +0000";
layers = (
{
layerId = "1336773A-60E9-4881-855D-D55F9632DBDF";
name = "Light Italic";
paths = (
{
closed = 1;
nodes = (
"282 -10 OFFCURVE",
"336 9 OFFCURVE",
"389 50 CURVE",
"385 0 LINE",
"455 0 LINE",
"555 474 LINE",
"473 474 LINE",
"466 439 LINE",
"427 470 OFFCURVE",
"386 484 OFFCURVE",
"325 484 CURVE SMOOTH",
"197 484 OFFCURVE",
"82 394 OFFCURVE",
"47 223 CURVE SMOOTH",
"13 59 OFFCURVE",
"78 -10 OFFCURVE",
"211 -10 CURVE SMOOTH"
);
},
{
closed = 1;
nodes = (
"130 56 OFFCURVE",
"103 99 OFFCURVE",
"129 223 CURVE SMOOTH",
"156 352 OFFCURVE",
"222 418 OFFCURVE",
"333 418 CURVE SMOOTH",
"390 418 OFFCURVE",
"425 400 OFFCURVE",
"451 371 CURVE",
"397 113 LINE",
"352 74 OFFCURVE",
"301 56 OFFCURVE",
"246 56 CURVE SMOOTH"
);
},
{
closed = 1;
nodes = (
"406 519 OFFCURVE",
"455 566 OFFCURVE",
"468 626 CURVE SMOOTH",
"481 686 OFFCURVE",
"446 734 OFFCURVE",
"380 734 CURVE SMOOTH",
"309 734 OFFCURVE",
"261 686 OFFCURVE",
"248 626 CURVE SMOOTH",
"235 566 OFFCURVE",
"270 519 OFFCURVE",
"334 519 CURVE SMOOTH"
);
},
{
closed = 1;
nodes = (
"301 565 OFFCURVE",
"289 592 OFFCURVE",
"296 626 CURVE SMOOTH",
"303 660 OFFCURVE",
"333 687 OFFCURVE",
"370 687 CURVE SMOOTH",
"413 687 OFFCURVE",
"426 660 OFFCURVE",
"419 626 CURVE SMOOTH",
"412 592 OFFCURVE",
"383 565 OFFCURVE",
"344 565 CURVE SMOOTH"
);
},
{
closed = 1;
nodes = (
"443 783 LINE",
"558 917 LINE",
"484 917 LINE",
"377 783 LINE"
);
}
);
width = 575;
}
);
leftKerningGroup = a;
note = aringacute;
rightKerningGroup = a;
unicode = 01FB;
},
{
glyphname = atilde;
lastChange = "2015-11-24 11:57:53 +0000";
layers = (
{
layerId = "1336773A-60E9-4881-855D-D55F9632DBDF";
name = "Light Italic";
paths = (
{
closed = 1;
nodes = (
"282 -10 OFFCURVE",
"336 9 OFFCURVE",
"389 50 CURVE",
"385 0 LINE",
"455 0 LINE",
"555 474 LINE",
"473 474 LINE",
"466 439 LINE",
"427 470 OFFCURVE",
"386 484 OFFCURVE",
"325 484 CURVE SMOOTH",
"197 484 OFFCURVE",
"82 394 OFFCURVE",
"47 223 CURVE SMOOTH",
"13 59 OFFCURVE",
"78 -10 OFFCURVE",
"211 -10 CURVE SMOOTH"
);
},
{
closed = 1;
nodes = (
"130 56 OFFCURVE",
"103 99 OFFCURVE",
"129 223 CURVE SMOOTH",
"156 352 OFFCURVE",
"222 418 OFFCURVE",
"333 418 CURVE SMOOTH",
"390 418 OFFCURVE",
"425 400 OFFCURVE",
"451 371 CURVE",
"397 113 LINE",
"352 74 OFFCURVE",
"301 56 OFFCURVE",
"246 56 CURVE SMOOTH"
);
},
{
closed = 1;
nodes = (
"454 542 OFFCURVE",
"487 554 OFFCURVE",
"504 572 CURVE",
"517 636 LINE",
"494 611 OFFCURVE",
"467 600 OFFCURVE",
"433 600 CURVE SMOOTH",
"384 600 OFFCURVE",
"352 638 OFFCURVE",
"297 638 CURVE SMOOTH",
"266 638 OFFCURVE",
"227 626 OFFCURVE",
"207 608 CURVE",
"194 545 LINE",
"221 571 OFFCURVE",
"252 580 OFFCURVE",
"284 580 CURVE SMOOTH",
"327 580 OFFCURVE",
"368 542 OFFCURVE",
"420 542 CURVE SMOOTH"
);
}
);
width = 575;
}
);
leftKerningGroup = a;
note = atilde;
rightKerningGroup = a;
unicode = 00E3;
},
{
glyphname = ae;
lastChange = "2015-11-24 11:57:53 +0000";
layers = (
{
layerId = "1336773A-60E9-4881-855D-D55F9632DBDF";
name = "Light Italic";
paths = (
{
closed = 1;
nodes = (
"292 -10 OFFCURVE",
"366 32 OFFCURVE",
"415 80 CURVE",
"445 20 OFFCURVE",
"496 -10 OFFCURVE",
"598 -10 CURVE SMOOTH",
"654 -10 OFFCURVE",
"709 -1 OFFCURVE",
"754 17 CURVE",
"768 81 LINE",
"725 65 OFFCURVE",
"674 56 OFFCURVE",
"628 56 CURVE SMOOTH",
"492 56 OFFCURVE",
"457 91 OFFCURVE",
"472 199 CURVE",
"823 199 LINE",
"842 288 LINE SMOOTH",
"866 400 OFFCURVE",
"809 484 OFFCURVE",
"677 484 CURVE SMOOTH",
"592 484 OFFCURVE",
"528 457 OFFCURVE",
"484 411 CURVE",
"463 459 OFFCURVE",
"412 484 OFFCURVE",
"326 484 CURVE SMOOTH",
"259 484 OFFCURVE",
"197 473 OFFCURVE",
"152 457 CURVE",
"137 389 LINE",
"187 405 OFFCURVE",
"244 415 OFFCURVE",
"301 415 CURVE SMOOTH",
"412 415 OFFCURVE",
"428 383 OFFCURVE",
"413 310 CURVE SMOOTH",
"407 281 LINE",
"242 281 LINE SMOOTH",
"113 281 OFFCURVE",
"46 220 OFFCURVE",
"28 133 CURVE SMOOTH",
"7 37 OFFCURVE",
"76 -10 OFFCURVE",
"164 -10 CURVE SMOOTH"
);
},
{
closed = 1;
nodes = (
"128 57 OFFCURVE",
"96 75 OFFCURVE",
"109 133 CURVE SMOOTH",
"121 190 OFFCURVE",
"156 218 OFFCURVE",
"231 218 CURVE SMOOTH",
"394 218 LINE",
"374 126 LINE",
"328 83 OFFCURVE",
"277 57 OFFCURVE",
"200 57 CURVE SMOOTH"
);
},
{
closed = 1;
nodes = (
"507 365 OFFCURVE",
"552 418 OFFCURVE",
"665 418 CURVE SMOOTH",
"765 418 OFFCURVE",
"789 376 OFFCURVE",
"771 297 CURVE SMOOTH",
"762 258 LINE",
"484 258 LINE"
);
}
);
width = 881;
}
);
leftKerningGroup = a;
note = ae;
rightKerningGroup = e;
unicode = 00E6;
},
{
glyphname = aeacute;
lastChange = "2015-11-24 11:57:54 +0000";
layers = (
{
layerId = "1336773A-60E9-4881-855D-D55F9632DBDF";
name = "Light Italic";
paths = (
{
closed = 1;
nodes = (
"292 -10 OFFCURVE",
"366 32 OFFCURVE",
"415 80 CURVE",
"445 20 OFFCURVE",
"496 -10 OFFCURVE",
"598 -10 CURVE SMOOTH",
"654 -10 OFFCURVE",
"709 -1 OFFCURVE",
"754 17 CURVE",
"768 81 LINE",
"725 65 OFFCURVE",
"674 56 OFFCURVE",
"628 56 CURVE SMOOTH",
"492 56 OFFCURVE",
"457 91 OFFCURVE",
"472 199 CURVE",
"823 199 LINE",
"842 288 LINE SMOOTH",
"866 400 OFFCURVE",
"809 484 OFFCURVE",
"677 484 CURVE SMOOTH",
"592 484 OFFCURVE",
"528 457 OFFCURVE",
"484 411 CURVE",
"463 459 OFFCURVE",
"412 484 OFFCURVE",
"326 484 CURVE SMOOTH",
"259 484 OFFCURVE",
"197 473 OFFCURVE",
"152 457 CURVE",
"137 389 LINE",
"187 405 OFFCURVE",
"244 415 OFFCURVE",
"301 415 CURVE SMOOTH",
"412 415 OFFCURVE",
"428 383 OFFCURVE",
"413 310 CURVE SMOOTH",
"407 281 LINE",
"242 281 LINE SMOOTH",
"113 281 OFFCURVE",
"46 220 OFFCURVE",
"28 133 CURVE SMOOTH",
"7 37 OFFCURVE",
"76 -10 OFFCURVE",
"164 -10 CURVE SMOOTH"
);
},
{
closed = 1;
nodes = (
"128 57 OFFCURVE",
"96 75 OFFCURVE",
"109 133 CURVE SMOOTH",
"121 190 OFFCURVE",
"156 218 OFFCURVE",
"231 218 CURVE SMOOTH",
"394 218 LINE",
"374 126 LINE",
"328 83 OFFCURVE",
"277 57 OFFCURVE",
"200 57 CURVE SMOOTH"
);
},
{
closed = 1;
nodes = (
"507 365 OFFCURVE",
"552 418 OFFCURVE",
"665 418 CURVE SMOOTH",
"765 418 OFFCURVE",
"789 376 OFFCURVE",
"771 297 CURVE SMOOTH",
"762 258 LINE",
"484 258 LINE"
);
},
{
closed = 1;
nodes = (
"529 522 LINE",
"644 690 LINE",
"570 690 LINE",
"463 522 LINE"
);
}
);
width = 881;
}
);
leftKerningGroup = a;
note = aeacute;
rightKerningGroup = e;
unicode = 01FD;
},
{
glyphname = b;
lastChange = "2015-11-24 11:57:52 +0000";
layers = (
{
layerId = "1336773A-60E9-4881-855D-D55F9632DBDF";
name = "Light Italic";
paths = (
{
closed = 1;
nodes = (
"404 -10 OFFCURVE",
"489 69 OFFCURVE",
"526 241 CURVE SMOOTH",
"562 412 OFFCURVE",
"485 484 OFFCURVE",
"362 484 CURVE SMOOTH",
"301 484 OFFCURVE",
"246 470 OFFCURVE",
"195 439 CURVE",
"245 674 LINE",
"163 674 LINE",
"20 0 LINE",
"90 0 LINE",
"106 50 LINE",
"141 9 OFFCURVE",
"187 -10 OFFCURVE",
"258 -10 CURVE SMOOTH"
);
},
{
closed = 1;
nodes = (
"196 56 OFFCURVE",
"153 74 OFFCURVE",
"126 113 CURVE",
"180 371 LINE",
"220 400 OFFCURVE",
"269 418 OFFCURVE",
"326 418 CURVE SMOOTH",
"439 418 OFFCURVE",
"471 370 OFFCURVE",
"444 241 CURVE SMOOTH",
"417 117 OFFCURVE",
"358 56 OFFCURVE",
"251 56 CURVE SMOOTH"
);
}
);
width = 575;
}
);
note = b;
unicode = 0062;
},
{
glyphname = c;
lastChange = "2015-11-24 11:57:52 +0000";
layers = (
{
layerId = "1336773A-60E9-4881-855D-D55F9632DBDF";
name = "Light Italic";
paths = (
{
closed = 1;
nodes = (
"299 -10 OFFCURVE",
"348 -1 OFFCURVE",
"393 16 CURVE",
"407 82 LINE",
"365 65 OFFCURVE",
"318 56 OFFCURVE",
"274 56 CURVE SMOOTH",
"136 56 OFFCURVE",
"105 111 OFFCURVE",
"132 237 CURVE SMOOTH",
"160 367 OFFCURVE",
"236 418 OFFCURVE",
"354 418 CURVE SMOOTH",
"402 418 OFFCURVE",
"440 409 OFFCURVE",
"472 392 CURVE",
"486 457 LINE",
"450 475 OFFCURVE",
"416 484 OFFCURVE",
"353 484 CURVE SMOOTH",
"189 484 OFFCURVE",
"85 403 OFFCURVE",
"50 237 CURVE SMOOTH",
"16 79 OFFCURVE",
"86 -10 OFFCURVE",
"241 -10 CURVE SMOOTH"
);
}
);
width = 490;
}
);
leftKerningGroup = c;
note = c;
rightKerningGroup = c;
unicode = 0063;
},
{
glyphname = cacute;
lastChange = "2015-11-24 11:57:53 +0000";
layers = (
{
layerId = "1336773A-60E9-4881-855D-D55F9632DBDF";
name = "Light Italic";
paths = (
{
closed = 1;
nodes = (
"299 -10 OFFCURVE",
"348 -1 OFFCURVE",
"393 16 CURVE",
"407 82 LINE",
"365 65 OFFCURVE",
"318 56 OFFCURVE",
"274 56 CURVE SMOOTH",
"136 56 OFFCURVE",
"105 111 OFFCURVE",
"132 237 CURVE SMOOTH",
"160 367 OFFCURVE",
"236 418 OFFCURVE",
"354 418 CURVE SMOOTH",
"402 418 OFFCURVE",
"440 409 OFFCURVE",
"472 392 CURVE",
"486 457 LINE",
"450 475 OFFCURVE",
"416 484 OFFCURVE",
"353 484 CURVE SMOOTH",
"189 484 OFFCURVE",
"85 403 OFFCURVE",
"50 237 CURVE SMOOTH",
"16 79 OFFCURVE",
"86 -10 OFFCURVE",
"241 -10 CURVE SMOOTH"
);
},
{
closed = 1;
nodes = (
"357 522 LINE",
"472 690 LINE",
"398 690 LINE",
"291 522 LINE"
);
}
);
width = 490;
}
);
leftKerningGroup = c;
note = cacute;
rightKerningGroup = c;
unicode = 0107;
},
